<?xml version="1.0" encoding="utf-8"?>
<!-- Generator: Adobe Illustrator 25.0.0, SVG Export Plug-In . SVG Version: 6.00 Build 0)  -->
<svg version="1.1" id="Layer_1" xmlns="http://www.w3.org/2000/svg" xmlns:xlink="http://www.w3.org/1999/xlink" x="0px" y="0px"
	 width="1022.4px" height="435px" viewBox="0 0 1022.4 435" style="enable-background:new 0 0 1022.4 435;" xml:space="preserve">
<style type="text/css">
	.st0{fill:#007A82;}
	.st1{fill:#313C54;}
	.st2{fill:none;stroke:#313C54;stroke-width:0.9681;}
	.st3{fill:#FFFFFF;}
	.st4{fill:none;stroke:#FFFFFF;stroke-width:2.3793;}
	.st5{fill:none;stroke:#EC671B;stroke-width:3.4263;stroke-linecap:round;stroke-linejoin:round;stroke-miterlimit:10;}
	.st6{fill:none;stroke:#EC671B;stroke-width:2.3793;}
	.st7{fill:none;stroke:#FFFFFF;stroke-width:2.4204;stroke-linecap:round;stroke-linejoin:round;stroke-miterlimit:10;}
	.st8{fill:none;stroke:#EC671B;stroke-width:2.4204;stroke-linecap:round;stroke-linejoin:round;stroke-miterlimit:10;}
	.st9{fill:none;stroke:#FFFFFF;stroke-width:1.9363;stroke-miterlimit:10;}
	.st10{fill:none;stroke:#EC671B;stroke-width:1.9363;stroke-miterlimit:10;}
	.st11{fill:none;stroke:#FFFFFF;stroke-width:2.5795;stroke-linecap:round;stroke-miterlimit:10;}
	.st12{fill:none;stroke:#EC671B;stroke-width:2.5795;stroke-linecap:round;stroke-miterlimit:10;}
	.st13{fill:none;stroke:#FFFFFF;stroke-width:2.2533;stroke-linecap:round;stroke-linejoin:round;}
	.st14{fill:none;stroke:#FFFFFF;stroke-width:2.2533;stroke-linecap:round;stroke-linejoin:round;stroke-miterlimit:10;}
	.st15{fill:none;stroke:#EC671B;stroke-width:2.2533;stroke-linecap:round;stroke-linejoin:round;stroke-miterlimit:10;}
</style>
<g>
	<polygon class="st0" points="0,0 0,435 1021.7,435 1021.7,0 0,0 	"/>
	<path class="st1" d="M686.3,228.5c-6.1,0-11,4.9-11,11v126.2c0,6.1,4.9,11,11,11H952c6.1,0,11-4.9,11-11V239.5c0-6.1-4.9-11-11-11
		H686.3L686.3,228.5z"/>
	<path class="st2" d="M686.3,228.5c-6.1,0-11,4.9-11,11v126.2c0,6.1,4.9,11,11,11H952c6.1,0,11-4.9,11-11V239.5c0-6.1-4.9-11-11-11
		H686.3L686.3,228.5z"/>
	<g>
		<path class="st3" d="M813.8,253.2h2.8l4.7,12.4h-2.8l-0.9-2.8h-4.7l-1,2.8h-2.8L813.8,253.2z M813.5,260.8h3.2l-1.6-4.6h0
			L813.5,260.8z"/>
		<path class="st3" d="M828,259.8c-0.2-1-0.8-1.6-1.8-1.6c-1.6,0-2.1,1.6-2.1,2.9c0,1.3,0.5,2.8,2.1,2.8c1.2,0,1.8-0.7,2-1.8h2.4
			c-0.3,2.4-2,3.7-4.3,3.7c-2.7,0-4.5-1.9-4.5-4.6c0-2.8,1.7-4.9,4.6-4.9c2.1,0,4.1,1.1,4.2,3.4H828z"/>
		<path class="st3" d="M837.8,259.8c-0.2-1-0.8-1.6-1.8-1.6c-1.6,0-2.1,1.6-2.1,2.9c0,1.3,0.5,2.8,2.1,2.8c1.2,0,1.8-0.7,2-1.8h2.4
			c-0.3,2.4-2,3.7-4.3,3.7c-2.7,0-4.5-1.9-4.5-4.6c0-2.8,1.7-4.9,4.6-4.9c2.1,0,4.1,1.1,4.2,3.4H837.8z"/>
		<path class="st3" d="M843.6,261.7c0.1,1.6,0.8,2.3,2.2,2.3c1,0,1.8-0.6,2-1.2h2.2c-0.7,2.1-2.2,3-4.2,3c-2.8,0-4.6-2-4.6-4.7
			c0-2.7,1.9-4.8,4.6-4.8c3.1,0,4.5,2.6,4.4,5.3H843.6z M847.6,260.1c-0.2-1.3-0.8-1.9-2-1.9c-1.6,0-2,1.2-2.1,1.9H847.6z"/>
		<path class="st3" d="M851.4,253.2h2.5v12.4h-2.5V253.2z"/>
		<path class="st3" d="M857.7,261.7c0.1,1.6,0.8,2.3,2.2,2.3c1,0,1.8-0.6,2-1.2h2.2c-0.7,2.1-2.2,3-4.2,3c-2.8,0-4.6-2-4.6-4.7
			c0-2.7,1.9-4.8,4.6-4.8c3.1,0,4.5,2.6,4.4,5.3H857.7z M861.8,260.1c-0.2-1.3-0.8-1.9-2-1.9c-1.6,0-2,1.2-2.1,1.9H861.8z"/>
		<path class="st3" d="M865.5,256.6h2.4v1.7h0c0.5-1.1,1.7-1.9,2.9-1.9c0.2,0,0.4,0,0.5,0.1v2.3c-0.2-0.1-0.6-0.1-0.9-0.1
			c-1.8,0-2.4,1.3-2.4,2.9v4.1h-2.5V256.6z"/>
		<path class="st3" d="M872,259.4c0.1-2.3,2.2-3,4.2-3c1.8,0,4,0.4,4,2.6v4.7c0,0.8,0.1,1.6,0.3,2H878c-0.1-0.3-0.2-0.6-0.2-0.9
			c-0.8,0.8-1.9,1.1-3,1.1c-1.7,0-3.1-0.9-3.1-2.7c0-2,1.5-2.5,3.1-2.7c1.5-0.2,2.9-0.2,2.9-1.2c0-1.1-0.7-1.2-1.6-1.2
			c-0.9,0-1.6,0.4-1.6,1.4H872z M877.7,261.2c-0.4,0.4-1.3,0.4-2.1,0.5c-0.8,0.2-1.5,0.4-1.5,1.3c0,0.9,0.7,1.1,1.5,1.1
			c1.9,0,2-1.5,2-2.1V261.2z"/>
		<path class="st3" d="M885.1,256.6h1.8v1.7h-1.8v4.5c0,0.8,0.2,1,1,1c0.3,0,0.5,0,0.8-0.1v1.9c-0.4,0.1-1,0.1-1.4,0.1
			c-1.5,0-2.8-0.3-2.8-2.1v-5.3h-1.5v-1.7h1.5v-2.7h2.5V256.6z"/>
		<path class="st3" d="M890,261.7c0.1,1.6,0.8,2.3,2.2,2.3c1,0,1.8-0.6,2-1.2h2.2c-0.7,2.1-2.2,3-4.2,3c-2.8,0-4.6-2-4.6-4.7
			c0-2.7,1.9-4.8,4.6-4.8c3.1,0,4.5,2.6,4.4,5.3H890z M894,260.1c-0.2-1.3-0.8-1.9-2-1.9c-1.6,0-2,1.2-2.1,1.9H894z"/>
		<path class="st3" d="M904.2,264.5L904.2,264.5c-0.6,1-1.6,1.4-2.8,1.4c-2.7,0-4-2.3-4-4.8c0-2.4,1.3-4.7,4-4.7
			c1.1,0,2.1,0.5,2.7,1.3h0v-4.5h2.5v12.4h-2.4V264.5z M902,258.2c-1.6,0-2.2,1.4-2.2,2.9c0,1.4,0.6,2.9,2.2,2.9
			c1.6,0,2.1-1.4,2.1-2.9C904.1,259.6,903.6,258.2,902,258.2z"/>
	</g>
	<g>
		<path class="st3" d="M816.6,285.8L816.6,285.8c-0.6,1-1.6,1.4-2.8,1.4c-2.7,0-4-2.3-4-4.8c0-2.4,1.3-4.7,4-4.7
			c1.1,0,2.1,0.5,2.7,1.3h0v-4.5h2.5v12.4h-2.4V285.8z M814.4,279.5c-1.6,0-2.2,1.4-2.2,2.9c0,1.4,0.6,2.9,2.2,2.9
			c1.6,0,2.1-1.4,2.1-2.9C816.5,280.9,816,279.5,814.4,279.5z"/>
		<path class="st3" d="M822.6,283c0.1,1.6,0.8,2.3,2.2,2.3c1,0,1.8-0.6,2-1.2h2.2c-0.7,2.1-2.2,3-4.2,3c-2.8,0-4.6-2-4.6-4.7
			c0-2.7,1.9-4.8,4.6-4.8c3.1,0,4.5,2.6,4.4,5.3H822.6z M826.7,281.4c-0.2-1.3-0.8-1.9-2-1.9c-1.6,0-2,1.2-2.1,1.9H826.7z"/>
		<path class="st3" d="M835.4,286.9h-2.8l-3.1-9h2.6l1.9,6.2h0l1.9-6.2h2.5L835.4,286.9z"/>
		<path class="st3" d="M841.3,283c0.1,1.6,0.8,2.3,2.2,2.3c1,0,1.8-0.6,2-1.2h2.2c-0.7,2.1-2.2,3-4.2,3c-2.8,0-4.6-2-4.6-4.7
			c0-2.7,1.9-4.8,4.6-4.8c3.1,0,4.5,2.6,4.4,5.3H841.3z M845.4,281.4c-0.2-1.3-0.8-1.9-2-1.9c-1.6,0-2,1.2-2.1,1.9H845.4z"/>
		<path class="st3" d="M849.2,274.5h2.5v12.4h-2.5V274.5z"/>
		<path class="st3" d="M857.8,277.7c2.8,0,4.7,1.9,4.7,4.8c0,2.9-1.8,4.7-4.7,4.7c-2.8,0-4.7-1.9-4.7-4.7
			C853.2,279.5,855,277.7,857.8,277.7z M857.8,285.3c1.7,0,2.2-1.4,2.2-2.9c0-1.4-0.5-2.9-2.2-2.9c-1.7,0-2.2,1.4-2.2,2.9
			C855.7,283.9,856.2,285.3,857.8,285.3z"/>
		<path class="st3" d="M863.9,277.9h2.4v1.1h0c0.6-1,1.6-1.4,2.7-1.4c2.8,0,4.1,2.3,4.1,4.8c0,2.4-1.3,4.7-4,4.7
			c-1.1,0-2.1-0.5-2.7-1.4h0v4.3h-2.5V277.9z M870.6,282.4c0-1.4-0.6-2.9-2.2-2.9c-1.6,0-2.1,1.4-2.1,2.9c0,1.5,0.6,2.9,2.2,2.9
			C870.1,285.3,870.6,283.9,870.6,282.4z"/>
		<path class="st3" d="M874.5,277.9h2.3v1.2h0c0.6-0.9,1.6-1.5,2.8-1.5c1.1,0,2.1,0.4,2.6,1.5c0.5-0.8,1.5-1.5,2.7-1.5
			c1.9,0,3.3,0.9,3.3,3.2v6h-2.5v-5.1c0-1.2-0.1-2.2-1.5-2.2c-1.4,0-1.7,1.1-1.7,2.3v5h-2.5v-5.1c0-1,0.1-2.2-1.5-2.2
			c-0.5,0-1.7,0.3-1.7,2.1v5.2h-2.5V277.9z"/>
		<path class="st3" d="M892.1,283c0.1,1.6,0.8,2.3,2.2,2.3c1,0,1.8-0.6,2-1.2h2.2c-0.7,2.1-2.2,3-4.2,3c-2.8,0-4.6-2-4.6-4.7
			c0-2.7,1.9-4.8,4.6-4.8c3.1,0,4.5,2.6,4.4,5.3H892.1z M896.1,281.4c-0.2-1.3-0.8-1.9-2-1.9c-1.6,0-2,1.2-2.1,1.9H896.1z"/>
		<path class="st3" d="M899.9,277.9h2.4v1.3h0.1c0.6-1,1.7-1.5,2.8-1.5c2.6,0,3.3,1.5,3.3,3.7v5.5h-2.5v-5.1c0-1.5-0.4-2.2-1.6-2.2
			c-1.3,0-1.9,0.7-1.9,2.6v4.7h-2.5V277.9z"/>
		<path class="st3" d="M913.1,277.9h1.8v1.7h-1.8v4.5c0,0.8,0.2,1,1,1c0.3,0,0.5,0,0.8-0.1v1.9c-0.4,0.1-1,0.1-1.4,0.1
			c-1.5,0-2.8-0.3-2.8-2.1v-5.3h-1.5v-1.7h1.5v-2.7h2.5V277.9z"/>
	</g>
	<g>
		<path class="st3" d="M810,302c0.1-2.3,2.2-3,4.2-3c1.8,0,4,0.4,4,2.6v4.7c0,0.8,0.1,1.6,0.3,2H816c-0.1-0.3-0.2-0.6-0.2-0.9
			c-0.8,0.8-1.9,1.1-3,1.1c-1.7,0-3.1-0.9-3.1-2.7c0-2,1.5-2.5,3.1-2.7c1.5-0.2,2.9-0.2,2.9-1.2c0-1.1-0.7-1.2-1.6-1.2
			c-0.9,0-1.6,0.4-1.6,1.4H810z M815.7,303.8c-0.4,0.4-1.3,0.4-2.1,0.5c-0.8,0.2-1.5,0.4-1.5,1.3c0,0.9,0.7,1.1,1.5,1.1
			c1.9,0,2-1.5,2-2.1V303.8z"/>
		<path class="st3" d="M820,299.2h2.4v1.3h0.1c0.6-1,1.7-1.5,2.8-1.5c2.6,0,3.3,1.5,3.3,3.7v5.5h-2.5v-5.1c0-1.5-0.4-2.2-1.6-2.2
			c-1.3,0-1.9,0.7-1.9,2.6v4.7H820V299.2z"/>
		<path class="st3" d="M836.5,307.1L836.5,307.1c-0.6,1-1.6,1.4-2.8,1.4c-2.7,0-4-2.3-4-4.8c0-2.4,1.3-4.7,4-4.7
			c1.1,0,2.1,0.5,2.7,1.3h0v-4.5h2.5v12.4h-2.4V307.1z M834.4,300.8c-1.6,0-2.2,1.4-2.2,2.9c0,1.4,0.6,2.9,2.2,2.9
			c1.6,0,2.1-1.4,2.1-2.9C836.5,302.2,836,300.8,834.4,300.8z"/>
		<path class="st3" d="M845.3,299.2h2.4v1.7h0c0.5-1.1,1.7-1.9,2.9-1.9c0.2,0,0.4,0,0.5,0.1v2.3c-0.2-0.1-0.6-0.1-0.9-0.1
			c-1.8,0-2.4,1.3-2.4,2.9v4.1h-2.5V299.2z"/>
	</g>
	<g>
		<path class="st3" d="M853.6,304.3c0.1,1.6,0.8,2.3,2.2,2.3c1,0,1.8-0.6,2-1.2h2.2c-0.7,2.1-2.2,3-4.2,3c-2.8,0-4.6-2-4.6-4.7
			c0-2.7,1.9-4.8,4.6-4.8c3.1,0,4.5,2.6,4.4,5.3H853.6z M857.6,302.7c-0.2-1.3-0.8-1.9-2-1.9c-1.6,0-2,1.2-2.1,1.9H857.6z"/>
		<path class="st3" d="M870,307.6c0,1.5-0.5,4-4.7,4c-1.8,0-3.9-0.8-4-2.9h2.5c0.2,0.9,1,1.2,1.8,1.2c1.4,0,2-0.9,2-2.2v-1.2h0
			c-0.5,0.9-1.6,1.4-2.7,1.4c-2.7,0-3.9-2.1-3.9-4.5c0-2.3,1.3-4.5,3.9-4.5c1.2,0,2.1,0.4,2.7,1.4h0v-1.2h2.4V307.6z M867.7,303.6
			c0-1.5-0.5-2.8-2.1-2.8c-1.4,0-2,1.2-2,2.6c0,1.3,0.5,2.7,2,2.7C867,306.1,867.7,304.9,867.7,303.6z"/>
		<path class="st3" d="M880.3,308.2h-2.4V307h-0.1c-0.6,1-1.7,1.5-2.8,1.5c-2.6,0-3.3-1.5-3.3-3.7v-5.5h2.5v5.1
			c0,1.5,0.4,2.2,1.6,2.2c1.3,0,1.9-0.7,1.9-2.6v-4.7h2.5V308.2z"/>
		<path class="st3" d="M882.1,295.8h2.5v12.4h-2.5V295.8z"/>
		<path class="st3" d="M886.2,302c0.1-2.3,2.2-3,4.2-3c1.8,0,4,0.4,4,2.6v4.7c0,0.8,0.1,1.6,0.3,2h-2.5c-0.1-0.3-0.2-0.6-0.2-0.9
			c-0.8,0.8-1.9,1.1-3,1.1c-1.7,0-3.1-0.9-3.1-2.7c0-2,1.5-2.5,3.1-2.7c1.5-0.2,2.9-0.2,2.9-1.2c0-1.1-0.7-1.2-1.6-1.2
			c-0.9,0-1.6,0.4-1.6,1.4H886.2z M891.9,303.8c-0.4,0.4-1.3,0.4-2.1,0.5c-0.8,0.2-1.5,0.4-1.5,1.3c0,0.9,0.7,1.1,1.5,1.1
			c1.9,0,2-1.5,2-2.1V303.8z"/>
		<path class="st3" d="M899.3,299.2h1.8v1.7h-1.8v4.5c0,0.8,0.2,1,1,1c0.3,0,0.5,0,0.8-0.1v1.9c-0.4,0.1-1,0.1-1.4,0.1
			c-1.5,0-2.8-0.3-2.8-2.1v-5.3h-1.5v-1.7h1.5v-2.7h2.5V299.2z"/>
		<path class="st3" d="M906.5,299c2.8,0,4.7,1.9,4.7,4.8c0,2.9-1.8,4.7-4.7,4.7c-2.8,0-4.7-1.9-4.7-4.7
			C901.8,300.8,903.7,299,906.5,299z M906.5,306.6c1.7,0,2.2-1.4,2.2-2.9c0-1.4-0.5-2.9-2.2-2.9c-1.7,0-2.2,1.4-2.2,2.9
			C904.3,305.2,904.8,306.6,906.5,306.6z"/>
		<path class="st3" d="M912.6,299.2h2.4v1.7h0c0.5-1.1,1.7-1.9,2.9-1.9c0.2,0,0.4,0,0.5,0.1v2.3c-0.2-0.1-0.6-0.1-0.9-0.1
			c-1.8,0-2.4,1.3-2.4,2.9v4.1h-2.5V299.2z"/>
		<path class="st3" d="M923.6,309.4c-0.5,1.4-1.4,2-3.1,2c-0.5,0-1,0-1.5-0.1v-2c0.5,0,1,0.1,1.4,0.1c0.9-0.1,1.1-1,0.9-1.7
			l-3.2-8.5h2.6l2,6.2h0l2-6.2h2.6L923.6,309.4z"/>
	</g>
	<g>
		<path class="st3" d="M810.1,320.5h2.4v1.1h0c0.6-1,1.6-1.4,2.7-1.4c2.8,0,4.1,2.3,4.1,4.8c0,2.4-1.3,4.7-4,4.7
			c-1.1,0-2.1-0.5-2.7-1.4h0v4.3h-2.5V320.5z M816.8,325.1c0-1.4-0.6-2.9-2.2-2.9c-1.6,0-2.1,1.4-2.1,2.9c0,1.5,0.6,2.9,2.2,2.9
			C816.3,327.9,816.8,326.5,816.8,325.1z"/>
		<path class="st3" d="M820.5,323.3c0.1-2.3,2.2-3,4.2-3c1.8,0,4,0.4,4,2.6v4.7c0,0.8,0.1,1.6,0.3,2h-2.5c-0.1-0.3-0.2-0.6-0.2-0.9
			c-0.8,0.8-1.9,1.1-3,1.1c-1.7,0-3.1-0.9-3.1-2.7c0-2,1.5-2.5,3.1-2.7c1.5-0.2,2.9-0.2,2.9-1.2c0-1.1-0.7-1.2-1.6-1.2
			c-0.9,0-1.6,0.4-1.6,1.4H820.5z M826.2,325.1c-0.4,0.4-1.3,0.4-2.1,0.5c-0.8,0.2-1.5,0.4-1.5,1.3c0,0.9,0.7,1.1,1.5,1.1
			c1.9,0,2-1.5,2-2.1V325.1z"/>
		<path class="st3" d="M833.6,320.5h1.8v1.7h-1.8v4.5c0,0.8,0.2,1,1,1c0.3,0,0.5,0,0.8-0.1v1.9c-0.4,0.1-1,0.1-1.4,0.1
			c-1.5,0-2.8-0.3-2.8-2.1v-5.3h-1.5v-1.7h1.5v-2.7h2.5V320.5z"/>
		<path class="st3" d="M836.4,317.1h2.5v4.7h0.1c0.6-1,1.7-1.5,2.6-1.5c2.6,0,3.3,1.5,3.3,3.7v5.5h-2.5v-5.1c0-1.5-0.4-2.2-1.6-2.2
			c-1.3,0-1.9,0.7-1.9,2.6v4.7h-2.5V317.1z"/>
		<path class="st3" d="M856.8,329.5h-2.5l-1.6-6h0l-1.5,6h-2.6l-2.9-9h2.6l1.7,6.1h0l1.5-6.1h2.4l1.5,6.1h0l1.7-6.1h2.5L856.8,329.5
			z"/>
		<path class="st3" d="M860.4,323.3c0.1-2.3,2.2-3,4.2-3c1.8,0,4,0.4,4,2.6v4.7c0,0.8,0.1,1.6,0.3,2h-2.5c-0.1-0.3-0.2-0.6-0.2-0.9
			c-0.8,0.8-1.9,1.1-3,1.1c-1.7,0-3.1-0.9-3.1-2.7c0-2,1.5-2.5,3.1-2.7c1.5-0.2,2.9-0.2,2.9-1.2c0-1.1-0.7-1.2-1.6-1.2
			c-0.9,0-1.6,0.4-1.6,1.4H860.4z M866.2,325.1c-0.4,0.4-1.3,0.4-2.1,0.5c-0.8,0.2-1.5,0.4-1.5,1.3c0,0.9,0.7,1.1,1.5,1.1
			c1.9,0,2-1.5,2-2.1V325.1z"/>
		<path class="st3" d="M874.8,330.7c-0.5,1.4-1.4,2-3.1,2c-0.5,0-1,0-1.5-0.1v-2c0.5,0,1,0.1,1.4,0.1c0.9-0.1,1.1-1,0.9-1.7
			l-3.2-8.5h2.6l2,6.2h0l2-6.2h2.6L874.8,330.7z"/>
		<path class="st3" d="M881.2,326.6c0,1.1,0.9,1.5,1.9,1.5c0.7,0,1.6-0.3,1.6-1.1c0-0.7-1-1-2.8-1.4c-1.4-0.3-2.9-0.8-2.9-2.4
			c0-2.3,2-2.9,3.9-2.9c2,0,3.8,0.7,4,2.9h-2.4c-0.1-1-0.8-1.2-1.7-1.2c-0.6,0-1.4,0.1-1.4,0.8c0,0.9,1.4,1,2.8,1.3
			c1.4,0.3,2.9,0.9,2.9,2.5c0,2.4-2.1,3.1-4.1,3.1c-2.1,0-4.1-0.8-4.2-3.2H881.2z"/>
	</g>
	<path class="st4" d="M747.5,348.9c23.1,0,41.9-18.8,41.9-41.9c0-23.1-18.7-41.9-41.9-41.9c-23.1,0-41.9,18.7-41.9,41.9
		C705.6,330.1,724.4,348.9,747.5,348.9L747.5,348.9z"/>
	<path class="st5" d="M726.6,307l41,0 M752.9,292.5l15.5,14.5 M752.9,321.5l15.1-14.1"/>
	<path class="st1" d="M376.4,228.5c-6.1,0-11,4.9-11,11v126.2c0,6.1,4.9,11,11,11h265.7c6.1,0,11-4.9,11-11V239.5
		c0-6.1-4.9-11-11-11H376.4L376.4,228.5z"/>
	<path class="st2" d="M376.4,228.5c-6.1,0-11,4.9-11,11v126.2c0,6.1,4.9,11,11,11h265.7c6.1,0,11-4.9,11-11V239.5
		c0-6.1-4.9-11-11-11H376.4L376.4,228.5z"/>
	<g>
		<path class="st3" d="M496.4,253.2h5.4c3.2,0,5.6,2,5.6,6.2c0,3.6-1.8,6.3-5.6,6.3h-5.4V253.2z M499.1,263.3h2.4
			c1.6,0,3.1-1,3.1-3.7c0-2.5-0.9-4.1-3.6-4.1h-2V263.3z"/>
		<path class="st3" d="M510.9,261.7c0.1,1.6,0.8,2.3,2.2,2.3c1,0,1.8-0.6,2-1.2h2.2c-0.7,2.1-2.2,3-4.2,3c-2.8,0-4.6-2-4.6-4.7
			c0-2.7,1.9-4.8,4.6-4.8c3.1,0,4.5,2.6,4.4,5.3H510.9z M514.9,260.1c-0.2-1.3-0.8-1.9-2-1.9c-1.6,0-2,1.2-2.1,1.9H514.9z"/>
		<path class="st3" d="M519.2,258.3h-1.5v-1.7h1.5v-0.7c0-1.6,1-2.7,3-2.7c0.4,0,0.9,0.1,1.3,0.1v1.8c-0.3,0-0.6-0.1-0.9-0.1
			c-0.7,0-0.9,0.3-0.9,1v0.5h1.7v1.7h-1.7v7.4h-2.5V258.3z M527.4,255.2h-2.5v-2h2.5V255.2z M524.9,256.6h2.5v9h-2.5V256.6z"/>
	</g>
	<g>
		<path class="st3" d="M529.2,256.6h2.4v1.3h0.1c0.6-1,1.7-1.5,2.8-1.5c2.6,0,3.3,1.5,3.3,3.7v5.5h-2.5v-5.1c0-1.5-0.4-2.2-1.6-2.2
			c-1.3,0-1.9,0.7-1.9,2.6v4.7h-2.5V256.6z"/>
		<path class="st3" d="M541.4,261.7c0.1,1.6,0.8,2.3,2.2,2.3c1,0,1.8-0.6,2-1.2h2.2c-0.7,2.1-2.2,3-4.2,3c-2.8,0-4.6-2-4.6-4.7
			c0-2.7,1.9-4.8,4.6-4.8c3.1,0,4.5,2.6,4.4,5.3H541.4z M545.4,260.1c-0.2-1.3-0.8-1.9-2-1.9c-1.6,0-2,1.2-2.1,1.9H545.4z"/>
		<path class="st3" d="M555.6,264.5L555.6,264.5c-0.6,1-1.6,1.4-2.8,1.4c-2.7,0-4-2.3-4-4.8c0-2.4,1.3-4.7,4-4.7
			c1.1,0,2.1,0.5,2.7,1.3h0v-4.5h2.5v12.4h-2.4V264.5z M553.4,258.2c-1.6,0-2.2,1.4-2.2,2.9c0,1.4,0.6,2.9,2.2,2.9
			c1.6,0,2.1-1.4,2.1-2.9C555.5,259.6,555,258.2,553.4,258.2z"/>
		<path class="st3" d="M564.3,256.6h2.4v1.1h0c0.6-1,1.6-1.4,2.7-1.4c2.8,0,4.1,2.3,4.1,4.8c0,2.4-1.3,4.7-4,4.7
			c-1.1,0-2.1-0.5-2.7-1.4h0v4.3h-2.5V256.6z M571,261.1c0-1.4-0.6-2.9-2.2-2.9c-1.6,0-2.1,1.4-2.1,2.9c0,1.5,0.6,2.9,2.2,2.9
			C570.5,264,571,262.6,571,261.1z"/>
		<path class="st3" d="M574.7,259.4c0.1-2.3,2.2-3,4.2-3c1.8,0,4,0.4,4,2.6v4.7c0,0.8,0.1,1.6,0.3,2h-2.5c-0.1-0.3-0.2-0.6-0.2-0.9
			c-0.8,0.8-1.9,1.1-3,1.1c-1.7,0-3.1-0.9-3.1-2.7c0-2,1.5-2.5,3.1-2.7c1.5-0.2,2.9-0.2,2.9-1.2c0-1.1-0.7-1.2-1.6-1.2
			c-0.9,0-1.6,0.4-1.6,1.4H574.7z M580.4,261.2c-0.4,0.4-1.3,0.4-2.1,0.5c-0.8,0.2-1.5,0.4-1.5,1.3c0,0.9,0.7,1.1,1.5,1.1
			c1.9,0,2-1.5,2-2.1V261.2z"/>
		<path class="st3" d="M587.7,256.6h1.8v1.7h-1.8v4.5c0,0.8,0.2,1,1,1c0.3,0,0.5,0,0.8-0.1v1.9c-0.4,0.1-1,0.1-1.4,0.1
			c-1.5,0-2.8-0.3-2.8-2.1v-5.3h-1.5v-1.7h1.5v-2.7h2.5V256.6z"/>
		<path class="st3" d="M593.1,255.2h-2.5v-2h2.5V255.2z M590.6,256.6h2.5v9h-2.5V256.6z"/>
		<path class="st3" d="M596.9,261.7c0.1,1.6,0.8,2.3,2.2,2.3c1,0,1.8-0.6,2-1.2h2.2c-0.7,2.1-2.2,3-4.2,3c-2.8,0-4.6-2-4.6-4.7
			c0-2.7,1.9-4.8,4.6-4.8c3.1,0,4.5,2.6,4.4,5.3H596.9z M600.9,260.1c-0.2-1.3-0.8-1.9-2-1.9c-1.6,0-2,1.2-2.1,1.9H600.9z"/>
		<path class="st3" d="M604.7,256.6h2.4v1.3h0.1c0.6-1,1.7-1.5,2.8-1.5c2.6,0,3.3,1.5,3.3,3.7v5.5h-2.5v-5.1c0-1.5-0.4-2.2-1.6-2.2
			c-1.3,0-1.9,0.7-1.9,2.6v4.7h-2.5V256.6z"/>
		<path class="st3" d="M618,256.6h1.8v1.7H618v4.5c0,0.8,0.2,1,1,1c0.3,0,0.5,0,0.8-0.1v1.9c-0.4,0.1-1,0.1-1.4,0.1
			c-1.5,0-2.8-0.3-2.8-2.1v-5.3H614v-1.7h1.5v-2.7h2.5V256.6z"/>
	</g>
	<g>
		<path class="st3" d="M498,284c0,1.1,0.9,1.5,1.9,1.5c0.7,0,1.6-0.3,1.6-1.1c0-0.7-1-1-2.8-1.4c-1.4-0.3-2.9-0.8-2.9-2.4
			c0-2.3,2-2.9,3.9-2.9c2,0,3.8,0.7,4,2.9h-2.4c-0.1-1-0.8-1.2-1.7-1.2c-0.6,0-1.4,0.1-1.4,0.8c0,0.9,1.4,1,2.8,1.3
			c1.4,0.3,2.9,0.9,2.9,2.5c0,2.4-2.1,3.1-4.1,3.1c-2.1,0-4.1-0.8-4.2-3.2H498z"/>
		<path class="st3" d="M507.3,283c0.1,1.6,0.8,2.3,2.2,2.3c1,0,1.8-0.6,2-1.2h2.2c-0.7,2.1-2.2,3-4.2,3c-2.8,0-4.6-2-4.6-4.7
			c0-2.7,1.9-4.8,4.6-4.8c3.1,0,4.5,2.6,4.4,5.3H507.3z M511.4,281.4c-0.2-1.3-0.8-1.9-2-1.9c-1.6,0-2,1.2-2.1,1.9H511.4z"/>
		<path class="st3" d="M523.8,286.3c0,1.5-0.5,4-4.7,4c-1.8,0-3.9-0.8-4-2.9h2.5c0.2,0.9,1,1.2,1.8,1.2c1.4,0,2-0.9,2-2.2v-1.2h0
			c-0.5,0.9-1.6,1.4-2.7,1.4c-2.7,0-3.9-2.1-3.9-4.5c0-2.3,1.3-4.5,3.9-4.5c1.2,0,2.1,0.4,2.7,1.4h0v-1.2h2.4V286.3z M521.4,282.3
			c0-1.5-0.5-2.8-2.1-2.8c-1.4,0-2,1.2-2,2.6c0,1.3,0.5,2.7,2,2.7C520.7,284.8,521.4,283.6,521.4,282.3z"/>
		<path class="st3" d="M525.7,277.9h2.3v1.2h0c0.6-0.9,1.6-1.5,2.8-1.5c1.1,0,2.1,0.4,2.6,1.5c0.5-0.8,1.5-1.5,2.7-1.5
			c1.9,0,3.3,0.9,3.3,3.2v6H537v-5.1c0-1.2-0.1-2.2-1.5-2.2c-1.4,0-1.7,1.1-1.7,2.3v5h-2.5v-5.1c0-1,0.1-2.2-1.5-2.2
			c-0.5,0-1.7,0.3-1.7,2.1v5.2h-2.5V277.9z"/>
		<path class="st3" d="M543.3,283c0.1,1.6,0.8,2.3,2.2,2.3c1,0,1.8-0.6,2-1.2h2.2c-0.7,2.1-2.2,3-4.2,3c-2.8,0-4.6-2-4.6-4.7
			c0-2.7,1.9-4.8,4.6-4.8c3.1,0,4.5,2.6,4.4,5.3H543.3z M547.3,281.4c-0.2-1.3-0.8-1.9-2-1.9c-1.6,0-2,1.2-2.1,1.9H547.3z"/>
		<path class="st3" d="M551.1,277.9h2.4v1.3h0.1c0.6-1,1.7-1.5,2.8-1.5c2.6,0,3.3,1.5,3.3,3.7v5.5H557v-5.1c0-1.5-0.4-2.2-1.6-2.2
			c-1.3,0-1.9,0.7-1.9,2.6v4.7h-2.5V277.9z"/>
		<path class="st3" d="M564.3,277.9h1.8v1.7h-1.8v4.5c0,0.8,0.2,1,1,1c0.3,0,0.5,0,0.8-0.1v1.9c-0.4,0.1-1,0.1-1.4,0.1
			c-1.5,0-2.8-0.3-2.8-2.1v-5.3h-1.5v-1.7h1.5v-2.7h2.5V277.9z"/>
		<path class="st3" d="M569.1,284c0,1.1,0.9,1.5,1.9,1.5c0.7,0,1.6-0.3,1.6-1.1c0-0.7-1-1-2.8-1.4c-1.4-0.3-2.9-0.8-2.9-2.4
			c0-2.3,2-2.9,3.9-2.9c2,0,3.8,0.7,4,2.9h-2.4c-0.1-1-0.8-1.2-1.7-1.2c-0.6,0-1.4,0.1-1.4,0.8c0,0.9,1.4,1,2.8,1.3
			c1.4,0.3,2.9,0.9,2.9,2.5c0,2.4-2.1,3.1-4.1,3.1c-2.1,0-4.1-0.8-4.2-3.2H569.1z"/>
	</g>
	<g>
		<path class="st3" d="M584.7,274.2h2l-4.9,13h-2L584.7,274.2z"/>
	</g>
	<g>
		<path class="st3" d="M499.3,299.2h1.8v1.7h-1.8v4.5c0,0.8,0.2,1,1,1c0.3,0,0.5,0,0.8-0.1v1.9c-0.4,0.1-1,0.1-1.4,0.1
			c-1.5,0-2.8-0.3-2.8-2.1v-5.3h-1.5v-1.7h1.5v-2.7h2.5V299.2z"/>
		<path class="st3" d="M502,302c0.1-2.3,2.2-3,4.2-3c1.8,0,4,0.4,4,2.6v4.7c0,0.8,0.1,1.6,0.3,2H508c-0.1-0.3-0.2-0.6-0.2-0.9
			c-0.8,0.8-1.9,1.1-3,1.1c-1.7,0-3.1-0.9-3.1-2.7c0-2,1.5-2.5,3.1-2.7c1.5-0.2,2.9-0.2,2.9-1.2c0-1.1-0.7-1.2-1.6-1.2
			c-0.9,0-1.6,0.4-1.6,1.4H502z M507.7,303.8c-0.4,0.4-1.3,0.4-2.1,0.5c-0.8,0.2-1.5,0.4-1.5,1.3c0,0.9,0.7,1.1,1.5,1.1
			c1.9,0,2-1.5,2-2.1V303.8z"/>
		<path class="st3" d="M511.9,299.2h2.4v1.7h0c0.5-1.1,1.7-1.9,2.9-1.9c0.2,0,0.4,0,0.5,0.1v2.3c-0.2-0.1-0.6-0.1-0.9-0.1
			c-1.8,0-2.4,1.3-2.4,2.9v4.1h-2.5V299.2z"/>
		<path class="st3" d="M527.2,307.6c0,1.5-0.5,4-4.7,4c-1.8,0-3.9-0.8-4-2.9h2.5c0.2,0.9,1,1.2,1.8,1.2c1.4,0,2-0.9,2-2.2v-1.2h0
			c-0.5,0.9-1.6,1.4-2.7,1.4c-2.7,0-3.9-2.1-3.9-4.5c0-2.3,1.3-4.5,3.9-4.5c1.2,0,2.1,0.4,2.7,1.4h0v-1.2h2.4V307.6z M524.8,303.6
			c0-1.5-0.5-2.8-2.1-2.8c-1.4,0-2,1.2-2,2.6c0,1.3,0.5,2.7,2,2.7C524.1,306.1,524.8,304.9,524.8,303.6z"/>
		<path class="st3" d="M531,304.3c0.1,1.6,0.8,2.3,2.2,2.3c1,0,1.8-0.6,2-1.2h2.2c-0.7,2.1-2.2,3-4.2,3c-2.8,0-4.6-2-4.6-4.7
			c0-2.7,1.9-4.8,4.6-4.8c3.1,0,4.5,2.6,4.4,5.3H531z M535.1,302.7c-0.2-1.3-0.8-1.9-2-1.9c-1.6,0-2,1.2-2.1,1.9H535.1z"/>
		<path class="st3" d="M542,299.2h1.8v1.7H542v4.5c0,0.8,0.2,1,1,1c0.3,0,0.5,0,0.8-0.1v1.9c-0.4,0.1-1,0.1-1.4,0.1
			c-1.5,0-2.8-0.3-2.8-2.1v-5.3H538v-1.7h1.5v-2.7h2.5V299.2z"/>
		<path class="st3" d="M546.8,304.3c0.1,1.6,0.8,2.3,2.2,2.3c1,0,1.8-0.6,2-1.2h2.2c-0.7,2.1-2.2,3-4.2,3c-2.8,0-4.6-2-4.6-4.7
			c0-2.7,1.9-4.8,4.6-4.8c3.1,0,4.5,2.6,4.4,5.3H546.8z M550.8,302.7c-0.2-1.3-0.8-1.9-2-1.9c-1.6,0-2,1.2-2.1,1.9H550.8z"/>
		<path class="st3" d="M561,307.1L561,307.1c-0.6,1-1.6,1.4-2.8,1.4c-2.7,0-4-2.3-4-4.8c0-2.4,1.3-4.7,4-4.7c1.1,0,2.1,0.5,2.7,1.3
			h0v-4.5h2.5v12.4H561V307.1z M558.9,300.8c-1.6,0-2.2,1.4-2.2,2.9c0,1.4,0.6,2.9,2.2,2.9c1.6,0,2.1-1.4,2.1-2.9
			C561,302.2,560.5,300.8,558.9,300.8z"/>
	</g>
	<g>
		<path class="st3" d="M496.2,320.5h2.3v1.2h0c0.6-0.9,1.6-1.5,2.8-1.5c1.1,0,2.1,0.4,2.6,1.5c0.5-0.8,1.5-1.5,2.7-1.5
			c1.9,0,3.3,0.9,3.3,3.2v6h-2.5v-5.1c0-1.2-0.1-2.2-1.5-2.2c-1.4,0-1.7,1.1-1.7,2.3v5h-2.5v-5.1c0-1,0.1-2.2-1.5-2.2
			c-0.5,0-1.7,0.3-1.7,2.1v5.2h-2.5V320.5z"/>
		<path class="st3" d="M511.6,323.3c0.1-2.3,2.2-3,4.2-3c1.8,0,4,0.4,4,2.6v4.7c0,0.8,0.1,1.6,0.3,2h-2.5c-0.1-0.3-0.2-0.6-0.2-0.9
			c-0.8,0.8-1.9,1.1-3,1.1c-1.7,0-3.1-0.9-3.1-2.7c0-2,1.5-2.5,3.1-2.7c1.5-0.2,2.9-0.2,2.9-1.2c0-1.1-0.7-1.2-1.6-1.2
			c-0.9,0-1.6,0.4-1.6,1.4H511.6z M517.3,325.1c-0.4,0.4-1.3,0.4-2.1,0.5c-0.8,0.2-1.5,0.4-1.5,1.3c0,0.9,0.7,1.1,1.5,1.1
			c1.9,0,2-1.5,2-2.1V325.1z"/>
		<path class="st3" d="M521.6,320.5h2.4v1.7h0c0.5-1.1,1.7-1.9,2.9-1.9c0.2,0,0.4,0,0.5,0.1v2.3c-0.2-0.1-0.6-0.1-0.9-0.1
			c-1.8,0-2.4,1.3-2.4,2.9v4.1h-2.5V320.5z"/>
		<path class="st3" d="M528.4,317.1h2.5v6.7l3.1-3.2h2.9l-3.4,3.3l3.8,5.7h-3l-2.5-4l-1,0.9v3.1h-2.5V317.1z"/>
		<path class="st3" d="M540,325.6c0.1,1.6,0.8,2.3,2.2,2.3c1,0,1.8-0.6,2-1.2h2.2c-0.7,2.1-2.2,3-4.2,3c-2.8,0-4.6-2-4.6-4.7
			c0-2.7,1.9-4.8,4.6-4.8c3.1,0,4.5,2.6,4.4,5.3H540z M544.1,324.1c-0.2-1.3-0.8-1.9-2-1.9c-1.6,0-2,1.2-2.1,1.9H544.1z"/>
		<path class="st3" d="M551,320.5h1.8v1.7H551v4.5c0,0.8,0.2,1,1,1c0.3,0,0.5,0,0.8-0.1v1.9c-0.4,0.1-1,0.1-1.4,0.1
			c-1.5,0-2.8-0.3-2.8-2.1v-5.3H547v-1.7h1.5v-2.7h2.5V320.5z"/>
		<path class="st3" d="M555.7,326.6c0,1.1,0.9,1.5,1.9,1.5c0.7,0,1.6-0.3,1.6-1.1c0-0.7-1-1-2.8-1.4c-1.4-0.3-2.9-0.8-2.9-2.4
			c0-2.3,2-2.9,3.9-2.9c2,0,3.8,0.7,4,2.9h-2.4c-0.1-1-0.8-1.2-1.7-1.2c-0.6,0-1.4,0.1-1.4,0.8c0,0.9,1.4,1,2.8,1.3
			c1.4,0.3,2.9,0.9,2.9,2.5c0,2.4-2.1,3.1-4.1,3.1c-2.1,0-4.1-0.8-4.2-3.2H555.7z"/>
	</g>
	<path class="st4" d="M422.7,265.6c-19.9,3.2-35.1,20.5-35.1,41.3c0,23.1,18.7,41.9,41.9,41.9s41.9-18.8,41.9-41.9
		c0-3.6-0.5-7.2-1.3-10.6"/>
	<path class="st6" d="M467.8,290.1c-6.5-14.7-21.2-25-38.3-25V307L467.8,290.1L467.8,290.1z"/>
	<path class="st1" d="M66.5,228.5c-6.1,0-11,4.9-11,11v126.2c0,6.1,4.9,11,11,11h265.7c6.1,0,11-4.9,11-11V239.5c0-6.1-4.9-11-11-11
		H66.5L66.5,228.5z"/>
	<path class="st2" d="M66.5,228.5c-6.1,0-11,4.9-11,11v126.2c0,6.1,4.9,11,11,11h265.7c6.1,0,11-4.9,11-11V239.5c0-6.1-4.9-11-11-11
		H66.5L66.5,228.5z"/>
	<g>
		<path class="st3" d="M188.8,252.9c3.9,0,6.1,2.9,6.1,6.6c0,3.6-2.3,6.5-6.1,6.5c-3.9,0-6.1-2.9-6.1-6.5
			C182.7,255.8,184.9,252.9,188.8,252.9z M188.8,263.6c2.5,0,3.4-2.1,3.4-4.2c0-2.2-0.9-4.3-3.4-4.3s-3.4,2.1-3.4,4.3
			C185.4,261.5,186.3,263.6,188.8,263.6z"/>
		<path class="st3" d="M196.3,256.6h2.4v1.1h0c0.6-1,1.6-1.4,2.7-1.4c2.8,0,4.1,2.3,4.1,4.8c0,2.4-1.3,4.7-4,4.7
			c-1.1,0-2.1-0.5-2.7-1.4h0v4.3h-2.5V256.6z M203,261.1c0-1.4-0.6-2.9-2.2-2.9c-1.6,0-2.1,1.4-2.1,2.9c0,1.5,0.6,2.9,2.2,2.9
			C202.5,264,203,262.6,203,261.1z"/>
		<path class="st3" d="M206.8,256.6h2.4v1.1h0c0.6-1,1.6-1.4,2.7-1.4c2.8,0,4.1,2.3,4.1,4.8c0,2.4-1.3,4.7-4,4.7
			c-1.1,0-2.1-0.5-2.7-1.4h0v4.3h-2.5V256.6z M213.5,261.1c0-1.4-0.6-2.9-2.2-2.9c-1.6,0-2.1,1.4-2.1,2.9c0,1.5,0.6,2.9,2.2,2.9
			C213,264,213.5,262.6,213.5,261.1z"/>
		<path class="st3" d="M221.7,256.4c2.8,0,4.7,1.9,4.7,4.8c0,2.9-1.8,4.7-4.7,4.7c-2.8,0-4.7-1.9-4.7-4.7
			C217,258.2,218.8,256.4,221.7,256.4z M221.7,264c1.7,0,2.2-1.4,2.2-2.9c0-1.4-0.5-2.9-2.2-2.9c-1.7,0-2.2,1.4-2.2,2.9
			C219.5,262.6,220,264,221.7,264z"/>
		<path class="st3" d="M227.8,256.6h2.4v1.7h0c0.5-1.1,1.7-1.9,2.9-1.9c0.2,0,0.4,0,0.5,0.1v2.3c-0.2-0.1-0.6-0.1-0.9-0.1
			c-1.8,0-2.4,1.3-2.4,2.9v4.1h-2.5V256.6z"/>
		<path class="st3" d="M237.5,256.6h1.8v1.7h-1.8v4.5c0,0.8,0.2,1,1,1c0.3,0,0.5,0,0.8-0.1v1.9c-0.4,0.1-1,0.1-1.4,0.1
			c-1.5,0-2.8-0.3-2.8-2.1v-5.3h-1.5v-1.7h1.5v-2.7h2.5V256.6z"/>
		<path class="st3" d="M248.8,265.6h-2.4v-1.3h-0.1c-0.6,1-1.7,1.5-2.8,1.5c-2.6,0-3.3-1.5-3.3-3.7v-5.5h2.5v5.1
			c0,1.5,0.4,2.2,1.6,2.2c1.3,0,1.9-0.7,1.9-2.6v-4.7h2.5V265.6z"/>
		<path class="st3" d="M250.5,256.6h2.4v1.3h0.1c0.6-1,1.7-1.5,2.8-1.5c2.6,0,3.3,1.5,3.3,3.7v5.5h-2.5v-5.1c0-1.5-0.4-2.2-1.6-2.2
			c-1.3,0-1.9,0.7-1.9,2.6v4.7h-2.5V256.6z"/>
		<path class="st3" d="M263.2,255.2h-2.5v-2h2.5V255.2z M260.7,256.6h2.5v9h-2.5V256.6z"/>
		<path class="st3" d="M268.1,256.6h1.8v1.7h-1.8v4.5c0,0.8,0.2,1,1,1c0.3,0,0.5,0,0.8-0.1v1.9c-0.4,0.1-1,0.1-1.4,0.1
			c-1.5,0-2.8-0.3-2.8-2.1v-5.3h-1.5v-1.7h1.5v-2.7h2.5V256.6z"/>
		<path class="st3" d="M275.4,266.8c-0.5,1.4-1.4,2-3.1,2c-0.5,0-1,0-1.5-0.1v-2c0.5,0,1,0.1,1.4,0.1c0.9-0.1,1.1-1,0.9-1.7
			l-3.2-8.5h2.6l2,6.2h0l2-6.2h2.6L275.4,266.8z"/>
	</g>
	<g>
		<path class="st3" d="M186.1,277.9h1.8v1.7h-1.8v4.5c0,0.8,0.2,1,1,1c0.3,0,0.5,0,0.8-0.1v1.9c-0.4,0.1-1,0.1-1.4,0.1
			c-1.5,0-2.8-0.3-2.8-2.1v-5.3h-1.5v-1.7h1.5v-2.7h2.5V277.9z"/>
		<path class="st3" d="M193.3,277.7c2.8,0,4.7,1.9,4.7,4.8c0,2.9-1.8,4.7-4.7,4.7c-2.8,0-4.7-1.9-4.7-4.7
			C188.6,279.5,190.5,277.7,193.3,277.7z M193.3,285.3c1.7,0,2.2-1.4,2.2-2.9c0-1.4-0.5-2.9-2.2-2.9c-1.7,0-2.2,1.4-2.2,2.9
			C191.1,283.9,191.6,285.3,193.3,285.3z"/>
		<path class="st3" d="M210.5,285.8L210.5,285.8c-0.6,1-1.6,1.4-2.8,1.4c-2.7,0-4-2.3-4-4.8c0-2.4,1.3-4.7,4-4.7
			c1.1,0,2.1,0.5,2.7,1.3h0v-4.5h2.5v12.4h-2.4V285.8z M208.3,279.5c-1.6,0-2.2,1.4-2.2,2.9c0,1.4,0.6,2.9,2.2,2.9
			c1.6,0,2.1-1.4,2.1-2.9C210.5,280.9,209.9,279.5,208.3,279.5z"/>
		<path class="st3" d="M216.6,283c0.1,1.6,0.8,2.3,2.2,2.3c1,0,1.8-0.6,2-1.2h2.2c-0.7,2.1-2.2,3-4.2,3c-2.8,0-4.6-2-4.6-4.7
			c0-2.7,1.9-4.8,4.6-4.8c3.1,0,4.5,2.6,4.4,5.3H216.6z M220.6,281.4c-0.2-1.3-0.8-1.9-2-1.9c-1.6,0-2,1.2-2.1,1.9H220.6z"/>
		<path class="st3" d="M229.3,286.9h-2.8l-3.1-9h2.6l1.9,6.2h0l1.9-6.2h2.5L229.3,286.9z"/>
		<path class="st3" d="M235.3,283c0.1,1.6,0.8,2.3,2.2,2.3c1,0,1.8-0.6,2-1.2h2.2c-0.7,2.1-2.2,3-4.2,3c-2.8,0-4.6-2-4.6-4.7
			c0-2.7,1.9-4.8,4.6-4.8c3.1,0,4.5,2.6,4.4,5.3H235.3z M239.3,281.4c-0.2-1.3-0.8-1.9-2-1.9c-1.6,0-2,1.2-2.1,1.9H239.3z"/>
		<path class="st3" d="M243.1,274.5h2.5v12.4h-2.5V274.5z"/>
		<path class="st3" d="M251.8,277.7c2.8,0,4.7,1.9,4.7,4.8c0,2.9-1.8,4.7-4.7,4.7c-2.8,0-4.7-1.9-4.7-4.7
			C247.1,279.5,249,277.7,251.8,277.7z M251.8,285.3c1.7,0,2.2-1.4,2.2-2.9c0-1.4-0.5-2.9-2.2-2.9c-1.7,0-2.2,1.4-2.2,2.9
			C249.6,283.9,250.1,285.3,251.8,285.3z"/>
		<path class="st3" d="M257.9,277.9h2.4v1.1h0c0.6-1,1.6-1.4,2.7-1.4c2.8,0,4.1,2.3,4.1,4.8c0,2.4-1.3,4.7-4,4.7
			c-1.1,0-2.1-0.5-2.7-1.4h0v4.3h-2.5V277.9z M264.6,282.4c0-1.4-0.6-2.9-2.2-2.9c-1.6,0-2.1,1.4-2.1,2.9c0,1.5,0.6,2.9,2.2,2.9
			C264,285.3,264.6,283.9,264.6,282.4z"/>
	</g>
	<g>
		<path class="st3" d="M189.4,307.1L189.4,307.1c-0.6,1-1.6,1.4-2.8,1.4c-2.7,0-4-2.3-4-4.8c0-2.4,1.3-4.7,4-4.7
			c1.1,0,2.1,0.5,2.7,1.3h0v-4.5h2.5v12.4h-2.4V307.1z M187.2,300.8c-1.6,0-2.2,1.4-2.2,2.9c0,1.4,0.6,2.9,2.2,2.9
			c1.6,0,2.1-1.4,2.1-2.9C189.4,302.2,188.8,300.8,187.2,300.8z"/>
		<path class="st3" d="M196,297.8h-2.5v-2h2.5V297.8z M193.5,299.2h2.5v9h-2.5V299.2z"/>
		<path class="st3" d="M198.3,300.9h-1.5v-1.7h1.5v-0.7c0-1.6,1-2.7,3-2.7c0.4,0,0.9,0.1,1.3,0.1v1.8c-0.3,0-0.6-0.1-0.9-0.1
			c-0.7,0-0.9,0.3-0.9,1v0.5h1.7v1.7h-1.7v7.4h-2.5V300.9z"/>
	</g>
	<g>
		<path class="st3" d="M203.6,300.9h-1.5v-1.7h1.5v-0.7c0-1.6,1-2.7,3-2.7c0.4,0,0.9,0.1,1.3,0.1v1.8c-0.3,0-0.6-0.1-0.9-0.1
			c-0.7,0-0.9,0.3-0.9,1v0.5h1.7v1.7h-1.7v7.4h-2.5V300.9z"/>
		<path class="st3" d="M210.7,304.3c0.1,1.6,0.8,2.3,2.2,2.3c1,0,1.8-0.6,2-1.2h2.2c-0.7,2.1-2.2,3-4.2,3c-2.8,0-4.6-2-4.6-4.7
			c0-2.7,1.9-4.8,4.6-4.8c3.1,0,4.5,2.6,4.4,5.3H210.7z M214.8,302.7c-0.2-1.3-0.8-1.9-2-1.9c-1.6,0-2,1.2-2.1,1.9H214.8z"/>
		<path class="st3" d="M218.5,299.2h2.4v1.7h0c0.5-1.1,1.7-1.9,2.9-1.9c0.2,0,0.4,0,0.5,0.1v2.3c-0.2-0.1-0.6-0.1-0.9-0.1
			c-1.8,0-2.4,1.3-2.4,2.9v4.1h-2.5V299.2z"/>
	</g>
	<g>
		<path class="st3" d="M226.9,304.3c0.1,1.6,0.8,2.3,2.2,2.3c1,0,1.8-0.6,2-1.2h2.2c-0.7,2.1-2.2,3-4.2,3c-2.8,0-4.6-2-4.6-4.7
			c0-2.7,1.9-4.8,4.6-4.8c3.1,0,4.5,2.6,4.4,5.3H226.9z M230.9,302.7c-0.2-1.3-0.8-1.9-2-1.9c-1.6,0-2,1.2-2.1,1.9H230.9z"/>
		<path class="st3" d="M234.6,299.2h2.4v1.3h0.1c0.6-1,1.7-1.5,2.8-1.5c2.6,0,3.3,1.5,3.3,3.7v5.5h-2.5v-5.1c0-1.5-0.4-2.2-1.6-2.2
			c-1.3,0-1.9,0.7-1.9,2.6v4.7h-2.5V299.2z"/>
		<path class="st3" d="M247.9,299.2h1.8v1.7h-1.8v4.5c0,0.8,0.2,1,1,1c0.3,0,0.5,0,0.8-0.1v1.9c-0.4,0.1-1,0.1-1.4,0.1
			c-1.5,0-2.8-0.3-2.8-2.1v-5.3H244v-1.7h1.5v-2.7h2.5V299.2z"/>
		<path class="st3" d="M253.3,297.8h-2.5v-2h2.5V297.8z M250.8,299.2h2.5v9h-2.5V299.2z"/>
		<path class="st3" d="M255,302c0.1-2.3,2.2-3,4.2-3c1.8,0,4,0.4,4,2.6v4.7c0,0.8,0.1,1.6,0.3,2H261c-0.1-0.3-0.2-0.6-0.2-0.9
			c-0.8,0.8-1.9,1.1-3,1.1c-1.7,0-3.1-0.9-3.1-2.7c0-2,1.5-2.5,3.1-2.7c1.5-0.2,2.9-0.2,2.9-1.2c0-1.1-0.7-1.2-1.6-1.2
			c-0.9,0-1.6,0.4-1.6,1.4H255z M260.7,303.8c-0.4,0.4-1.3,0.4-2.1,0.5c-0.8,0.2-1.5,0.4-1.5,1.3c0,0.9,0.7,1.1,1.5,1.1
			c1.9,0,2-1.5,2-2.1V303.8z"/>
		<path class="st3" d="M268.1,299.2h1.8v1.7h-1.8v4.5c0,0.8,0.2,1,1,1c0.3,0,0.5,0,0.8-0.1v1.9c-0.4,0.1-1,0.1-1.4,0.1
			c-1.5,0-2.8-0.3-2.8-2.1v-5.3h-1.5v-1.7h1.5v-2.7h2.5V299.2z"/>
		<path class="st3" d="M272.9,304.3c0.1,1.6,0.8,2.3,2.2,2.3c1,0,1.8-0.6,2-1.2h2.2c-0.7,2.1-2.2,3-4.2,3c-2.8,0-4.6-2-4.6-4.7
			c0-2.7,1.9-4.8,4.6-4.8c3.1,0,4.5,2.6,4.4,5.3H272.9z M276.9,302.7c-0.2-1.3-0.8-1.9-2-1.9c-1.6,0-2,1.2-2.1,1.9H276.9z"/>
		<path class="st3" d="M287.1,307.1L287.1,307.1c-0.6,1-1.6,1.4-2.8,1.4c-2.7,0-4-2.3-4-4.8c0-2.4,1.3-4.7,4-4.7
			c1.1,0,2.1,0.5,2.7,1.3h0v-4.5h2.5v12.4h-2.4V307.1z M285,300.8c-1.6,0-2.2,1.4-2.2,2.9c0,1.4,0.6,2.9,2.2,2.9
			c1.6,0,2.1-1.4,2.1-2.9C287.1,302.2,286.6,300.8,285,300.8z"/>
	</g>
	<g>
		<path class="st3" d="M183,320.5h2.4v1.1h0c0.6-1,1.6-1.4,2.7-1.4c2.8,0,4.1,2.3,4.1,4.8c0,2.4-1.3,4.7-4,4.7
			c-1.1,0-2.1-0.5-2.7-1.4h0v4.3H183V320.5z M189.6,325.1c0-1.4-0.6-2.9-2.2-2.9c-1.6,0-2.1,1.4-2.1,2.9c0,1.5,0.6,2.9,2.2,2.9
			C189.1,327.9,189.6,326.5,189.6,325.1z"/>
		<path class="st3" d="M193.5,317.1h2.5v12.4h-2.5V317.1z"/>
		<path class="st3" d="M197.6,323.3c0.1-2.3,2.2-3,4.2-3c1.8,0,4,0.4,4,2.6v4.7c0,0.8,0.1,1.6,0.3,2h-2.5c-0.1-0.3-0.2-0.6-0.2-0.9
			c-0.8,0.8-1.9,1.1-3,1.1c-1.7,0-3.1-0.9-3.1-2.7c0-2,1.5-2.5,3.1-2.7c1.5-0.2,2.9-0.2,2.9-1.2c0-1.1-0.7-1.2-1.6-1.2
			c-0.9,0-1.6,0.4-1.6,1.4H197.6z M203.4,325.1c-0.4,0.4-1.3,0.4-2.1,0.5c-0.8,0.2-1.5,0.4-1.5,1.3c0,0.9,0.7,1.1,1.5,1.1
			c1.9,0,2-1.5,2-2.1V325.1z"/>
		<path class="st3" d="M210.7,320.5h1.8v1.7h-1.8v4.5c0,0.8,0.2,1,1,1c0.3,0,0.5,0,0.8-0.1v1.9c-0.4,0.1-1,0.1-1.4,0.1
			c-1.5,0-2.8-0.3-2.8-2.1v-5.3h-1.5v-1.7h1.5v-2.7h2.5V320.5z"/>
		<path class="st3" d="M214.1,322.2h-1.5v-1.7h1.5v-0.7c0-1.6,1-2.7,3-2.7c0.4,0,0.9,0.1,1.3,0.1v1.8c-0.3,0-0.6-0.1-0.9-0.1
			c-0.7,0-0.9,0.3-0.9,1v0.5h1.7v1.7h-1.7v7.4h-2.5V322.2z"/>
		<path class="st3" d="M223.5,320.3c2.8,0,4.7,1.9,4.7,4.8c0,2.9-1.8,4.7-4.7,4.7c-2.8,0-4.7-1.9-4.7-4.7
			C218.9,322.2,220.7,320.3,223.5,320.3z M223.5,327.9c1.7,0,2.2-1.4,2.2-2.9c0-1.4-0.5-2.9-2.2-2.9c-1.7,0-2.2,1.4-2.2,2.9
			C221.4,326.5,221.9,327.9,223.5,327.9z"/>
		<path class="st3" d="M229.6,320.5h2.4v1.7h0c0.5-1.1,1.7-1.9,2.9-1.9c0.2,0,0.4,0,0.5,0.1v2.3c-0.2-0.1-0.6-0.1-0.9-0.1
			c-1.8,0-2.4,1.3-2.4,2.9v4.1h-2.5V320.5z"/>
		<path class="st3" d="M236.3,320.5h2.3v1.2h0c0.6-0.9,1.6-1.5,2.8-1.5c1.1,0,2.1,0.4,2.6,1.5c0.5-0.8,1.5-1.5,2.7-1.5
			c1.9,0,3.3,0.9,3.3,3.2v6h-2.5v-5.1c0-1.2-0.1-2.2-1.5-2.2c-1.4,0-1.7,1.1-1.7,2.3v5H242v-5.1c0-1,0.1-2.2-1.5-2.2
			c-0.5,0-1.7,0.3-1.7,2.1v5.2h-2.5V320.5z"/>
		<path class="st3" d="M260.9,320.3c2.8,0,4.7,1.9,4.7,4.8c0,2.9-1.8,4.7-4.7,4.7c-2.8,0-4.7-1.9-4.7-4.7
			C256.3,322.2,258.1,320.3,260.9,320.3z M260.9,327.9c1.7,0,2.2-1.4,2.2-2.9c0-1.4-0.5-2.9-2.2-2.9c-1.7,0-2.2,1.4-2.2,2.9
			C258.7,326.5,259.2,327.9,260.9,327.9z"/>
		<path class="st3" d="M267,320.5h2.4v1.7h0c0.5-1.1,1.7-1.9,2.9-1.9c0.2,0,0.4,0,0.5,0.1v2.3c-0.2-0.1-0.6-0.1-0.9-0.1
			c-1.8,0-2.4,1.3-2.4,2.9v4.1H267V320.5z"/>
		<path class="st3" d="M278.3,320.5h2.4v1.3h0.1c0.6-1,1.7-1.5,2.8-1.5c2.6,0,3.3,1.5,3.3,3.7v5.5h-2.5v-5.1c0-1.5-0.4-2.2-1.6-2.2
			c-1.3,0-1.9,0.7-1.9,2.6v4.7h-2.5V320.5z"/>
		<path class="st3" d="M292.8,320.3c2.8,0,4.7,1.9,4.7,4.8c0,2.9-1.8,4.7-4.7,4.7c-2.8,0-4.7-1.9-4.7-4.7
			C288.2,322.2,290,320.3,292.8,320.3z M292.8,327.9c1.7,0,2.2-1.4,2.2-2.9c0-1.4-0.5-2.9-2.2-2.9c-1.7,0-2.2,1.4-2.2,2.9
			C290.6,326.5,291.1,327.9,292.8,327.9z"/>
	</g>
	<g>
		<path class="st3" d="M185.5,340.4H183v-2h2.5V340.4z M183,341.8h2.5v9H183V341.8z"/>
		<path class="st3" d="M187.3,341.8h2.4v1.3h0.1c0.6-1,1.7-1.5,2.8-1.5c2.6,0,3.3,1.5,3.3,3.7v5.5h-2.5v-5.1c0-1.5-0.4-2.2-1.6-2.2
			c-1.3,0-1.9,0.7-1.9,2.6v4.7h-2.5V341.8z"/>
		<path class="st3" d="M203.6,345c-0.2-1-0.8-1.6-1.8-1.6c-1.6,0-2.1,1.6-2.1,2.9c0,1.3,0.5,2.8,2.1,2.8c1.1,0,1.8-0.7,2-1.8h2.4
			c-0.3,2.4-2,3.7-4.3,3.7c-2.7,0-4.5-1.9-4.5-4.6c0-2.8,1.7-4.9,4.6-4.9c2.1,0,4.1,1.1,4.2,3.4H203.6z"/>
		<path class="st3" d="M215.7,350.8h-2.4v-1.3h-0.1c-0.6,1-1.7,1.5-2.8,1.5c-2.6,0-3.3-1.5-3.3-3.7v-5.5h2.5v5.1
			c0,1.5,0.4,2.2,1.6,2.2c1.3,0,1.9-0.7,1.9-2.6v-4.7h2.5V350.8z"/>
		<path class="st3" d="M217.5,341.8h2.3v1.2h0c0.6-0.9,1.6-1.5,2.8-1.5c1.1,0,2.1,0.4,2.6,1.5c0.5-0.8,1.5-1.5,2.7-1.5
			c1.9,0,3.3,0.9,3.3,3.2v6h-2.5v-5.1c0-1.2-0.1-2.2-1.5-2.2c-1.4,0-1.7,1.1-1.7,2.3v5h-2.5v-5.1c0-1,0.1-2.2-1.5-2.2
			c-0.5,0-1.7,0.3-1.7,2.1v5.2h-2.5V341.8z"/>
		<path class="st3" d="M233,338.4h2.5v4.5h0c0.6-0.9,1.7-1.3,2.8-1.3c1.8,0,3.7,1.4,3.7,4.7c0,3.3-1.9,4.8-3.7,4.8
			c-1.3,0-2.4-0.4-3-1.4h0v1.1H233V338.4z M237.5,343.4c-1.5,0-2.1,1.4-2.1,2.9c0,1.5,0.6,2.9,2.1,2.9c1.5,0,2.1-1.4,2.1-2.9
			C239.6,344.8,239,343.4,237.5,343.4z"/>
		<path class="st3" d="M245.6,346.9c0.1,1.6,0.8,2.3,2.2,2.3c1,0,1.8-0.6,2-1.2h2.2c-0.7,2.1-2.2,3-4.2,3c-2.8,0-4.6-2-4.6-4.7
			c0-2.7,1.9-4.8,4.6-4.8c3.1,0,4.5,2.6,4.4,5.3H245.6z M249.6,345.3c-0.2-1.3-0.8-1.9-2-1.9c-1.6,0-2,1.2-2.1,1.9H249.6z"/>
		<path class="st3" d="M253.3,341.8h2.4v1.3h0.1c0.6-1,1.7-1.5,2.8-1.5c2.6,0,3.3,1.5,3.3,3.7v5.5h-2.5v-5.1c0-1.5-0.4-2.2-1.6-2.2
			c-1.3,0-1.9,0.7-1.9,2.6v4.7h-2.5V341.8z"/>
		<path class="st3" d="M266.6,341.8h1.8v1.7h-1.8v4.5c0,0.8,0.2,1,1,1c0.3,0,0.5,0,0.8-0.1v1.9c-0.4,0.1-1,0.1-1.4,0.1
			c-1.5,0-2.8-0.3-2.8-2.1v-5.3h-1.5v-1.7h1.5v-2.7h2.5V341.8z"/>
	</g>
	<path class="st7" d="M119.9,312.1l0.3,1c1.7,6,0.1,12.4-4.3,16.9L101.8,344 M118.7,297L118.7,297l-0.3-1c-1.7-6-0.1-12.4,4.3-16.9
		l14.1-14.1 M158.7,287l-14.1,14.1c-4.4,4.4-10.9,6.1-16.9,4.3l-16.1-4.7c-7.1-2.1-14.7-0.1-19.9,5.1l-14.1,14.1 M116.6,320.2
		l-12.7-13.4L116.6,320.2L116.6,320.2z M93,313.3l17.5,17.5L93,313.3L93,313.3z M84.2,322l17.5,17.5L84.2,322L84.2,322z
		 M121.5,289.2l13.1,13.2L121.5,289.2L121.5,289.2z M128,278.2l16.4,18 M154.3,287l-17.5-17.5L154.3,287L154.3,287z"/>
	<path class="st8" d="M158.7,287l-14.1,14.1c-4.4,4.4-10.9,6.1-16.9,4.3l-16.1-4.7c-7.1-2.1-14.7-0.1-19.9,5.1l-14.1,14.1"/>
	<path class="st1" d="M66.5,58.1c-6.1,0-11,4.9-11,11v126.2c0,6.1,4.9,11,11,11h265.7c6.1,0,11-4.9,11-11V69.1c0-6.1-4.9-11-11-11
		H66.5L66.5,58.1z"/>
	<path class="st2" d="M66.5,58.1c-6.1,0-11,4.9-11,11v126.2c0,6.1,4.9,11,11,11h265.7c6.1,0,11-4.9,11-11V69.1c0-6.1-4.9-11-11-11
		H66.5L66.5,58.1z"/>
	<g>
		<path class="st3" d="M192,86.2h-3.7v-2.3h10.2v2.3h-3.7v10.1H192V86.2z"/>
	</g>
	<g>
		<path class="st3" d="M197.9,87.3h2.4V89h0c0.5-1.1,1.7-1.9,2.9-1.9c0.2,0,0.4,0,0.5,0.1v2.3c-0.2-0.1-0.6-0.1-0.9-0.1
			c-1.8,0-2.4,1.3-2.4,2.9v4.1h-2.5V87.3z"/>
		<path class="st3" d="M204.4,90.1c0.1-2.3,2.2-3,4.2-3c1.8,0,4,0.4,4,2.6v4.7c0,0.8,0.1,1.6,0.3,2h-2.5c-0.1-0.3-0.2-0.6-0.2-0.9
			c-0.8,0.8-1.9,1.1-3,1.1c-1.7,0-3.1-0.9-3.1-2.7c0-2,1.5-2.5,3.1-2.7c1.5-0.2,2.9-0.2,2.9-1.2c0-1.1-0.7-1.2-1.6-1.2
			c-0.9,0-1.6,0.4-1.6,1.4H204.4z M210.1,91.9c-0.4,0.4-1.3,0.4-2.1,0.5c-0.8,0.2-1.5,0.4-1.5,1.3c0,0.9,0.7,1.1,1.5,1.1
			c1.9,0,2-1.5,2-2.1V91.9z"/>
		<path class="st3" d="M214.3,87.3h2.4v1.3h0.1c0.6-1,1.7-1.5,2.8-1.5c2.6,0,3.3,1.5,3.3,3.7v5.5h-2.5v-5.1c0-1.5-0.4-2.2-1.6-2.2
			c-1.3,0-1.9,0.7-1.9,2.6v4.7h-2.5V87.3z"/>
		<path class="st3" d="M226.4,93.4c0,1.1,0.9,1.5,1.9,1.5c0.7,0,1.6-0.3,1.6-1.1c0-0.7-1-1-2.8-1.4c-1.4-0.3-2.9-0.8-2.9-2.4
			c0-2.3,2-2.9,3.9-2.9c2,0,3.8,0.7,4,2.9h-2.4c-0.1-1-0.8-1.2-1.7-1.2c-0.6,0-1.4,0.1-1.4,0.8c0,0.9,1.4,1,2.8,1.3
			c1.4,0.3,2.9,0.9,2.9,2.5c0,2.4-2.1,3.1-4.1,3.1c-2.1,0-4.1-0.8-4.2-3.2H226.4z"/>
		<path class="st3" d="M234.2,89h-1.5v-1.7h1.5v-0.7c0-1.6,1-2.7,3-2.7c0.4,0,0.9,0.1,1.3,0.1v1.8c-0.3,0-0.6-0.1-0.9-0.1
			c-0.7,0-0.9,0.3-0.9,1v0.5h1.7V89h-1.7v7.4h-2.5V89z"/>
		<path class="st3" d="M243.6,87.1c2.8,0,4.7,1.9,4.7,4.8c0,2.9-1.8,4.7-4.7,4.7c-2.8,0-4.7-1.9-4.7-4.7
			C239,88.9,240.8,87.1,243.6,87.1z M243.6,94.7c1.7,0,2.2-1.4,2.2-2.9c0-1.4-0.5-2.9-2.2-2.9c-1.7,0-2.2,1.4-2.2,2.9
			C241.5,93.2,242,94.7,243.6,94.7z"/>
		<path class="st3" d="M249.7,87.3h2.4V89h0c0.5-1.1,1.7-1.9,2.9-1.9c0.2,0,0.4,0,0.5,0.1v2.3c-0.2-0.1-0.6-0.1-0.9-0.1
			c-1.8,0-2.4,1.3-2.4,2.9v4.1h-2.5V87.3z"/>
		<path class="st3" d="M256.4,87.3h2.3v1.2h0c0.6-0.9,1.6-1.5,2.8-1.5c1.1,0,2.1,0.4,2.6,1.5c0.5-0.8,1.5-1.5,2.7-1.5
			c1.9,0,3.3,0.9,3.3,3.2v6h-2.5v-5.1c0-1.2-0.1-2.2-1.5-2.2c-1.4,0-1.7,1.1-1.7,2.3v5h-2.5v-5.1c0-1,0.1-2.2-1.5-2.2
			c-0.5,0-1.7,0.3-1.7,2.1v5.2h-2.5V87.3z"/>
		<path class="st3" d="M271.9,90.1c0.1-2.3,2.2-3,4.2-3c1.8,0,4,0.4,4,2.6v4.7c0,0.8,0.1,1.6,0.3,2h-2.5c-0.1-0.3-0.2-0.6-0.2-0.9
			c-0.8,0.8-1.9,1.1-3,1.1c-1.7,0-3.1-0.9-3.1-2.7c0-2,1.5-2.5,3.1-2.7c1.5-0.2,2.9-0.2,2.9-1.2c0-1.1-0.7-1.2-1.6-1.2
			c-0.9,0-1.6,0.4-1.6,1.4H271.9z M277.6,91.9c-0.4,0.4-1.3,0.4-2.1,0.5c-0.8,0.2-1.5,0.4-1.5,1.3c0,0.9,0.7,1.1,1.5,1.1
			c1.9,0,2-1.5,2-2.1V91.9z"/>
		<path class="st3" d="M284.9,87.3h1.8V89h-1.8v4.5c0,0.8,0.2,1,1,1c0.3,0,0.5,0,0.8-0.1v1.9c-0.4,0.1-1,0.1-1.4,0.1
			c-1.5,0-2.8-0.3-2.8-2.1V89h-1.5v-1.7h1.5v-2.7h2.5V87.3z"/>
		<path class="st3" d="M290.3,85.9h-2.5v-2h2.5V85.9z M287.8,87.3h2.5v9h-2.5V87.3z"/>
		<path class="st3" d="M296.4,87.1c2.8,0,4.7,1.9,4.7,4.8c0,2.9-1.8,4.7-4.7,4.7c-2.8,0-4.7-1.9-4.7-4.7
			C291.8,88.9,293.6,87.1,296.4,87.1z M296.4,94.7c1.7,0,2.2-1.4,2.2-2.9c0-1.4-0.5-2.9-2.2-2.9c-1.7,0-2.2,1.4-2.2,2.9
			C294.3,93.2,294.8,94.7,296.4,94.7z"/>
		<path class="st3" d="M302.5,87.3h2.4v1.3h0.1c0.6-1,1.7-1.5,2.8-1.5c2.6,0,3.3,1.5,3.3,3.7v5.5h-2.5v-5.1c0-1.5-0.4-2.2-1.6-2.2
			c-1.3,0-1.9,0.7-1.9,2.6v4.7h-2.5V87.3z"/>
		<path class="st3" d="M312.6,90.1c0.1-2.3,2.2-3,4.2-3c1.8,0,4,0.4,4,2.6v4.7c0,0.8,0.1,1.6,0.3,2h-2.5c-0.1-0.3-0.2-0.6-0.2-0.9
			c-0.8,0.8-1.9,1.1-3,1.1c-1.7,0-3.1-0.9-3.1-2.7c0-2,1.5-2.5,3.1-2.7c1.5-0.2,2.9-0.2,2.9-1.2c0-1.1-0.7-1.2-1.6-1.2
			c-0.9,0-1.6,0.4-1.6,1.4H312.6z M318.3,91.9c-0.4,0.4-1.3,0.4-2.1,0.5c-0.8,0.2-1.5,0.4-1.5,1.3c0,0.9,0.7,1.1,1.5,1.1
			c1.9,0,2-1.5,2-2.1V91.9z"/>
		<path class="st3" d="M322.6,83.9h2.5v12.4h-2.5V83.9z"/>
	</g>
	<g>
		<path class="st3" d="M191,113.7c0.1,1.6,0.8,2.3,2.2,2.3c1,0,1.8-0.6,2-1.2h2.2c-0.7,2.1-2.2,3-4.2,3c-2.8,0-4.6-2-4.6-4.7
			c0-2.7,1.9-4.8,4.6-4.8c3.1,0,4.5,2.6,4.4,5.3H191z M195.1,112.1c-0.2-1.3-0.8-1.9-2-1.9c-1.6,0-2,1.2-2.1,1.9H195.1z"/>
		<path class="st3" d="M199.4,110.3h-1.5v-1.7h1.5v-0.7c0-1.6,1-2.7,3-2.7c0.4,0,0.9,0.1,1.3,0.1v1.8c-0.3,0-0.6-0.1-0.9-0.1
			c-0.7,0-0.9,0.3-0.9,1v0.5h1.7v1.7h-1.7v7.4h-2.5V110.3z"/>
	</g>
	<g>
		<path class="st3" d="M204.7,110.3h-1.5v-1.7h1.5v-0.7c0-1.6,1-2.7,3-2.7c0.4,0,0.9,0.1,1.3,0.1v1.8c-0.3,0-0.6-0.1-0.9-0.1
			c-0.7,0-0.9,0.3-0.9,1v0.5h1.7v1.7h-1.7v7.4h-2.5V110.3z M212.8,107.2h-2.5v-2h2.5V107.2z M210.3,108.6h2.5v9h-2.5V108.6z"/>
	</g>
	<g>
		<path class="st3" d="M220.7,111.8c-0.2-1-0.8-1.6-1.8-1.6c-1.6,0-2.1,1.6-2.1,2.9c0,1.3,0.5,2.8,2.1,2.8c1.1,0,1.8-0.7,2-1.8h2.4
			c-0.3,2.4-2,3.7-4.3,3.7c-2.7,0-4.5-1.9-4.5-4.6c0-2.8,1.7-4.9,4.6-4.9c2.1,0,4.1,1.1,4.2,3.4H220.7z"/>
		<path class="st3" d="M224.3,111.4c0.1-2.3,2.2-3,4.2-3c1.8,0,4,0.4,4,2.6v4.7c0,0.8,0.1,1.6,0.3,2h-2.5c-0.1-0.3-0.2-0.6-0.2-0.9
			c-0.8,0.8-1.9,1.1-3,1.1c-1.7,0-3.1-0.9-3.1-2.7c0-2,1.5-2.5,3.1-2.7c1.5-0.2,2.9-0.2,2.9-1.2c0-1.1-0.7-1.2-1.6-1.2
			c-0.9,0-1.6,0.4-1.6,1.4H224.3z M230,113.2c-0.4,0.4-1.3,0.4-2.1,0.5c-0.8,0.2-1.5,0.4-1.5,1.3c0,0.9,0.7,1.1,1.5,1.1
			c1.9,0,2-1.5,2-2.1V113.2z"/>
		<path class="st3" d="M240.4,111.8c-0.2-1-0.8-1.6-1.8-1.6c-1.6,0-2.1,1.6-2.1,2.9c0,1.3,0.5,2.8,2.1,2.8c1.1,0,1.8-0.7,2-1.8h2.4
			c-0.3,2.4-2,3.7-4.3,3.7c-2.7,0-4.5-1.9-4.5-4.6c0-2.8,1.7-4.9,4.6-4.9c2.1,0,4.1,1.1,4.2,3.4H240.4z"/>
		<path class="st3" d="M248.5,118.7c-0.5,1.4-1.4,2-3.1,2c-0.5,0-1,0-1.5-0.1v-2c0.5,0,1,0.1,1.4,0.1c0.9-0.1,1.1-1,0.9-1.7
			l-3.2-8.5h2.6l2,6.2h0l2-6.2h2.6L248.5,118.7z"/>
		<path class="st3" d="M258.2,110.3h-1.5v-1.7h1.5v-0.7c0-1.6,1-2.7,3-2.7c0.4,0,0.9,0.1,1.3,0.1v1.8c-0.3,0-0.6-0.1-0.9-0.1
			c-0.7,0-0.9,0.3-0.9,1v0.5h1.7v1.7h-1.7v7.4h-2.5V110.3z"/>
		<path class="st3" d="M267.6,108.4c2.8,0,4.7,1.9,4.7,4.8c0,2.9-1.8,4.7-4.7,4.7c-2.8,0-4.7-1.9-4.7-4.7
			C263,110.2,264.8,108.4,267.6,108.4z M267.6,116c1.7,0,2.2-1.4,2.2-2.9c0-1.4-0.5-2.9-2.2-2.9c-1.7,0-2.2,1.4-2.2,2.9
			C265.5,114.5,266,116,267.6,116z"/>
		<path class="st3" d="M273.7,108.6h2.4v1.7h0c0.5-1.1,1.7-1.9,2.9-1.9c0.2,0,0.4,0,0.5,0.1v2.3c-0.2-0.1-0.6-0.1-0.9-0.1
			c-1.8,0-2.4,1.3-2.4,2.9v4.1h-2.5V108.6z"/>
	</g>
	<g>
		<path class="st3" d="M189,129.9h2.4v1.1h0c0.6-1,1.6-1.4,2.7-1.4c2.8,0,4.1,2.3,4.1,4.8c0,2.4-1.3,4.7-4,4.7
			c-1.1,0-2.1-0.5-2.7-1.4h0v4.3H189V129.9z M195.7,134.4c0-1.4-0.6-2.9-2.2-2.9c-1.6,0-2.1,1.4-2.1,2.9c0,1.5,0.6,2.9,2.2,2.9
			C195.2,137.3,195.7,135.9,195.7,134.4z"/>
		<path class="st3" d="M199.4,132.7c0.1-2.3,2.2-3,4.2-3c1.8,0,4,0.4,4,2.6v4.7c0,0.8,0.1,1.6,0.3,2h-2.5c-0.1-0.3-0.2-0.6-0.2-0.9
			c-0.8,0.8-1.9,1.1-3,1.1c-1.7,0-3.1-0.9-3.1-2.7c0-2,1.5-2.5,3.1-2.7c1.5-0.2,2.9-0.2,2.9-1.2c0-1.1-0.7-1.2-1.6-1.2
			c-0.9,0-1.6,0.4-1.6,1.4H199.4z M205.1,134.5c-0.4,0.4-1.3,0.4-2.1,0.5c-0.8,0.2-1.5,0.4-1.5,1.3c0,0.9,0.7,1.1,1.5,1.1
			c1.9,0,2-1.5,2-2.1V134.5z"/>
		<path class="st3" d="M212.4,129.9h1.8v1.7h-1.8v4.5c0,0.8,0.2,1,1,1c0.3,0,0.5,0,0.8-0.1v1.9c-0.4,0.1-1,0.1-1.4,0.1
			c-1.5,0-2.8-0.3-2.8-2.1v-5.3h-1.5v-1.7h1.5v-2.7h2.5V129.9z"/>
		<path class="st3" d="M217.8,128.5h-2.5v-2h2.5V128.5z M215.3,129.9h2.5v9h-2.5V129.9z"/>
		<path class="st3" d="M221.6,135c0.1,1.6,0.8,2.3,2.2,2.3c1,0,1.8-0.6,2-1.2h2.2c-0.7,2.1-2.2,3-4.2,3c-2.8,0-4.6-2-4.6-4.7
			c0-2.7,1.9-4.8,4.6-4.8c3.1,0,4.5,2.6,4.4,5.3H221.6z M225.6,133.4c-0.2-1.3-0.8-1.9-2-1.9c-1.6,0-2,1.2-2.1,1.9H225.6z"/>
		<path class="st3" d="M229.4,129.9h2.4v1.3h0.1c0.6-1,1.7-1.5,2.8-1.5c2.6,0,3.3,1.5,3.3,3.7v5.5h-2.5v-5.1c0-1.5-0.4-2.2-1.6-2.2
			c-1.3,0-1.9,0.7-1.9,2.6v4.7h-2.5V129.9z"/>
		<path class="st3" d="M242.7,129.9h1.8v1.7h-1.8v4.5c0,0.8,0.2,1,1,1c0.3,0,0.5,0,0.8-0.1v1.9c-0.4,0.1-1,0.1-1.4,0.1
			c-1.5,0-2.8-0.3-2.8-2.1v-5.3h-1.5v-1.7h1.5v-2.7h2.5V129.9z"/>
		<path class="st3" d="M247.4,136c0,1.1,0.9,1.5,1.9,1.5c0.7,0,1.6-0.3,1.6-1.1c0-0.7-1-1-2.8-1.4c-1.4-0.3-2.9-0.8-2.9-2.4
			c0-2.3,2-2.9,3.9-2.9c2,0,3.8,0.7,4,2.9h-2.4c-0.1-1-0.8-1.2-1.7-1.2c-0.6,0-1.4,0.1-1.4,0.8c0,0.9,1.4,1,2.8,1.3
			c1.4,0.3,2.9,0.9,2.9,2.5c0,2.4-2.1,3.1-4.1,3.1c-2.1,0-4.1-0.8-4.2-3.2H247.4z"/>
		<path class="st3" d="M261.9,128.5h-2.5v-2h2.5V128.5z M259.4,129.9h2.5v9h-2.5V129.9z"/>
		<path class="st3" d="M263.7,129.9h2.4v1.3h0.1c0.6-1,1.7-1.5,2.8-1.5c2.6,0,3.3,1.5,3.3,3.7v5.5h-2.5v-5.1c0-1.5-0.4-2.2-1.6-2.2
			c-1.3,0-1.9,0.7-1.9,2.6v4.7h-2.5V129.9z"/>
	</g>
	<g>
		<path class="st3" d="M188.9,154c0.1-2.3,2.2-3,4.2-3c1.8,0,4,0.4,4,2.6v4.7c0,0.8,0.1,1.6,0.3,2h-2.5c-0.1-0.3-0.2-0.6-0.2-0.9
			c-0.8,0.8-1.9,1.1-3,1.1c-1.7,0-3.1-0.9-3.1-2.7c0-2,1.5-2.5,3.1-2.7c1.5-0.2,2.9-0.2,2.9-1.2c0-1.1-0.7-1.2-1.6-1.2
			c-0.9,0-1.6,0.4-1.6,1.4H188.9z M194.6,155.8c-0.4,0.4-1.3,0.4-2.1,0.5c-0.8,0.2-1.5,0.4-1.5,1.3c0,0.9,0.7,1.1,1.5,1.1
			c1.9,0,2-1.5,2-2.1V155.8z"/>
		<path class="st3" d="M198.8,151.2h2.4v1.7h0c0.5-1.1,1.7-1.9,2.9-1.9c0.2,0,0.4,0,0.5,0.1v2.3c-0.2-0.1-0.6-0.1-0.9-0.1
			c-1.8,0-2.4,1.3-2.4,2.9v4.1h-2.5V151.2z"/>
	</g>
	<g>
		<path class="st3" d="M207.1,156.3c0.1,1.6,0.8,2.3,2.2,2.3c1,0,1.8-0.6,2-1.2h2.2c-0.7,2.1-2.2,3-4.2,3c-2.8,0-4.6-2-4.6-4.7
			c0-2.7,1.9-4.8,4.6-4.8c3.1,0,4.5,2.6,4.4,5.3H207.1z M211.2,154.7c-0.2-1.3-0.8-1.9-2-1.9c-1.6,0-2,1.2-2.1,1.9H211.2z"/>
		<path class="st3" d="M214.8,154c0.1-2.3,2.2-3,4.2-3c1.8,0,4,0.4,4,2.6v4.7c0,0.8,0.1,1.6,0.3,2h-2.5c-0.1-0.3-0.2-0.6-0.2-0.9
			c-0.8,0.8-1.9,1.1-3,1.1c-1.7,0-3.1-0.9-3.1-2.7c0-2,1.5-2.5,3.1-2.7c1.5-0.2,2.9-0.2,2.9-1.2c0-1.1-0.7-1.2-1.6-1.2
			c-0.9,0-1.6,0.4-1.6,1.4H214.8z M220.5,155.8c-0.4,0.4-1.3,0.4-2.1,0.5c-0.8,0.2-1.5,0.4-1.5,1.3c0,0.9,0.7,1.1,1.5,1.1
			c1.9,0,2-1.5,2-2.1V155.8z"/>
		<path class="st3" d="M226.7,157.3c0,1.1,0.9,1.5,1.9,1.5c0.7,0,1.6-0.3,1.6-1.1c0-0.7-1-1-2.8-1.4c-1.4-0.3-2.9-0.8-2.9-2.4
			c0-2.3,2-2.9,3.9-2.9c2,0,3.8,0.7,4,2.9h-2.4c-0.1-1-0.8-1.2-1.7-1.2c-0.6,0-1.4,0.1-1.4,0.8c0,0.9,1.4,1,2.8,1.3
			c1.4,0.3,2.9,0.9,2.9,2.5c0,2.4-2.1,3.1-4.1,3.1c-2.1,0-4.1-0.8-4.2-3.2H226.7z"/>
		<path class="st3" d="M243,151c2.8,0,4.7,1.9,4.7,4.8c0,2.9-1.8,4.7-4.7,4.7c-2.8,0-4.7-1.9-4.7-4.7C238.3,152.8,240.2,151,243,151
			z M243,158.6c1.7,0,2.2-1.4,2.2-2.9c0-1.4-0.5-2.9-2.2-2.9c-1.7,0-2.2,1.4-2.2,2.9C240.8,157.1,241.3,158.6,243,158.6z"/>
		<path class="st3" d="M249.6,152.9h-1.5v-1.7h1.5v-0.7c0-1.6,1-2.7,3-2.7c0.4,0,0.9,0.1,1.3,0.1v1.8c-0.3,0-0.6-0.1-0.9-0.1
			c-0.7,0-0.9,0.3-0.9,1v0.5h1.7v1.7h-1.7v7.4h-2.5V152.9z"/>
		<path class="st3" d="M259.4,147.8h2.5v4.7h0.1c0.6-1,1.7-1.5,2.6-1.5c2.6,0,3.3,1.5,3.3,3.7v5.5h-2.5v-5.1c0-1.5-0.4-2.2-1.6-2.2
			c-1.3,0-1.9,0.7-1.9,2.6v4.7h-2.5V147.8z"/>
		<path class="st3" d="M272.1,149.8h-2.5v-2h2.5V149.8z M269.6,151.2h2.5v9h-2.5V151.2z"/>
		<path class="st3" d="M282.5,159.6c0,1.5-0.5,4-4.7,4c-1.8,0-3.9-0.8-4-2.9h2.5c0.2,0.9,1,1.2,1.8,1.2c1.4,0,2-0.9,2-2.2v-1.2h0
			c-0.5,0.9-1.6,1.4-2.7,1.4c-2.7,0-3.9-2.1-3.9-4.5c0-2.3,1.3-4.5,3.9-4.5c1.2,0,2.1,0.4,2.7,1.4h0v-1.2h2.4V159.6z M280.2,155.6
			c0-1.5-0.5-2.8-2.1-2.8c-1.4,0-2,1.2-2,2.6c0,1.3,0.5,2.7,2,2.7C279.5,158.1,280.2,156.9,280.2,155.6z"/>
		<path class="st3" d="M284.3,147.8h2.5v4.7h0.1c0.6-1,1.7-1.5,2.6-1.5c2.6,0,3.3,1.5,3.3,3.7v5.5h-2.5v-5.1c0-1.5-0.4-2.2-1.6-2.2
			c-1.3,0-1.9,0.7-1.9,2.6v4.7h-2.5V147.8z"/>
	</g>
	<g>
		<path class="st3" d="M197.4,181.5h-2.4v-1.3H195c-0.6,1-1.7,1.5-2.8,1.5c-2.6,0-3.3-1.5-3.3-3.7v-5.5h2.5v5.1
			c0,1.5,0.4,2.2,1.6,2.2c1.3,0,1.9-0.7,1.9-2.6v-4.7h2.5V181.5z"/>
		<path class="st3" d="M199.2,172.5h2.4v1.3h0.1c0.6-1,1.7-1.5,2.8-1.5c2.6,0,3.3,1.5,3.3,3.7v5.5h-2.5v-5.1c0-1.5-0.4-2.2-1.6-2.2
			c-1.3,0-1.9,0.7-1.9,2.6v4.7h-2.5V172.5z"/>
		<path class="st3" d="M209.4,172.5h2.3v1.2h0c0.6-0.9,1.6-1.5,2.8-1.5c1.1,0,2.1,0.4,2.6,1.5c0.5-0.8,1.5-1.5,2.7-1.5
			c1.9,0,3.3,0.9,3.3,3.2v6h-2.5v-5.1c0-1.2-0.1-2.2-1.5-2.2c-1.4,0-1.7,1.1-1.7,2.3v5H215v-5.1c0-1,0.1-2.2-1.5-2.2
			c-0.5,0-1.7,0.3-1.7,2.1v5.2h-2.5V172.5z"/>
		<path class="st3" d="M227,177.6c0.1,1.6,0.8,2.3,2.2,2.3c1,0,1.8-0.6,2-1.2h2.2c-0.7,2.1-2.2,3-4.2,3c-2.8,0-4.6-2-4.6-4.7
			c0-2.7,1.9-4.8,4.6-4.8c3.1,0,4.5,2.6,4.4,5.3H227z M231,176c-0.2-1.3-0.8-1.9-2-1.9c-1.6,0-2,1.2-2.1,1.9H231z"/>
		<path class="st3" d="M237.9,172.5h1.8v1.7h-1.8v4.5c0,0.8,0.2,1,1,1c0.3,0,0.5,0,0.8-0.1v1.9c-0.4,0.1-1,0.1-1.4,0.1
			c-1.5,0-2.8-0.3-2.8-2.1v-5.3h-1.5v-1.7h1.5v-2.7h2.5V172.5z"/>
		<path class="st3" d="M245.4,172.5h2.4v1.3h0.1c0.6-1,1.7-1.5,2.8-1.5c2.6,0,3.3,1.5,3.3,3.7v5.5h-2.5v-5.1c0-1.5-0.4-2.2-1.6-2.2
			c-1.3,0-1.9,0.7-1.9,2.6v4.7h-2.5V172.5z"/>
		<path class="st3" d="M257.6,177.6c0.1,1.6,0.8,2.3,2.2,2.3c1,0,1.8-0.6,2-1.2h2.2c-0.7,2.1-2.2,3-4.2,3c-2.8,0-4.6-2-4.6-4.7
			c0-2.7,1.9-4.8,4.6-4.8c3.1,0,4.5,2.6,4.4,5.3H257.6z M261.6,176c-0.2-1.3-0.8-1.9-2-1.9c-1.6,0-2,1.2-2.1,1.9H261.6z"/>
		<path class="st3" d="M267.4,177.6c0.1,1.6,0.8,2.3,2.2,2.3c1,0,1.8-0.6,2-1.2h2.2c-0.7,2.1-2.2,3-4.2,3c-2.8,0-4.6-2-4.6-4.7
			c0-2.7,1.9-4.8,4.6-4.8c3.1,0,4.5,2.6,4.4,5.3H267.4z M271.4,176c-0.2-1.3-0.8-1.9-2-1.9c-1.6,0-2,1.2-2.1,1.9H271.4z"/>
		<path class="st3" d="M281.6,180.4L281.6,180.4c-0.6,1-1.6,1.4-2.8,1.4c-2.7,0-4-2.3-4-4.8c0-2.4,1.3-4.7,4-4.7
			c1.1,0,2.1,0.5,2.7,1.3h0v-4.5h2.5v12.4h-2.4V180.4z M279.5,174.1c-1.6,0-2.2,1.4-2.2,2.9c0,1.4,0.6,2.9,2.2,2.9
			c1.6,0,2.1-1.4,2.1-2.9C281.6,175.5,281.1,174.1,279.5,174.1z"/>
	</g>
	<path class="st9" d="M95.7,105.6c0-7.6,6.1-13.6,14.2-13.7c7.6-0.1,14.5,6.4,14.4,13.6c0,7.3-6.8,13.5-14.6,13.5
		C102.1,119,95.7,112.9,95.7,105.6L95.7,105.6z M108.6,161.8l-22.6,0c-0.1-8.3-0.1-17,0.1-25.3c0.2-8.4,6.1-13.9,15.1-14
		c6.3-0.1,12.6-0.1,18.8,0c8.4,0.2,13.9,5.5,14,13.4"/>
	<path class="st10" d="M153,156.4h-12.3V144c0-1.6-1.3-2.9-2.9-2.9h-6.2c-1.6,0-2.9,1.3-2.9,2.9v12.3h-12.3c-1.6,0-2.9,1.3-2.9,2.9
		v6.2c0,1.6,1.3,2.9,2.9,2.9h12.3v12.3c0,1.6,1.3,2.9,2.9,2.9h6.2c1.6,0,2.9-1.3,2.9-2.9v-12.3H153c1.6,0,2.9-1.3,2.9-2.9v-6.2
		C155.8,157.6,154.5,156.4,153,156.4L153,156.4z"/>
	<path class="st1" d="M376.4,58.1c-6.1,0-11,4.9-11,11v126.2c0,6.1,4.9,11,11,11h265.7c6.1,0,11-4.9,11-11V69.1c0-6.1-4.9-11-11-11
		H376.4L376.4,58.1z"/>
	<path class="st2" d="M376.4,58.1c-6.1,0-11,4.9-11,11v126.2c0,6.1,4.9,11,11,11h265.7c6.1,0,11-4.9,11-11V69.1c0-6.1-4.9-11-11-11
		H376.4L376.4,58.1z"/>
	<g>
		<path class="st3" d="M499.1,86.2h-3.7v-2.3h10.2v2.3h-3.7v10.1h-2.7V86.2z"/>
		<path class="st3" d="M506.6,83.9h2.5v4.7h0.1c0.6-1,1.7-1.5,2.6-1.5c2.6,0,3.3,1.5,3.3,3.7v5.5h-2.5v-5.1c0-1.5-0.4-2.2-1.6-2.2
			c-1.3,0-1.9,0.7-1.9,2.6v4.7h-2.5V83.9z"/>
		<path class="st3" d="M518.8,92.4c0.1,1.6,0.8,2.3,2.2,2.3c1,0,1.8-0.6,2-1.2h2.2c-0.7,2.1-2.2,3-4.2,3c-2.8,0-4.6-2-4.6-4.7
			c0-2.7,1.9-4.8,4.6-4.8c3.1,0,4.5,2.6,4.4,5.3H518.8z M522.8,90.8c-0.2-1.3-0.8-1.9-2-1.9c-1.6,0-2,1.2-2.1,1.9H522.8z"/>
		<path class="st3" d="M526.6,87.3h2.4V89h0c0.5-1.1,1.7-1.9,2.9-1.9c0.2,0,0.4,0,0.5,0.1v2.3c-0.2-0.1-0.6-0.1-0.9-0.1
			c-1.8,0-2.4,1.3-2.4,2.9v4.1h-2.5V87.3z"/>
		<path class="st3" d="M533.1,90.1c0.1-2.3,2.2-3,4.2-3c1.8,0,4,0.4,4,2.6v4.7c0,0.8,0.1,1.6,0.3,2h-2.5c-0.1-0.3-0.2-0.6-0.2-0.9
			c-0.8,0.8-1.9,1.1-3,1.1c-1.7,0-3.1-0.9-3.1-2.7c0-2,1.5-2.5,3.1-2.7c1.5-0.2,2.9-0.2,2.9-1.2c0-1.1-0.7-1.2-1.6-1.2
			c-0.9,0-1.6,0.4-1.6,1.4H533.1z M538.8,91.9c-0.4,0.4-1.3,0.4-2.1,0.5c-0.8,0.2-1.5,0.4-1.5,1.3c0,0.9,0.7,1.1,1.5,1.1
			c1.9,0,2-1.5,2-2.1V91.9z"/>
		<path class="st3" d="M543,87.3h2.4v1.1h0c0.6-1,1.6-1.4,2.7-1.4c2.8,0,4.1,2.3,4.1,4.8c0,2.4-1.3,4.7-4,4.7
			c-1.1,0-2.1-0.5-2.7-1.4h0v4.3H543V87.3z M549.7,91.8c0-1.4-0.6-2.9-2.2-2.9c-1.6,0-2.1,1.4-2.1,2.9c0,1.5,0.6,2.9,2.2,2.9
			C549.2,94.7,549.7,93.3,549.7,91.8z"/>
		<path class="st3" d="M555.5,92.4c0.1,1.6,0.8,2.3,2.2,2.3c1,0,1.8-0.6,2-1.2h2.2c-0.7,2.1-2.2,3-4.2,3c-2.8,0-4.6-2-4.6-4.7
			c0-2.7,1.9-4.8,4.6-4.8c3.1,0,4.5,2.6,4.4,5.3H555.5z M559.6,90.8c-0.2-1.3-0.8-1.9-2-1.9c-1.6,0-2,1.2-2.1,1.9H559.6z"/>
		<path class="st3" d="M571.8,96.3h-2.4v-1.3h-0.1c-0.6,1-1.7,1.5-2.8,1.5c-2.6,0-3.3-1.5-3.3-3.7v-5.5h2.5v5.1
			c0,1.5,0.4,2.2,1.6,2.2c1.3,0,1.9-0.7,1.9-2.6v-4.7h2.5V96.3z"/>
		<path class="st3" d="M576.6,87.3h1.8V89h-1.8v4.5c0,0.8,0.2,1,1,1c0.3,0,0.5,0,0.8-0.1v1.9c-0.4,0.1-1,0.1-1.4,0.1
			c-1.5,0-2.8-0.3-2.8-2.1V89h-1.5v-1.7h1.5v-2.7h2.5V87.3z"/>
		<path class="st3" d="M582,85.9h-2.5v-2h2.5V85.9z M579.5,87.3h2.5v9h-2.5V87.3z"/>
		<path class="st3" d="M589.9,90.5c-0.2-1-0.8-1.6-1.8-1.6c-1.6,0-2.1,1.6-2.1,2.9c0,1.3,0.5,2.8,2.1,2.8c1.2,0,1.8-0.7,2-1.8h2.4
			c-0.3,2.4-2,3.7-4.3,3.7c-2.7,0-4.5-1.9-4.5-4.6c0-2.8,1.7-4.9,4.6-4.9c2.1,0,4.1,1.1,4.2,3.4H589.9z"/>
	</g>
	<g>
		<path class="st3" d="M496,111.4c0.1-2.3,2.2-3,4.2-3c1.8,0,4,0.4,4,2.6v4.7c0,0.8,0.1,1.6,0.3,2H502c-0.1-0.3-0.2-0.6-0.2-0.9
			c-0.8,0.8-1.9,1.1-3,1.1c-1.7,0-3.1-0.9-3.1-2.7c0-2,1.5-2.5,3.1-2.7c1.5-0.2,2.9-0.2,2.9-1.2c0-1.1-0.7-1.2-1.6-1.2
			c-0.9,0-1.6,0.4-1.6,1.4H496z M501.7,113.2c-0.4,0.4-1.3,0.4-2.1,0.5c-0.8,0.2-1.5,0.4-1.5,1.3c0,0.9,0.7,1.1,1.5,1.1
			c1.9,0,2-1.5,2-2.1V113.2z"/>
		<path class="st3" d="M506,108.6h2.4v1.7h0c0.5-1.1,1.7-1.9,2.9-1.9c0.2,0,0.4,0,0.5,0.1v2.3c-0.2-0.1-0.6-0.1-0.9-0.1
			c-1.8,0-2.4,1.3-2.4,2.9v4.1H506V108.6z"/>
	</g>
	<g>
		<path class="st3" d="M514.3,113.7c0.1,1.6,0.8,2.3,2.2,2.3c1,0,1.8-0.6,2-1.2h2.2c-0.7,2.1-2.2,3-4.2,3c-2.8,0-4.6-2-4.6-4.7
			c0-2.7,1.9-4.8,4.6-4.8c3.1,0,4.5,2.6,4.4,5.3H514.3z M518.3,112.1c-0.2-1.3-0.8-1.9-2-1.9c-1.6,0-2,1.2-2.1,1.9H518.3z"/>
		<path class="st3" d="M522,111.4c0.1-2.3,2.2-3,4.2-3c1.8,0,4,0.4,4,2.6v4.7c0,0.8,0.1,1.6,0.3,2H528c-0.1-0.3-0.2-0.6-0.2-0.9
			c-0.8,0.8-1.9,1.1-3,1.1c-1.7,0-3.1-0.9-3.1-2.7c0-2,1.5-2.5,3.1-2.7c1.5-0.2,2.9-0.2,2.9-1.2c0-1.1-0.7-1.2-1.6-1.2
			c-0.9,0-1.6,0.4-1.6,1.4H522z M527.7,113.2c-0.4,0.4-1.3,0.4-2.1,0.5c-0.8,0.2-1.5,0.4-1.5,1.3c0,0.9,0.7,1.1,1.5,1.1
			c1.9,0,2-1.5,2-2.1V113.2z"/>
		<path class="st3" d="M533.8,114.7c0,1.1,0.9,1.5,1.9,1.5c0.7,0,1.6-0.3,1.6-1.1c0-0.7-1-1-2.8-1.4c-1.4-0.3-2.9-0.8-2.9-2.4
			c0-2.3,2-2.9,3.9-2.9c2,0,3.8,0.7,4,2.9h-2.4c-0.1-1-0.8-1.2-1.7-1.2c-0.6,0-1.4,0.1-1.4,0.8c0,0.9,1.4,1,2.8,1.3
			c1.4,0.3,2.9,0.9,2.9,2.5c0,2.4-2.1,3.1-4.1,3.1c-2.1,0-4.1-0.8-4.2-3.2H533.8z"/>
		<path class="st3" d="M556,117.6h-2.5l-1.6-6h0l-1.5,6h-2.6l-2.9-9h2.6l1.7,6.1h0l1.5-6.1h2.4l1.5,6.1h0l1.7-6.1h2.5L556,117.6z"/>
		<path class="st3" d="M559.8,105.2h2.5v4.7h0.1c0.6-1,1.7-1.5,2.6-1.5c2.6,0,3.3,1.5,3.3,3.7v5.5h-2.5v-5.1c0-1.5-0.4-2.2-1.6-2.2
			c-1.3,0-1.9,0.7-1.9,2.6v4.7h-2.5V105.2z"/>
		<path class="st3" d="M572,113.7c0.1,1.6,0.8,2.3,2.2,2.3c1,0,1.8-0.6,2-1.2h2.2c-0.7,2.1-2.2,3-4.2,3c-2.8,0-4.6-2-4.6-4.7
			c0-2.7,1.9-4.8,4.6-4.8c3.1,0,4.5,2.6,4.4,5.3H572z M576,112.1c-0.2-1.3-0.8-1.9-2-1.9c-1.6,0-2,1.2-2.1,1.9H576z"/>
		<path class="st3" d="M579.7,108.6h2.4v1.7h0c0.5-1.1,1.7-1.9,2.9-1.9c0.2,0,0.4,0,0.5,0.1v2.3c-0.2-0.1-0.6-0.1-0.9-0.1
			c-1.8,0-2.4,1.3-2.4,2.9v4.1h-2.5V108.6z"/>
	</g>
	<g>
		<path class="st3" d="M588.1,113.7c0.1,1.6,0.8,2.3,2.2,2.3c1,0,1.8-0.6,2-1.2h2.2c-0.7,2.1-2.2,3-4.2,3c-2.8,0-4.6-2-4.6-4.7
			c0-2.7,1.9-4.8,4.6-4.8c3.1,0,4.5,2.6,4.4,5.3H588.1z M592.1,112.1c-0.2-1.3-0.8-1.9-2-1.9c-1.6,0-2,1.2-2.1,1.9H592.1z"/>
	</g>
	<g>
		<path class="st3" d="M498.2,134.8c0,1.7,1.3,2.3,2.8,2.3c1,0,2.4-0.3,2.4-1.6c0-1.3-1.9-1.6-3.7-2.1c-1.8-0.5-3.7-1.2-3.7-3.5
			c0-2.5,2.4-3.8,4.7-3.8c2.6,0,5,1.1,5,4H503c-0.1-1.5-1.2-1.9-2.5-1.9c-0.9,0-1.9,0.4-1.9,1.4c0,1,0.6,1.1,3.7,1.9
			c0.9,0.2,3.7,0.8,3.7,3.6c0,2.3-1.8,4-5.2,4c-2.8,0-5.3-1.4-5.3-4.4H498.2z"/>
		<path class="st3" d="M511.7,140c-0.5,1.4-1.4,2-3.1,2c-0.5,0-1,0-1.5-0.1v-2c0.5,0,1,0.1,1.4,0.1c0.9-0.1,1.1-1,0.9-1.7l-3.2-8.5
			h2.6l2,6.2h0l2-6.2h2.6L511.7,140z"/>
		<path class="st3" d="M516.1,129.9h2.4v1.3h0.1c0.6-1,1.7-1.5,2.8-1.5c2.6,0,3.3,1.5,3.3,3.7v5.5h-2.5v-5.1c0-1.5-0.4-2.2-1.6-2.2
			c-1.3,0-1.9,0.7-1.9,2.6v4.7h-2.5V129.9z"/>
		<path class="st3" d="M532.4,133.1c-0.2-1-0.8-1.6-1.8-1.6c-1.6,0-2.1,1.6-2.1,2.9c0,1.3,0.5,2.8,2.1,2.8c1.2,0,1.8-0.7,2-1.8h2.4
			c-0.3,2.4-2,3.7-4.3,3.7c-2.7,0-4.5-1.9-4.5-4.6c0-2.8,1.7-4.9,4.6-4.9c2.1,0,4.1,1.1,4.2,3.4H532.4z"/>
		<path class="st3" d="M540.5,129.7c2.8,0,4.7,1.9,4.7,4.8c0,2.9-1.8,4.7-4.7,4.7c-2.8,0-4.7-1.9-4.7-4.7
			C535.8,131.5,537.7,129.7,540.5,129.7z M540.5,137.3c1.7,0,2.2-1.4,2.2-2.9c0-1.4-0.5-2.9-2.2-2.9c-1.7,0-2.2,1.4-2.2,2.9
			C538.3,135.8,538.8,137.3,540.5,137.3z"/>
		<path class="st3" d="M546.6,129.9h2.4v1.3h0.1c0.6-1,1.7-1.5,2.8-1.5c2.6,0,3.3,1.5,3.3,3.7v5.5h-2.5v-5.1c0-1.5-0.4-2.2-1.6-2.2
			c-1.3,0-1.9,0.7-1.9,2.6v4.7h-2.5V129.9z"/>
		<path class="st3" d="M556.6,132.7c0.1-2.3,2.2-3,4.2-3c1.8,0,4,0.4,4,2.6v4.7c0,0.8,0.1,1.6,0.3,2h-2.5c-0.1-0.3-0.2-0.6-0.2-0.9
			c-0.8,0.8-1.9,1.1-3,1.1c-1.7,0-3.1-0.9-3.1-2.7c0-2,1.5-2.5,3.1-2.7c1.5-0.2,2.9-0.2,2.9-1.2c0-1.1-0.7-1.2-1.6-1.2
			c-0.9,0-1.6,0.4-1.6,1.4H556.6z M562.4,134.5c-0.4,0.4-1.3,0.4-2.1,0.5c-0.8,0.2-1.5,0.4-1.5,1.3c0,0.9,0.7,1.1,1.5,1.1
			c1.9,0,2-1.5,2-2.1V134.5z"/>
		<path class="st3" d="M571.2,126.5h2.5v4.7h0.1c0.6-1,1.7-1.5,2.6-1.5c2.6,0,3.3,1.5,3.3,3.7v5.5h-2.5v-5.1c0-1.5-0.4-2.2-1.6-2.2
			c-1.3,0-1.9,0.7-1.9,2.6v4.7h-2.5V126.5z"/>
		<path class="st3" d="M581.3,132.7c0.1-2.3,2.2-3,4.2-3c1.8,0,4,0.4,4,2.6v4.7c0,0.8,0.1,1.6,0.3,2h-2.5c-0.1-0.3-0.2-0.6-0.2-0.9
			c-0.8,0.8-1.9,1.1-3,1.1c-1.7,0-3.1-0.9-3.1-2.7c0-2,1.5-2.5,3.1-2.7c1.5-0.2,2.9-0.2,2.9-1.2c0-1.1-0.7-1.2-1.6-1.2
			c-0.9,0-1.6,0.4-1.6,1.4H581.3z M587,134.5c-0.4,0.4-1.3,0.4-2.1,0.5c-0.8,0.2-1.5,0.4-1.5,1.3c0,0.9,0.7,1.1,1.5,1.1
			c1.9,0,2-1.5,2-2.1V134.5z"/>
		<path class="st3" d="M593.2,136c0,1.1,0.9,1.5,1.9,1.5c0.7,0,1.6-0.3,1.6-1.1c0-0.7-1-1-2.8-1.4c-1.4-0.3-2.9-0.8-2.9-2.4
			c0-2.3,2-2.9,3.9-2.9c2,0,3.8,0.7,4,2.9h-2.4c-0.1-1-0.8-1.2-1.7-1.2c-0.6,0-1.4,0.1-1.4,0.8c0,0.9,1.4,1,2.8,1.3
			c1.4,0.3,2.9,0.9,2.9,2.5c0,2.4-2.1,3.1-4.1,3.1c-2.1,0-4.1-0.8-4.2-3.2H593.2z"/>
	</g>
	<g>
		<path class="st3" d="M502.6,159.1L502.6,159.1c-0.6,1-1.6,1.4-2.8,1.4c-2.7,0-4-2.3-4-4.8c0-2.4,1.3-4.7,4-4.7
			c1.1,0,2.1,0.5,2.7,1.3h0v-4.5h2.5v12.4h-2.4V159.1z M500.4,152.8c-1.6,0-2.2,1.4-2.2,2.9c0,1.4,0.6,2.9,2.2,2.9
			c1.6,0,2.1-1.4,2.1-2.9C502.5,154.2,502,152.8,500.4,152.8z"/>
		<path class="st3" d="M508.6,156.3c0.1,1.6,0.8,2.3,2.2,2.3c1,0,1.8-0.6,2-1.2h2.2c-0.7,2.1-2.2,3-4.2,3c-2.8,0-4.6-2-4.6-4.7
			c0-2.7,1.9-4.8,4.6-4.8c3.1,0,4.5,2.6,4.4,5.3H508.6z M512.7,154.7c-0.2-1.3-0.8-1.9-2-1.9c-1.6,0-2,1.2-2.1,1.9H512.7z"/>
		<path class="st3" d="M518.5,156.3c0.1,1.6,0.8,2.3,2.2,2.3c1,0,1.8-0.6,2-1.2h2.2c-0.7,2.1-2.2,3-4.2,3c-2.8,0-4.6-2-4.6-4.7
			c0-2.7,1.9-4.8,4.6-4.8c3.1,0,4.5,2.6,4.4,5.3H518.5z M522.5,154.7c-0.2-1.3-0.8-1.9-2-1.9c-1.6,0-2,1.2-2.1,1.9H522.5z"/>
		<path class="st3" d="M526.3,151.2h2.4v1.1h0c0.6-1,1.6-1.4,2.7-1.4c2.8,0,4.1,2.3,4.1,4.8c0,2.4-1.3,4.7-4,4.7
			c-1.1,0-2.1-0.5-2.7-1.4h0v4.3h-2.5V151.2z M532.9,155.7c0-1.4-0.6-2.9-2.2-2.9c-1.6,0-2.1,1.4-2.1,2.9c0,1.5,0.6,2.9,2.2,2.9
			C532.4,158.6,532.9,157.2,532.9,155.7z"/>
		<path class="st3" d="M547.8,159.1L547.8,159.1c-0.6,1-1.6,1.4-2.8,1.4c-2.7,0-4-2.3-4-4.8c0-2.4,1.3-4.7,4-4.7
			c1.1,0,2.1,0.5,2.7,1.3h0v-4.5h2.5v12.4h-2.4V159.1z M545.7,152.8c-1.6,0-2.2,1.4-2.2,2.9c0,1.4,0.6,2.9,2.2,2.9
			c1.6,0,2.1-1.4,2.1-2.9C547.8,154.2,547.3,152.8,545.7,152.8z"/>
		<path class="st3" d="M556.2,151c2.8,0,4.7,1.9,4.7,4.8c0,2.9-1.8,4.7-4.7,4.7c-2.8,0-4.7-1.9-4.7-4.7
			C551.6,152.8,553.4,151,556.2,151z M556.2,158.6c1.7,0,2.2-1.4,2.2-2.9c0-1.4-0.5-2.9-2.2-2.9c-1.7,0-2.2,1.4-2.2,2.9
			C554.1,157.1,554.6,158.6,556.2,158.6z"/>
		<path class="st3" d="M562.4,151.2h2.3v1.2h0c0.6-0.9,1.6-1.5,2.8-1.5c1.1,0,2.1,0.4,2.6,1.5c0.5-0.8,1.5-1.5,2.7-1.5
			c1.9,0,3.3,0.9,3.3,3.2v6h-2.5v-5.1c0-1.2-0.1-2.2-1.5-2.2c-1.4,0-1.7,1.1-1.7,2.3v5h-2.5v-5.1c0-1,0.1-2.2-1.5-2.2
			c-0.5,0-1.7,0.3-1.7,2.1v5.2h-2.5V151.2z"/>
		<path class="st3" d="M577.9,154c0.1-2.3,2.2-3,4.2-3c1.8,0,4,0.4,4,2.6v4.7c0,0.8,0.1,1.6,0.3,2h-2.5c-0.1-0.3-0.2-0.6-0.2-0.9
			c-0.8,0.8-1.9,1.1-3,1.1c-1.7,0-3.1-0.9-3.1-2.7c0-2,1.5-2.5,3.1-2.7c1.5-0.2,2.9-0.2,2.9-1.2c0-1.1-0.7-1.2-1.6-1.2
			c-0.9,0-1.6,0.4-1.6,1.4H577.9z M583.6,155.8c-0.4,0.4-1.3,0.4-2.1,0.5c-0.8,0.2-1.5,0.4-1.5,1.3c0,0.9,0.7,1.1,1.5,1.1
			c1.9,0,2-1.5,2-2.1V155.8z"/>
		<path class="st3" d="M590.3,149.8h-2.5v-2h2.5V149.8z M587.9,151.2h2.5v9h-2.5V151.2z"/>
		<path class="st3" d="M592.1,151.2h2.4v1.3h0.1c0.6-1,1.7-1.5,2.8-1.5c2.6,0,3.3,1.5,3.3,3.7v5.5h-2.5v-5.1c0-1.5-0.4-2.2-1.6-2.2
			c-1.3,0-1.9,0.7-1.9,2.6v4.7h-2.5V151.2z"/>
	</g>
	<g>
		<path class="st3" d="M498.2,177.6c0.1,1.6,0.8,2.3,2.2,2.3c1,0,1.8-0.6,2-1.2h2.2c-0.7,2.1-2.2,3-4.2,3c-2.8,0-4.6-2-4.6-4.7
			c0-2.7,1.9-4.8,4.6-4.8c3.1,0,4.5,2.6,4.4,5.3H498.2z M502.2,176c-0.2-1.3-0.8-1.9-2-1.9c-1.6,0-2,1.2-2.1,1.9H502.2z"/>
		<path class="st3" d="M508.3,176.8l-3-4.3h2.8l1.6,2.4l1.6-2.4h2.7l-3,4.2l3.3,4.8h-2.8l-1.9-2.8l-1.9,2.8H505L508.3,176.8z"/>
		<path class="st3" d="M515.1,172.5h2.4v1.1h0c0.6-1,1.6-1.4,2.7-1.4c2.8,0,4.1,2.3,4.1,4.8c0,2.4-1.3,4.7-4,4.7
			c-1.1,0-2.1-0.5-2.7-1.4h0v4.3h-2.5V172.5z M521.8,177c0-1.4-0.6-2.9-2.2-2.9c-1.6,0-2.1,1.4-2.1,2.9c0,1.5,0.6,2.9,2.2,2.9
			C521.3,179.9,521.8,178.5,521.8,177z"/>
		<path class="st3" d="M527.6,177.6c0.1,1.6,0.8,2.3,2.2,2.3c1,0,1.8-0.6,2-1.2h2.2c-0.7,2.1-2.2,3-4.2,3c-2.8,0-4.6-2-4.6-4.7
			c0-2.7,1.9-4.8,4.6-4.8c3.1,0,4.5,2.6,4.4,5.3H527.6z M531.7,176c-0.2-1.3-0.8-1.9-2-1.9c-1.6,0-2,1.2-2.1,1.9H531.7z"/>
		<path class="st3" d="M535.4,172.5h2.4v1.7h0c0.5-1.1,1.7-1.9,2.9-1.9c0.2,0,0.4,0,0.5,0.1v2.3c-0.2-0.1-0.6-0.1-0.9-0.1
			c-1.8,0-2.4,1.3-2.4,2.9v4.1h-2.5V172.5z"/>
		<path class="st3" d="M545.2,172.5h1.8v1.7h-1.8v4.5c0,0.8,0.2,1,1,1c0.3,0,0.5,0,0.8-0.1v1.9c-0.4,0.1-1,0.1-1.4,0.1
			c-1.5,0-2.8-0.3-2.8-2.1v-5.3h-1.5v-1.7h1.5v-2.7h2.5V172.5z"/>
		<path class="st3" d="M550.5,171.1h-2.5v-2h2.5V171.1z M548.1,172.5h2.5v9h-2.5V172.5z"/>
		<path class="st3" d="M554.2,178.6c0,1.1,0.9,1.5,1.9,1.5c0.7,0,1.6-0.3,1.6-1.1c0-0.7-1-1-2.8-1.4c-1.4-0.3-2.9-0.8-2.9-2.4
			c0-2.3,2-2.9,3.9-2.9c2,0,3.8,0.7,4,2.9h-2.4c-0.1-1-0.8-1.2-1.7-1.2c-0.6,0-1.4,0.1-1.4,0.8c0,0.9,1.4,1,2.8,1.3
			c1.4,0.3,2.9,0.9,2.9,2.5c0,2.4-2.1,3.1-4.1,3.1c-2.1,0-4.1-0.8-4.2-3.2H554.2z"/>
		<path class="st3" d="M563.5,177.6c0.1,1.6,0.8,2.3,2.2,2.3c1,0,1.8-0.6,2-1.2h2.2c-0.7,2.1-2.2,3-4.2,3c-2.8,0-4.6-2-4.6-4.7
			c0-2.7,1.9-4.8,4.6-4.8c3.1,0,4.5,2.6,4.4,5.3H563.5z M567.6,176c-0.2-1.3-0.8-1.9-2-1.9c-1.6,0-2,1.2-2.1,1.9H567.6z"/>
	</g>
	<path class="st11" d="M453.5,115.2l-0.1,2.5c4.3,0,7.9,3.5,7.9,7.9c0,0.6-0.1,1.2-0.2,1.7c-0.9-0.3-1.9-0.5-2.9-0.5 M461.4,130
		C461.4,130,461.4,130.1,461.4,130L461.4,130c2.8,1.3,4.6,4.1,4.6,7.2c0,4.4-3.5,7.9-7.9,7.9 M462.8,143.5l1,2.4
		c0.3,0.8,0.5,1.7,0.5,2.5c0,3.6-2.4,6.7-5.8,7.6c0,0-0.1,0-0.1,0.1c0,0-0.1,0-0.2,0.1c0,0-0.1,0-0.1,0.1c-0.1,0-0.1,0.1-0.2,0.2
		c0,0-0.1,0.1-0.1,0.1c-0.1,0.1-0.1,0.2-0.1,0.3c0,0-0.1,0.1-0.1,0.2c0,0.1,0,0.2,0,0.3c0,0.1,0,0.1,0,0.2c0,0,0,0.1,0,0.1
		c0,0,0,0.1,0.1,0.1c0,0.1,0,0.1,0.1,0.2c0.6,1,0.9,2.1,0.9,3.2c0,3.6-2.9,6.6-6.6,6.6c-0.4,0-0.9,0-1.3-0.1c0,0,0,0,0,0l0,0
		c-0.7-0.1-1.3,0.3-1.5,1c-0.7,3.1-4,5.4-8,5.4c-4.5,0-8.1-2.9-8.1-6.6v-8.8c0-3.6,2.9-6.6,6.6-6.6 M433.1,158.6v-6.2v-27.2
		c0-3.6,2.9-6.5,6.6-6.5 M433.1,129.3v-23.6c0,0,0.2-3.1,2.1-4.3c1-0.7,2.4-0.7,4.2,0c0.1,0,2.6,0.9,4.9,2.5
		c-1.8,0.8-3.3,2.1-4.3,3.9c-0.8,1.4-1.1,2.9-1.1,4.4 M444.2,103.9l3.6,1.7c3.6,0,6.5,2.9,6.5,6.5c0,1.1-0.3,2.1-0.8,3
		c0,0-0.1,0-0.1,0c-4,0-7.5,2.2-9.3,5.7 M461.1,127.3l0.3,2.7c0,0-0.6,0.2,1.8,1.1 M400.5,127c-1,0-2,0.2-2.9,0.5
		c-0.1-0.6-0.2-1.1-0.2-1.7c0-4.3,3.5-7.9,7.9-7.9l-0.1-2.5 M400.5,145.3c-4.3,0-7.9-3.5-7.9-7.9c0-3.1,1.8-5.9,4.6-7.2h0
		c0,0,0.1,0,0.1,0 M419.1,152.2c3.6,0,6.6,2.9,6.6,6.6v8.8c0,3.6-3.7,6.6-8.1,6.6c-4,0-7.3-2.3-8-5.4c-0.1-0.7-0.8-1.1-1.5-1l0,0
		c0,0,0,0,0,0c-0.4,0.1-0.9,0.1-1.3,0.1c-3.6,0-6.6-2.9-6.6-6.6c0-1.1,0.3-2.3,0.9-3.2c0-0.1,0-0.1,0.1-0.2c0,0,0,0,0.1-0.1
		c0,0,0-0.1,0-0.1c0-0.1,0-0.1,0-0.2c0-0.1,0-0.2,0-0.3c0,0,0-0.1-0.1-0.2c0-0.1-0.1-0.2-0.1-0.3c0-0.1-0.1-0.1-0.1-0.1
		c-0.1-0.1-0.1-0.1-0.2-0.2c0,0,0,0-0.1-0.1c-0.1,0-0.1,0-0.2-0.1c0,0-0.1,0-0.1-0.1c-3.4-0.9-5.8-4.1-5.8-7.6
		c0-0.9,0.2-1.7,0.5-2.5l1-2.4 M419.1,118.7c3.6,0,6.6,2.9,6.6,6.5v27.2v6.2 M420,112.3c0-1.5-0.4-3-1.1-4.4c-1-1.8-2.5-3.1-4.3-3.9
		c2.2-1.5,4.8-2.5,4.9-2.5c1.8-0.7,3.2-0.7,4.2,0c1.8,1.2,2.1,4.3,2.1,4.3v23.6 M414.6,121.1c-1.8-3.5-5.3-5.7-9.3-5.7
		c0,0-0.1,0-0.1,0c-0.5-0.9-0.8-2-0.8-3c0-3.6,2.9-6.5,6.5-6.5l3.6-1.7 M397.6,127.4l-0.3,2.7c0,0,0.6,0.2-1.8,1.1"/>
	<path class="st12" d="M439.6,142.9c0.7,0.1,1.4,0.2,2.2,0.2c1.8,0,3.5-0.4,5.1-1.2c0.4,4.4,3.9,8,8.4,8.3c0,0,0,0,0.1,0
		 M444.6,142.7c2.3-0.4,4.6-2.5,4.6-2.5c1.9-1.7,3.2-3.8,3.7-6.4 M403.3,150.2C403.4,150.2,403.4,150.2,403.3,150.2
		c4.6-0.3,8.1-3.9,8.5-8.3c1.6,0.8,3.3,1.2,5.1,1.2c0.7,0,1.4-0.1,2.2-0.2 M405.8,134c0.5,2.5,1.8,4.7,3.7,6.4c0,0,2.4,2.2,4.6,2.5"
		/>
	<path class="st1" d="M686.3,58.1c-6.1,0-11,4.9-11,11v126.2c0,6.1,4.9,11,11,11H952c6.1,0,11-4.9,11-11V69.1c0-6.1-4.9-11-11-11
		H686.3L686.3,58.1z"/>
	<path class="st2" d="M686.3,58.1c-6.1,0-11,4.9-11,11v126.2c0,6.1,4.9,11,11,11H952c6.1,0,11-4.9,11-11V69.1c0-6.1-4.9-11-11-11
		H686.3L686.3,58.1z"/>
	<g>
		<path class="st3" d="M810.4,83.9h5.4c3.2,0,5.6,2,5.6,6.2c0,3.6-1.8,6.3-5.6,6.3h-5.4V83.9z M813.1,94h2.4c1.6,0,3.1-1,3.1-3.7
			c0-2.5-0.9-4.1-3.6-4.1h-2V94z"/>
		<path class="st3" d="M824.9,92.4c0.1,1.6,0.8,2.3,2.2,2.3c1,0,1.8-0.6,2-1.2h2.2c-0.7,2.1-2.2,3-4.2,3c-2.8,0-4.6-2-4.6-4.7
			c0-2.7,1.9-4.8,4.6-4.8c3.1,0,4.5,2.6,4.4,5.3H824.9z M828.9,90.8c-0.2-1.3-0.8-1.9-2-1.9c-1.6,0-2,1.2-2.1,1.9H828.9z"/>
		<path class="st3" d="M833.2,89h-1.5v-1.7h1.5v-0.7c0-1.6,1-2.7,3-2.7c0.4,0,0.9,0.1,1.3,0.1v1.8c-0.3,0-0.6-0.1-0.9-0.1
			c-0.7,0-0.9,0.3-0.9,1v0.5h1.7V89h-1.7v7.4h-2.5V89z M841.4,85.9h-2.5v-2h2.5V85.9z M838.9,87.3h2.5v9h-2.5V87.3z"/>
	</g>
	<g>
		<path class="st3" d="M843.1,87.3h2.4v1.3h0.1c0.6-1,1.7-1.5,2.8-1.5c2.6,0,3.3,1.5,3.3,3.7v5.5h-2.5v-5.1c0-1.5-0.4-2.2-1.6-2.2
			c-1.3,0-1.9,0.7-1.9,2.6v4.7h-2.5V87.3z"/>
		<path class="st3" d="M855.3,92.4c0.1,1.6,0.8,2.3,2.2,2.3c1,0,1.8-0.6,2-1.2h2.2c-0.7,2.1-2.2,3-4.2,3c-2.8,0-4.6-2-4.6-4.7
			c0-2.7,1.9-4.8,4.6-4.8c3.1,0,4.5,2.6,4.4,5.3H855.3z M859.4,90.8c-0.2-1.3-0.8-1.9-2-1.9c-1.6,0-2,1.2-2.1,1.9H859.4z"/>
		<path class="st3" d="M869.6,95.2L869.6,95.2c-0.6,1-1.6,1.4-2.8,1.4c-2.7,0-4-2.3-4-4.8c0-2.4,1.3-4.7,4-4.7
			c1.1,0,2.1,0.5,2.7,1.3h0v-4.5h2.5v12.4h-2.4V95.2z M867.4,88.9c-1.6,0-2.2,1.4-2.2,2.9c0,1.4,0.6,2.9,2.2,2.9
			c1.6,0,2.1-1.4,2.1-2.9C869.5,90.3,869,88.9,867.4,88.9z"/>
		<path class="st3" d="M873.7,93.6h2.7v2.7c0,1.6-1.2,2.7-2.7,2.9V98c0.7-0.1,1.3-0.9,1.2-1.6h-1.3V93.6z"/>
	</g>
	<g>
		<path class="st3" d="M816.3,111.8c-0.2-1-0.8-1.6-1.8-1.6c-1.6,0-2.1,1.6-2.1,2.9c0,1.3,0.5,2.8,2.1,2.8c1.2,0,1.8-0.7,2-1.8h2.4
			c-0.3,2.4-2,3.7-4.3,3.7c-2.7,0-4.5-1.9-4.5-4.6c0-2.8,1.7-4.9,4.6-4.9c2.1,0,4.1,1.1,4.2,3.4H816.3z"/>
		<path class="st3" d="M824.3,108.4c2.8,0,4.7,1.9,4.7,4.8c0,2.9-1.8,4.7-4.7,4.7c-2.8,0-4.7-1.9-4.7-4.7
			C819.7,110.2,821.5,108.4,824.3,108.4z M824.3,116c1.7,0,2.2-1.4,2.2-2.9c0-1.4-0.5-2.9-2.2-2.9c-1.7,0-2.2,1.4-2.2,2.9
			C822.1,114.5,822.7,116,824.3,116z"/>
		<path class="st3" d="M830.5,108.6h2.3v1.2h0c0.6-0.9,1.6-1.5,2.8-1.5c1.1,0,2.1,0.4,2.6,1.5c0.5-0.8,1.5-1.5,2.7-1.5
			c1.9,0,3.3,0.9,3.3,3.2v6h-2.5v-5.1c0-1.2-0.1-2.2-1.5-2.2c-1.4,0-1.7,1.1-1.7,2.3v5h-2.5v-5.1c0-1,0.1-2.2-1.5-2.2
			c-0.5,0-1.7,0.3-1.7,2.1v5.2h-2.5V108.6z"/>
		<path class="st3" d="M846.1,108.6h2.3v1.2h0c0.6-0.9,1.6-1.5,2.8-1.5c1.1,0,2.1,0.4,2.6,1.5c0.5-0.8,1.5-1.5,2.7-1.5
			c1.9,0,3.3,0.9,3.3,3.2v6h-2.5v-5.1c0-1.2-0.1-2.2-1.5-2.2c-1.4,0-1.7,1.1-1.7,2.3v5h-2.5v-5.1c0-1,0.1-2.2-1.5-2.2
			c-0.5,0-1.7,0.3-1.7,2.1v5.2h-2.5V108.6z"/>
		<path class="st3" d="M863.7,113.7c0.1,1.6,0.8,2.3,2.2,2.3c1,0,1.8-0.6,2-1.2h2.2c-0.7,2.1-2.2,3-4.2,3c-2.8,0-4.6-2-4.6-4.7
			c0-2.7,1.9-4.8,4.6-4.8c3.1,0,4.5,2.6,4.4,5.3H863.7z M867.7,112.1c-0.2-1.3-0.8-1.9-2-1.9c-1.6,0-2,1.2-2.1,1.9H867.7z"/>
		<path class="st3" d="M871.5,108.6h2.4v1.7h0c0.5-1.1,1.7-1.9,2.9-1.9c0.2,0,0.4,0,0.5,0.1v2.3c-0.2-0.1-0.6-0.1-0.9-0.1
			c-1.8,0-2.4,1.3-2.4,2.9v4.1h-2.5V108.6z"/>
	</g>
	<g>
		<path class="st3" d="M883.9,111.8c-0.2-1-0.8-1.6-1.8-1.6c-1.6,0-2.1,1.6-2.1,2.9c0,1.3,0.5,2.8,2.1,2.8c1.2,0,1.8-0.7,2-1.8h2.4
			c-0.3,2.4-2,3.7-4.3,3.7c-2.7,0-4.5-1.9-4.5-4.6c0-2.8,1.7-4.9,4.6-4.9c2.1,0,4.1,1.1,4.2,3.4H883.9z"/>
		<path class="st3" d="M890.1,107.2h-2.5v-2h2.5V107.2z M887.7,108.6h2.5v9h-2.5V108.6z"/>
		<path class="st3" d="M891.8,111.4c0.1-2.3,2.2-3,4.2-3c1.8,0,4,0.4,4,2.6v4.7c0,0.8,0.1,1.6,0.3,2h-2.5c-0.1-0.3-0.2-0.6-0.2-0.9
			c-0.8,0.8-1.9,1.1-3,1.1c-1.7,0-3.1-0.9-3.1-2.7c0-2,1.5-2.5,3.1-2.7c1.5-0.2,2.9-0.2,2.9-1.2c0-1.1-0.7-1.2-1.6-1.2
			c-0.9,0-1.6,0.4-1.6,1.4H891.8z M897.5,113.2c-0.4,0.4-1.3,0.4-2.1,0.5c-0.8,0.2-1.5,0.4-1.5,1.3c0,0.9,0.7,1.1,1.5,1.1
			c1.9,0,2-1.5,2-2.1V113.2z"/>
		<path class="st3" d="M901.8,105.2h2.5v12.4h-2.5V105.2z"/>
	</g>
	<g>
		<path class="st3" d="M810.2,126.5h2.5v12.4h-2.5V126.5z"/>
		<path class="st3" d="M816.5,135c0.1,1.6,0.8,2.3,2.2,2.3c1,0,1.8-0.6,2-1.2h2.2c-0.7,2.1-2.2,3-4.2,3c-2.8,0-4.6-2-4.6-4.7
			c0-2.7,1.9-4.8,4.6-4.8c3.1,0,4.5,2.6,4.4,5.3H816.5z M820.5,133.4c-0.2-1.3-0.8-1.9-2-1.9c-1.6,0-2,1.2-2.1,1.9H820.5z"/>
		<path class="st3" d="M824.2,132.7c0.1-2.3,2.2-3,4.2-3c1.8,0,4,0.4,4,2.6v4.7c0,0.8,0.1,1.6,0.3,2h-2.5c-0.1-0.3-0.2-0.6-0.2-0.9
			c-0.8,0.8-1.9,1.1-3,1.1c-1.7,0-3.1-0.9-3.1-2.7c0-2,1.5-2.5,3.1-2.7c1.5-0.2,2.9-0.2,2.9-1.2c0-1.1-0.7-1.2-1.6-1.2
			c-0.9,0-1.6,0.4-1.6,1.4H824.2z M829.9,134.5c-0.4,0.4-1.3,0.4-2.1,0.5c-0.8,0.2-1.5,0.4-1.5,1.3c0,0.9,0.7,1.1,1.5,1.1
			c1.9,0,2-1.5,2-2.1V134.5z"/>
		<path class="st3" d="M840.5,137.8L840.5,137.8c-0.6,1-1.6,1.4-2.8,1.4c-2.7,0-4-2.3-4-4.8c0-2.4,1.3-4.7,4-4.7
			c1.1,0,2.1,0.5,2.7,1.3h0v-4.5h2.5v12.4h-2.4V137.8z M838.4,131.5c-1.6,0-2.2,1.4-2.2,2.9c0,1.4,0.6,2.9,2.2,2.9
			c1.6,0,2.1-1.4,2.1-2.9C840.5,132.9,840,131.5,838.4,131.5z"/>
		<path class="st3" d="M849.2,129.9h2.4v1.1h0c0.6-1,1.6-1.4,2.7-1.4c2.8,0,4.1,2.3,4.1,4.8c0,2.4-1.3,4.7-4,4.7
			c-1.1,0-2.1-0.5-2.7-1.4h0v4.3h-2.5V129.9z M855.9,134.4c0-1.4-0.6-2.9-2.2-2.9c-1.6,0-2.1,1.4-2.1,2.9c0,1.5,0.6,2.9,2.2,2.9
			C855.4,137.3,855.9,135.9,855.9,134.4z"/>
		<path class="st3" d="M859.7,129.9h2.4v1.7h0c0.5-1.1,1.7-1.9,2.9-1.9c0.2,0,0.4,0,0.5,0.1v2.3c-0.2-0.1-0.6-0.1-0.9-0.1
			c-1.8,0-2.4,1.3-2.4,2.9v4.1h-2.5V129.9z"/>
	</g>
	<g>
		<path class="st3" d="M870.4,129.7c2.8,0,4.7,1.9,4.7,4.8c0,2.9-1.8,4.7-4.7,4.7c-2.8,0-4.7-1.9-4.7-4.7
			C865.7,131.5,867.6,129.7,870.4,129.7z M870.4,137.3c1.7,0,2.2-1.4,2.2-2.9c0-1.4-0.5-2.9-2.2-2.9c-1.7,0-2.2,1.4-2.2,2.9
			C868.2,135.8,868.7,137.3,870.4,137.3z"/>
		<path class="st3" d="M885.1,138.3c0,1.5-0.5,4-4.7,4c-1.8,0-3.9-0.8-4-2.9h2.5c0.2,0.9,1,1.2,1.8,1.2c1.4,0,2-0.9,2-2.2v-1.2h0
			c-0.5,0.9-1.6,1.4-2.7,1.4c-2.7,0-3.9-2.1-3.9-4.5c0-2.3,1.3-4.5,3.9-4.5c1.2,0,2.1,0.4,2.7,1.4h0v-1.2h2.4V138.3z M882.8,134.3
			c0-1.5-0.5-2.8-2.1-2.8c-1.4,0-2,1.2-2,2.6c0,1.3,0.5,2.7,2,2.7C882.1,136.8,882.8,135.6,882.8,134.3z"/>
		<path class="st3" d="M886.9,129.9h2.4v1.7h0c0.5-1.1,1.7-1.9,2.9-1.9c0.2,0,0.4,0,0.5,0.1v2.3c-0.2-0.1-0.6-0.1-0.9-0.1
			c-1.8,0-2.4,1.3-2.4,2.9v4.1h-2.5V129.9z"/>
		<path class="st3" d="M893.4,132.7c0.1-2.3,2.2-3,4.2-3c1.8,0,4,0.4,4,2.6v4.7c0,0.8,0.1,1.6,0.3,2h-2.5c-0.1-0.3-0.2-0.6-0.2-0.9
			c-0.8,0.8-1.9,1.1-3,1.1c-1.7,0-3.1-0.9-3.1-2.7c0-2,1.5-2.5,3.1-2.7c1.5-0.2,2.9-0.2,2.9-1.2c0-1.1-0.7-1.2-1.6-1.2
			c-0.9,0-1.6,0.4-1.6,1.4H893.4z M899.2,134.5c-0.4,0.4-1.3,0.4-2.1,0.5c-0.8,0.2-1.5,0.4-1.5,1.3c0,0.9,0.7,1.1,1.5,1.1
			c1.9,0,2-1.5,2-2.1V134.5z"/>
		<path class="st3" d="M903.5,129.9h2.3v1.2h0c0.6-0.9,1.6-1.5,2.8-1.5c1.1,0,2.1,0.4,2.6,1.5c0.5-0.8,1.5-1.5,2.7-1.5
			c1.9,0,3.3,0.9,3.3,3.2v6h-2.5v-5.1c0-1.2-0.1-2.2-1.5-2.2c-1.4,0-1.7,1.1-1.7,2.3v5h-2.5v-5.1c0-1,0.1-2.2-1.5-2.2
			c-0.5,0-1.7,0.3-1.7,2.1v5.2h-2.5V129.9z"/>
		<path class="st3" d="M919.1,129.9h2.3v1.2h0c0.6-0.9,1.6-1.5,2.8-1.5c1.1,0,2.1,0.4,2.6,1.5c0.5-0.8,1.5-1.5,2.7-1.5
			c1.9,0,3.3,0.9,3.3,3.2v6h-2.5v-5.1c0-1.2-0.1-2.2-1.5-2.2c-1.4,0-1.7,1.1-1.7,2.3v5h-2.5v-5.1c0-1,0.1-2.2-1.5-2.2
			c-0.5,0-1.7,0.3-1.7,2.1v5.2h-2.5V129.9z"/>
		<path class="st3" d="M936.6,135c0.1,1.6,0.8,2.3,2.2,2.3c1,0,1.8-0.6,2-1.2h2.2c-0.7,2.1-2.2,3-4.2,3c-2.8,0-4.6-2-4.6-4.7
			c0-2.7,1.9-4.8,4.6-4.8c3.1,0,4.5,2.6,4.4,5.3H936.6z M940.7,133.4c-0.2-1.3-0.8-1.9-2-1.9c-1.6,0-2,1.2-2.1,1.9H940.7z"/>
	</g>
	<g>
		<path class="st3" d="M820.4,160.2h-2.5l-1.6-6h0l-1.5,6h-2.6l-2.9-9h2.6l1.7,6.1h0l1.5-6.1h2.4l1.5,6.1h0l1.7-6.1h2.5L820.4,160.2
			z"/>
		<path class="st3" d="M826.7,149.8h-2.5v-2h2.5V149.8z M824.2,151.2h2.5v9h-2.5V151.2z"/>
		<path class="st3" d="M831.6,151.2h1.8v1.7h-1.8v4.5c0,0.8,0.2,1,1,1c0.3,0,0.5,0,0.8-0.1v1.9c-0.4,0.1-1,0.1-1.4,0.1
			c-1.5,0-2.8-0.3-2.8-2.1v-5.3h-1.5v-1.7h1.5v-2.7h2.5V151.2z"/>
		<path class="st3" d="M834.4,147.8h2.5v4.7h0.1c0.6-1,1.7-1.5,2.6-1.5c2.6,0,3.3,1.5,3.3,3.7v5.5h-2.5v-5.1c0-1.5-0.4-2.2-1.6-2.2
			c-1.3,0-1.9,0.7-1.9,2.6v4.7h-2.5V147.8z"/>
		<path class="st3" d="M849.2,151.2h2.4v1.1h0c0.6-1,1.6-1.4,2.7-1.4c2.8,0,4.1,2.3,4.1,4.8c0,2.4-1.3,4.7-4,4.7
			c-1.1,0-2.1-0.5-2.7-1.4h0v4.3h-2.5V151.2z M855.9,155.7c0-1.4-0.6-2.9-2.2-2.9c-1.6,0-2.1,1.4-2.1,2.9c0,1.5,0.6,2.9,2.2,2.9
			C855.4,158.6,855.9,157.2,855.9,155.7z"/>
		<path class="st3" d="M862.3,149.8h-2.5v-2h2.5V149.8z M859.8,151.2h2.5v9h-2.5V151.2z"/>
		<path class="st3" d="M864,151.2h2.4v1.1h0c0.6-1,1.6-1.4,2.7-1.4c2.8,0,4.1,2.3,4.1,4.8c0,2.4-1.3,4.7-4,4.7
			c-1.1,0-2.1-0.5-2.7-1.4h0v4.3H864V151.2z M870.7,155.7c0-1.4-0.6-2.9-2.2-2.9c-1.6,0-2.1,1.4-2.1,2.9c0,1.5,0.6,2.9,2.2,2.9
			C870.2,158.6,870.7,157.2,870.7,155.7z"/>
		<path class="st3" d="M876.6,156.3c0.1,1.6,0.8,2.3,2.2,2.3c1,0,1.8-0.6,2-1.2h2.2c-0.7,2.1-2.2,3-4.2,3c-2.8,0-4.6-2-4.6-4.7
			c0-2.7,1.9-4.8,4.6-4.8c3.1,0,4.5,2.6,4.4,5.3H876.6z M880.6,154.7c-0.2-1.3-0.8-1.9-2-1.9c-1.6,0-2,1.2-2.1,1.9H880.6z"/>
		<path class="st3" d="M884.4,147.8h2.5v12.4h-2.5V147.8z"/>
		<path class="st3" d="M891.2,149.8h-2.5v-2h2.5V149.8z M888.7,151.2h2.5v9h-2.5V151.2z"/>
		<path class="st3" d="M893,151.2h2.4v1.3h0.1c0.6-1,1.7-1.5,2.8-1.5c2.6,0,3.3,1.5,3.3,3.7v5.5H899v-5.1c0-1.5-0.4-2.2-1.6-2.2
			c-1.3,0-1.9,0.7-1.9,2.6v4.7H893V151.2z"/>
		<path class="st3" d="M905.2,156.3c0.1,1.6,0.8,2.3,2.2,2.3c1,0,1.8-0.6,2-1.2h2.2c-0.7,2.1-2.2,3-4.2,3c-2.8,0-4.6-2-4.6-4.7
			c0-2.7,1.9-4.8,4.6-4.8c3.1,0,4.5,2.6,4.4,5.3H905.2z M909.2,154.7c-0.2-1.3-0.8-1.9-2-1.9c-1.6,0-2,1.2-2.1,1.9H909.2z"/>
	</g>
	<g>
		<path class="st3" d="M810.1,172.5h2.4v1.1h0c0.6-1,1.6-1.4,2.7-1.4c2.8,0,4.1,2.3,4.1,4.8c0,2.4-1.3,4.7-4,4.7
			c-1.1,0-2.1-0.5-2.7-1.4h0v4.3h-2.5V172.5z M816.8,177c0-1.4-0.6-2.9-2.2-2.9c-1.6,0-2.1,1.4-2.1,2.9c0,1.5,0.6,2.9,2.2,2.9
			C816.3,179.9,816.8,178.5,816.8,177z"/>
		<path class="st3" d="M825,172.3c2.8,0,4.7,1.9,4.7,4.8c0,2.9-1.8,4.7-4.7,4.7c-2.8,0-4.7-1.9-4.7-4.7
			C820.3,174.1,822.1,172.3,825,172.3z M825,179.9c1.7,0,2.2-1.4,2.2-2.9c0-1.4-0.5-2.9-2.2-2.9c-1.7,0-2.2,1.4-2.2,2.9
			C822.8,178.4,823.3,179.9,825,179.9z"/>
		<path class="st3" d="M834.2,172.5h1.8v1.7h-1.8v4.5c0,0.8,0.2,1,1,1c0.3,0,0.5,0,0.8-0.1v1.9c-0.4,0.1-1,0.1-1.4,0.1
			c-1.5,0-2.8-0.3-2.8-2.1v-5.3h-1.5v-1.7h1.5v-2.7h2.5V172.5z"/>
		<path class="st3" d="M839.1,177.6c0.1,1.6,0.8,2.3,2.2,2.3c1,0,1.8-0.6,2-1.2h2.2c-0.7,2.1-2.2,3-4.2,3c-2.8,0-4.6-2-4.6-4.7
			c0-2.7,1.9-4.8,4.6-4.8c3.1,0,4.5,2.6,4.4,5.3H839.1z M843.1,176c-0.2-1.3-0.8-1.9-2-1.9c-1.6,0-2,1.2-2.1,1.9H843.1z"/>
		<path class="st3" d="M846.9,172.5h2.4v1.3h0.1c0.6-1,1.7-1.5,2.8-1.5c2.6,0,3.3,1.5,3.3,3.7v5.5h-2.5v-5.1c0-1.5-0.4-2.2-1.6-2.2
			c-1.3,0-1.9,0.7-1.9,2.6v4.7h-2.5V172.5z"/>
		<path class="st3" d="M860.2,172.5h1.8v1.7h-1.8v4.5c0,0.8,0.2,1,1,1c0.3,0,0.5,0,0.8-0.1v1.9c-0.4,0.1-1,0.1-1.4,0.1
			c-1.5,0-2.8-0.3-2.8-2.1v-5.3h-1.5v-1.7h1.5v-2.7h2.5V172.5z"/>
		<path class="st3" d="M865.5,171.1H863v-2h2.5V171.1z M863,172.5h2.5v9H863V172.5z"/>
		<path class="st3" d="M867.2,175.3c0.1-2.3,2.2-3,4.2-3c1.8,0,4,0.4,4,2.6v4.7c0,0.8,0.1,1.6,0.3,2h-2.5c-0.1-0.3-0.2-0.6-0.2-0.9
			c-0.8,0.8-1.9,1.1-3,1.1c-1.7,0-3.1-0.9-3.1-2.7c0-2,1.5-2.5,3.1-2.7c1.5-0.2,2.9-0.2,2.9-1.2c0-1.1-0.7-1.2-1.6-1.2
			c-0.9,0-1.6,0.4-1.6,1.4H867.2z M872.9,177.1c-0.4,0.4-1.3,0.4-2.1,0.5c-0.8,0.2-1.5,0.4-1.5,1.3c0,0.9,0.7,1.1,1.5,1.1
			c1.9,0,2-1.5,2-2.1V177.1z"/>
		<path class="st3" d="M877.2,169.1h2.5v12.4h-2.5V169.1z"/>
	</g>
	<path class="st13" d="M709.8,174l83.9-0.1 M709.9,174l-0.1-73.2"/>
	<path class="st14" d="M719.3,156.4l32.7-0.1 M744,163.9l8.1-7.5l-8.1-7.5 M719.3,136.6l53.4-0.1 M764.7,144l8.1-7.5l-8.1-7.5"/>
	<path class="st15" d="M719.3,116.8l68.6-0.1 M779.8,124.2l8.1-7.5l-8.1-7.5"/>
</g>
</svg>
