<?xml version="1.0" encoding="UTF-8"?>
<svg width="200px" height="200px" viewBox="0 0 200 200" version="1.1" xmlns="http://www.w3.org/2000/svg" xmlns:xlink="http://www.w3.org/1999/xlink">
    <title>goal-3</title>
    <g id="4.0-—-Sustainability" stroke="none" stroke-width="1" fill="none" fill-rule="evenodd">
        <g id="4.2-—-Our-approach-to-reporting" transform="translate(-188.000000, -2375.000000)" fill-rule="nonzero">
            <g id="Intro" transform="translate(0.000000, 2375.000000)">
                <g id="goal-3" transform="translate(188.000000, 0.000000)">
                    <polygon id="Path" fill="#4C9F38" points="-7.06568289e-14 0 200 0 200 200 -7.06568289e-14 200"></polygon>
                    <path d="M28.464885,57.6755749 C35.3014295,57.6755749 38.2846489,54.0708515 38.2846489,48.4773151 L38.2846489,42.5108763 C38.2846489,38.7818521 36.6687383,36.4201367 33.3126165,35.6743319 C36.0472343,34.8042262 37.9117464,32.5668117 37.9117464,29.0863891 L37.9117464,25.6059664 C37.9117464,19.8881293 35.1771287,16.4077067 28.9620883,16.4077067 C22.001243,16.4077067 19.5152268,20.5096333 19.5152268,26.4760721 L19.5152268,30.0807955 L25.7302672,30.0807955 L25.7302672,25.9788689 C25.7302672,23.4928527 26.4760721,22.001243 28.5891858,22.001243 C30.7022996,22.001243 31.4481044,23.3685519 31.4481044,25.6059664 L31.4481044,29.9564947 C31.4481044,32.0696085 30.0807955,33.1883157 27.843381,33.1883157 L25.233064,33.1883157 L25.233064,38.4089497 L28.0919826,38.4089497 C30.4536979,38.4089497 31.4481044,39.5276569 31.4481044,41.6407707 L31.4481044,48.3530143 C31.4481044,50.466128 30.4536979,51.9577377 28.464885,51.9577377 C26.1031697,51.9577377 25.3573648,50.466128 25.3573648,47.9801119 L25.3573648,42.2622747 L19.1423244,42.2622747 L19.1423244,47.6072094 C19.1423244,53.697949 21.6283406,57.6755749 28.464885,57.6755749" id="Path" fill="#FFFFFF"></path>
                    <g id="Group" transform="translate(32.939714, 75.186071)" fill="#FFFFFF">
                        <path d="M134.120572,49.8605414 C134.120572,44.267005 130.515848,39.6678752 125.046613,39.6678752 C122.311995,39.6678752 118.955873,42.6510945 117.215662,44.5156067 C115.475451,42.6510945 112.36793,39.6678752 109.633313,39.6678752 C104.164077,39.6678752 100.310752,44.267005 100.310752,49.8605414 C100.310752,52.71946 101.429459,55.2054761 103.169671,57.0699883 L117.215662,71.1159796 L131.261653,57.0699883 C133.001865,55.2054761 134.120572,52.71946 134.120572,49.8605414 L134.120572,49.8605414 Z" id="Path"></path>
                        <path d="M74.456184,93.9873282 C73.2131759,93.8630274 72.3430702,93.1172226 72.2187694,92.1228161 L65.1336234,50.6063463 L54.3194531,70.6187763 C53.8222498,71.488882 52.8278434,71.9860852 51.8334369,71.7374836 C50.8390305,71.6131828 50.0932256,70.7430771 49.9689248,69.7486707 L45.3697949,37.6790622 L37.0416408,56.4484842 C36.6687383,57.3185899 35.7986327,57.8157931 34.928527,57.8157931 L2.36171535,57.8157931 C1.11870727,57.8157931 0,56.8213867 0,55.4540778 C0,54.2110697 0.994406464,53.0923624 2.36171535,53.0923624 L33.4369173,53.0923624 L44.4996892,28.3565016 C44.8725917,27.3620952 45.8669981,26.8648919 46.8614046,26.9891927 C47.8558111,27.1134936 48.7259167,27.9835992 48.8502175,28.9780057 L53.5736482,62.0420206 L64.2635177,42.2781921 C64.7607209,41.4080865 65.6308266,40.9108832 66.6252331,41.1594849 C67.6196395,41.2837857 68.3654444,42.0295905 68.4897452,43.023997 L75.077688,81.4329466 L99.0677439,1.63182792 C99.3163456,0.761722265 100.186451,0.015917417 101.056557,0.015917417 C102.050963,-0.108383391 102.921069,0.513120649 103.293971,1.2589255 L115.972654,27.486396 C116.469857,28.6051032 116.096955,29.9724121 114.853947,30.5939162 C113.735239,31.0911194 112.36793,30.718217 111.746426,29.4752089 L101.678061,8.59267317 L76.5692977,92.1228161 C76.3206961,93.3658242 75.4505904,93.9873282 74.456184,93.9873282 L74.456184,93.9873282 Z" id="Path"></path>
                    </g>
                    <path d="M61.2802983,24.3629584 L65.1336234,24.3629584 L65.1336234,33.0640149 L63.1448104,33.0640149 L63.1448104,31.3238036 C62.771908,32.5668117 62.0261032,33.3126165 60.5344935,33.3126165 C58.1727781,33.3126165 57.0540709,31.4481044 57.0540709,28.9620883 L57.0540709,21.0068365 C57.0540709,18.3965196 58.2970789,16.6563083 61.1559975,16.6563083 C64.1392169,16.6563083 65.1336234,18.3965196 65.1336234,20.7582349 L65.1336234,22.2498446 L62.6476072,22.2498446 L62.6476072,20.6339341 C62.6476072,19.6395277 62.2747048,19.0180236 61.2802983,19.0180236 C60.2858919,19.0180236 59.9129894,19.7638285 59.9129894,20.7582349 L59.9129894,29.5835923 C59.9129894,30.5779988 60.2858919,31.3238036 61.2802983,31.3238036 C62.150404,31.3238036 62.6476072,30.8266004 62.6476072,29.7078931 L62.6476072,26.8489745 L61.4045991,26.8489745 L61.4045991,24.3629584 L61.2802983,24.3629584 L61.2802983,24.3629584 Z M66.9981355,28.9620883 L66.9981355,21.0068365 C66.9981355,18.3965196 68.2411436,16.6563083 71.1000622,16.6563083 C73.9589807,16.6563083 75.3262896,18.5208204 75.3262896,21.0068365 L75.3262896,28.9620883 C75.3262896,31.4481044 74.0832815,33.3126165 71.1000622,33.3126165 C68.2411436,33.3126165 66.9981355,31.4481044 66.9981355,28.9620883 Z M72.5916718,29.3349907 L72.5916718,20.5096333 C72.5916718,19.5152268 72.2187694,18.769422 71.224363,18.769422 C70.2299565,18.769422 69.8570541,19.5152268 69.8570541,20.5096333 L69.8570541,29.3349907 C69.8570541,30.3293971 70.2299565,31.075202 71.224363,31.075202 C72.0944686,31.075202 72.5916718,30.3293971 72.5916718,29.3349907 Z M77.0665009,28.9620883 L77.0665009,21.0068365 C77.0665009,18.3965196 78.309509,16.6563083 81.1684276,16.6563083 C84.0273462,16.6563083 85.3946551,18.5208204 85.3946551,21.0068365 L85.3946551,28.9620883 C85.3946551,31.4481044 84.151647,33.3126165 81.1684276,33.3126165 C78.309509,33.3126165 77.0665009,31.4481044 77.0665009,28.9620883 Z M82.6600373,29.3349907 L82.6600373,20.5096333 C82.6600373,19.5152268 82.2871349,18.769422 81.2927284,18.769422 C80.2983219,18.769422 79.9254195,19.5152268 79.9254195,20.5096333 L79.9254195,29.3349907 C79.9254195,30.3293971 80.2983219,31.075202 81.2927284,31.075202 C82.2871349,31.075202 82.6600373,30.3293971 82.6600373,29.3349907 Z M95.4630205,21.1311374 L95.4630205,28.7134866 C95.4630205,31.1995028 94.468614,33.0640149 91.4853947,33.0640149 L87.2591672,33.0640149 L87.2591672,16.7806091 L91.4853947,16.7806091 C94.3443132,16.7806091 95.4630205,18.6451212 95.4630205,21.1311374 Z M91.1124922,30.8266004 C92.2311995,30.8266004 92.7284027,30.2050963 92.7284027,29.2106899 L92.7284027,20.6339341 C92.7284027,19.6395277 92.3555003,19.0180236 91.1124922,19.0180236 L89.993785,19.0180236 L89.993785,30.8266004 L91.1124922,30.8266004 L91.1124922,30.8266004 Z M106.401492,25.9788689 L103.791175,25.9788689 L103.791175,33.1883157 L101.056557,33.1883157 L101.056557,16.9049099 L103.791175,16.9049099 L103.791175,23.8657551 L106.401492,23.8657551 L106.401492,16.9049099 L109.136109,16.9049099 L109.136109,33.1883157 L106.401492,33.1883157 L106.401492,25.9788689 Z M111.124922,16.7806091 L117.712865,16.7806091 L117.712865,19.0180236 L113.85954,19.0180236 L113.85954,23.7414543 L116.594158,23.7414543 L116.594158,25.9788689 L113.85954,25.9788689 L113.85954,30.9509012 L117.712865,30.9509012 L117.712865,33.1883157 L111.124922,33.1883157 L111.124922,16.7806091 L111.124922,16.7806091 Z M118.955873,33.1883157 L122.063393,16.9049099 L125.170914,16.9049099 L128.278434,33.1883157 L125.419515,33.1883157 L124.922312,30.2050963 L122.063393,30.2050963 L121.56619,33.1883157 L118.955873,33.1883157 L118.955873,33.1883157 Z M122.436296,27.9676818 L124.67371,27.9676818 L123.555003,21.379739 L122.436296,27.9676818 Z M129.645743,16.7806091 L132.38036,16.7806091 L132.38036,30.8266004 L135.612181,30.8266004 L135.612181,33.0640149 L129.645743,33.0640149 L129.645743,16.7806091 L129.645743,16.7806091 Z M135.239279,16.7806091 L142.573027,16.7806091 L142.573027,19.0180236 L140.335612,19.0180236 L140.335612,33.0640149 L137.600994,33.0640149 L137.600994,19.0180236 L135.36358,19.0180236 L135.36358,16.7806091 L135.239279,16.7806091 Z M149.533872,25.9788689 L146.923555,25.9788689 L146.923555,33.1883157 L144.188937,33.1883157 L144.188937,16.9049099 L146.923555,16.9049099 L146.923555,23.8657551 L149.533872,23.8657551 L149.533872,16.9049099 L152.26849,16.9049099 L152.26849,33.1883157 L149.533872,33.1883157 L149.533872,25.9788689 Z" id="Shape" fill="#FFFFFF"></path>
                    <path d="M56.6811684,57.0540709 L59.7886886,40.770665 L62.8962088,40.770665 L66.003729,57.0540709 L63.1448104,57.0540709 L62.6476072,54.0708515 L59.7886886,54.0708515 L59.2914854,57.0540709 L56.6811684,57.0540709 Z M60.1615911,51.9577377 L62.3990056,51.9577377 L61.2802983,45.3697949 L60.1615911,51.9577377 L60.1615911,51.9577377 Z M69.4841516,46.8614046 L69.4841516,57.1783717 L67.1224363,57.1783717 L67.1224363,40.8949658 L69.8570541,40.8949658 L72.8402735,50.2175264 L72.8402735,40.8949658 L75.077688,40.8949658 L75.077688,57.1783717 L72.7159727,57.1783717 L69.4841516,46.8614046 Z M85.2703543,45.1211933 L85.2703543,52.7035426 C85.2703543,55.1895587 84.2759478,57.0540709 81.2927284,57.0540709 L77.0665009,57.0540709 L77.0665009,40.770665 L81.2927284,40.770665 C84.2759478,40.770665 85.2703543,42.6351771 85.2703543,45.1211933 Z M80.919826,54.8166563 C82.0385333,54.8166563 82.5357365,54.1951523 82.5357365,53.2007458 L82.5357365,44.6239901 C82.5357365,43.6295836 82.1628341,43.0080796 80.919826,43.0080796 L79.8011187,43.0080796 L79.8011187,54.8166563 L80.919826,54.8166563 L80.919826,54.8166563 Z M95.8359229,46.9857054 L94.3443132,57.0540709 L91.7339963,57.0540709 L89.4965817,40.770665 L92.1068987,40.770665 L93.3499068,51.0876321 L94.7172157,40.770665 L96.9546302,40.770665 L98.4462399,51.0876321 L99.689248,40.770665 L102.050963,40.770665 L99.9378496,57.0540709 L97.3275326,57.0540709 L95.8359229,46.9857054 L95.8359229,46.9857054 Z M103.542573,40.770665 L110.130516,40.770665 L110.130516,43.0080796 L106.277191,43.0080796 L106.277191,47.7315103 L109.011809,47.7315103 L109.011809,49.9689248 L106.277191,49.9689248 L106.277191,54.9409571 L110.130516,54.9409571 L110.130516,57.1783717 L103.542573,57.1783717 L103.542573,40.770665 L103.542573,40.770665 Z M111.870727,40.770665 L114.605345,40.770665 L114.605345,54.8166563 L117.837166,54.8166563 L117.837166,57.0540709 L111.870727,57.0540709 L111.870727,40.770665 L111.870727,40.770665 Z M119.328776,40.770665 L122.063393,40.770665 L122.063393,54.8166563 L125.295214,54.8166563 L125.295214,57.0540709 L119.328776,57.0540709 L119.328776,40.770665 L119.328776,40.770665 Z M125.046613,47.4829086 L128.899938,47.4829086 L128.899938,49.7203232 L125.046613,49.7203232 L125.046613,47.4829086 Z M130.515848,40.770665 L134.493474,40.770665 C137.228092,40.770665 138.098198,42.0136731 138.098198,44.3753884 L138.098198,45.9912989 C138.098198,47.3586078 137.600994,48.2287135 136.482287,48.6016159 C137.849596,48.9745183 138.4711,49.844624 138.4711,51.3362337 L138.4711,53.4493474 C138.4711,55.8110628 137.476694,57.0540709 134.742076,57.0540709 L130.515848,57.0540709 L130.515848,40.770665 L130.515848,40.770665 Z M133.250466,47.6072094 L134.244873,47.6072094 C135.114978,47.6072094 135.487881,47.1100062 135.487881,46.2399006 L135.487881,44.2510876 C135.487881,43.380982 135.114978,42.8837787 134.120572,42.8837787 L133.126165,42.8837787 L133.250466,47.6072094 L133.250466,47.6072094 Z M133.250466,49.7203232 L133.250466,54.8166563 L134.493474,54.8166563 C135.36358,54.8166563 135.860783,54.3194531 135.860783,53.4493474 L135.860783,50.9633313 C135.860783,50.0932256 135.487881,49.5960224 134.493474,49.5960224 L133.250466,49.5960224 L133.250466,49.7203232 Z M140.211311,40.770665 L146.799254,40.770665 L146.799254,43.0080796 L142.945929,43.0080796 L142.945929,47.7315103 L145.680547,47.7315103 L145.680547,49.9689248 L142.945929,49.9689248 L142.945929,54.9409571 L146.799254,54.9409571 L146.799254,57.1783717 L140.211311,57.1783717 L140.211311,40.770665 L140.211311,40.770665 Z M148.415165,40.770665 L151.149782,40.770665 L151.149782,57.0540709 L148.415165,57.0540709 L148.415165,40.770665 Z M155.500311,46.8614046 L155.500311,57.1783717 L153.138595,57.1783717 L153.138595,40.8949658 L155.873213,40.8949658 L158.856433,50.2175264 L158.856433,40.8949658 L161.093847,40.8949658 L161.093847,57.1783717 L158.732132,57.1783717 L155.500311,46.8614046 Z M167.184587,48.3530143 L171.037912,48.3530143 L171.037912,57.0540709 L169.049099,57.0540709 L169.049099,55.3138595 C168.676196,56.5568676 167.930392,57.3026725 166.438782,57.3026725 C164.077067,57.3026725 162.958359,55.4381603 162.958359,52.9521442 L162.958359,44.9968925 C162.958359,42.3865755 164.201367,40.6463642 167.060286,40.6463642 C170.043505,40.6463642 171.037912,42.3865755 171.037912,44.7482909 L171.037912,46.2399006 L168.551896,46.2399006 L168.551896,44.6239901 C168.551896,43.6295836 168.178993,43.0080796 167.184587,43.0080796 C166.19018,43.0080796 165.817278,43.7538844 165.817278,44.7482909 L165.817278,53.5736482 C165.817278,54.5680547 166.19018,55.3138595 167.184587,55.3138595 C168.054692,55.3138595 168.551896,54.8166563 168.551896,53.697949 L168.551896,50.8390305 L167.308888,50.8390305 L167.308888,48.3530143 L167.184587,48.3530143 L167.184587,48.3530143 Z" id="Shape" fill="#FFFFFF"></path>
                </g>
            </g>
        </g>
    </g>
</svg>