<?xml version="1.0" encoding="UTF-8"?>
<svg width="200px" height="200px" viewBox="0 0 200 200" version="1.1" xmlns="http://www.w3.org/2000/svg" xmlns:xlink="http://www.w3.org/1999/xlink">
    <title>goal-8</title>
    <g id="4.0-—-Sustainability" stroke="none" stroke-width="1" fill="none" fill-rule="evenodd">
        <g id="4.2-—-Our-approach-to-reporting" transform="translate(-188.000000, -3270.000000)" fill-rule="nonzero">
            <g id="Intro" transform="translate(0.000000, 3270.000000)">
                <g id="goal-8" transform="translate(188.000000, 0.000000)">
                    <polygon id="Path" fill="#A21942" points="0 0 200 0 200 200 0 200"></polygon>
                    <path d="M38.9061529,47.234307 L38.9061529,42.7594779 C38.9061529,38.9061529 37.538844,36.0472343 34.4313238,34.6799254 C37.1659416,33.3126165 38.4089497,30.9509012 38.4089497,27.7190802 L38.4089497,26.1031697 C38.4089497,19.7638285 35.1771287,16.4077067 28.8377874,16.4077067 C22.622747,16.4077067 19.390926,19.7638285 19.390926,26.1031697 L19.390926,27.7190802 C19.390926,30.9509012 20.6339341,33.4369173 23.2442511,34.6799254 C20.1367309,36.0472343 18.769422,38.9061529 18.769422,42.7594779 L18.769422,47.1100062 C18.769422,53.2007458 21.6283406,57.5512741 28.8377874,57.5512741 C35.9229335,57.6755749 38.9061529,53.3250466 38.9061529,47.234307 M25.7302672,25.6059664 C25.7302672,23.1199503 26.6003729,21.7526414 28.7134866,21.7526414 C30.9509012,21.7526414 31.8210068,23.1199503 31.8210068,25.6059664 L31.8210068,28.3405842 C31.8210068,30.8266004 30.9509012,32.1939093 28.7134866,32.1939093 C26.4760721,32.1939093 25.7302672,30.7022996 25.7302672,28.3405842 L25.7302672,25.6059664 Z M32.0696085,47.9801119 C32.0696085,50.466128 31.1995028,52.2063393 28.7134866,52.2063393 C26.3517713,52.2063393 25.4816656,50.466128 25.4816656,47.9801119 L25.4816656,41.392169 C25.4816656,38.9061529 26.3517713,37.2902424 28.7134866,37.2902424 C31.1995028,37.2902424 32.0696085,39.0304537 32.0696085,41.392169 L32.0696085,47.9801119 Z" id="Shape" fill="#FFFFFF"></path>
                    <g id="Group" transform="translate(52.237415, 74.331883)" fill="#FFFFFF">
                        <path d="M86.6065879,24.1143567 L66.2212554,43.5052828 C65.4754506,44.2510876 65.1025482,44.8725917 65.1025482,46.3642014 L65.1025482,100.559354 C65.1025482,101.180858 65.5997514,101.678061 66.2212554,101.678061 L87.228092,101.678061 C87.849596,101.678061 88.3467993,101.180858 88.3467993,100.559354 L88.3467993,24.61156 C88.4711001,23.8657551 87.9738968,22.7470479 86.6065879,24.1143567 M28.0609074,49.22312 L7.67557489,68.614046 C6.92977004,69.3598508 6.55686762,69.9813549 6.55686762,71.4729646 L6.55686762,100.435053 C6.55686762,101.056557 7.05407085,101.55376 7.67557489,101.55376 L28.6824114,101.55376 C29.3039155,101.55376 29.8011187,101.056557 29.8011187,100.435053 L29.8011187,49.7203232 C29.9254195,49.0988191 29.4282163,47.9801119 28.0609074,49.22312" id="Shape"></path>
                        <path d="M95.9291485,0.62150404 C95.9291485,0.497203232 95.9291485,0.248601616 95.8048477,0.124300808 C95.6805469,0 95.5562461,0 95.4319453,0 L95.1833437,0 L79.6457427,3.48042262 L79.3971411,3.48042262 C79.2728403,3.48042262 79.1485395,3.60472343 79.1485395,3.60472343 C78.8999378,3.85332505 78.8999378,4.22622747 79.1485395,4.47482909 L79.2728403,4.59912989 L82.8775637,8.20385333 L47.5761342,43.5052828 L31.2927284,27.2218769 C31.1684276,27.0975761 30.7955252,27.0975761 30.6712244,27.2218769 L26.1963953,31.696706 L0.093225606,57.7998757 C-0.031075202,57.9241765 -0.031075202,58.2970789 0.093225606,58.4213797 L4.56805469,62.8962088 C4.6923555,63.0205096 5.06525792,63.0205096 5.18955873,62.8962088 L31.0441268,37.1659416 L42.8527035,48.9745183 L47.3275326,53.4493474 C47.4518334,53.5736482 47.8247359,53.5736482 47.9490367,53.4493474 L87.9738968,13.4244873 L91.7029211,17.1535115 C91.9515227,17.4021131 92.3244251,17.4021131 92.5730267,17.1535115 C92.6973275,17.0292107 92.6973275,16.9049099 92.6973275,16.7806091 L96.1777502,0.870105656 L95.9291485,0.62150404 L95.9291485,0.62150404 Z" id="Path"></path>
                        <path d="M57.5201989,52.7035426 L47.7004351,62.6476072 C47.4518334,62.771908 47.2032318,62.771908 47.078931,62.6476072 L38.1292728,53.5736482 C36.5133623,51.9577377 36.1404599,53.3250466 36.1404599,53.9465507 L36.1404599,100.683654 C36.1404599,101.305158 36.6376631,101.802362 37.2591672,101.802362 L58.2660037,101.802362 C58.8875078,101.802362 59.384711,101.305158 59.384711,100.683654 L59.384711,53.2007458 C59.384711,52.3306401 58.8875078,51.2119329 57.5201989,52.7035426" id="Path"></path>
                    </g>
                    <path d="M62.0261032,21.1311374 L62.0261032,28.7134866 C62.0261032,31.1995028 61.0316967,33.0640149 58.0484773,33.0640149 L53.8222498,33.0640149 L53.8222498,16.7806091 L58.0484773,16.7806091 C61.0316967,16.7806091 62.0261032,18.6451212 62.0261032,21.1311374 Z M57.6755749,30.8266004 C58.7942822,30.8266004 59.2914854,30.2050963 59.2914854,29.2106899 L59.2914854,20.6339341 C59.2914854,19.6395277 58.918583,19.0180236 57.6755749,19.0180236 L56.5568676,19.0180236 L56.5568676,30.8266004 L57.6755749,30.8266004 Z M63.7663145,16.7806091 L70.3542573,16.7806091 L70.3542573,19.0180236 L66.5009323,19.0180236 L66.5009323,23.7414543 L69.23555,23.7414543 L69.23555,25.9788689 L66.5009323,25.9788689 L66.5009323,30.9509012 L70.3542573,30.9509012 L70.3542573,33.1883157 L63.7663145,33.1883157 L63.7663145,16.7806091 L63.7663145,16.7806091 Z M71.7215662,28.8377874 L71.7215662,20.8825357 C71.7215662,18.2722188 72.9645743,16.5320075 75.8234929,16.5320075 C78.8067122,16.5320075 79.6768179,18.2722188 79.6768179,20.6339341 L79.6768179,22.622747 L77.1908017,22.622747 L77.1908017,20.3853325 C77.1908017,19.390926 76.8178993,18.769422 75.8234929,18.769422 C74.8290864,18.769422 74.456184,19.5152268 74.456184,20.5096333 L74.456184,29.3349907 C74.456184,30.3293971 74.8290864,31.075202 75.8234929,31.075202 C76.8178993,31.075202 77.1908017,30.4536979 77.1908017,29.4592915 L77.1908017,26.4760721 L79.6768179,26.4760721 L79.6768179,29.3349907 C79.6768179,31.696706 78.6824114,33.4369173 75.8234929,33.4369173 C72.9645743,33.3126165 71.7215662,31.3238036 71.7215662,28.8377874 Z M81.4170292,16.7806091 L88.004972,16.7806091 L88.004972,19.0180236 L84.151647,19.0180236 L84.151647,23.7414543 L86.8862648,23.7414543 L86.8862648,25.9788689 L84.151647,25.9788689 L84.151647,30.9509012 L88.004972,30.9509012 L88.004972,33.1883157 L81.4170292,33.1883157 L81.4170292,16.7806091 L81.4170292,16.7806091 Z M91.8582971,22.7470479 L91.8582971,33.0640149 L89.4965817,33.0640149 L89.4965817,16.7806091 L92.2311995,16.7806091 L95.2144189,26.1031697 L95.2144189,16.7806091 L97.4518334,16.7806091 L97.4518334,33.0640149 L95.0901181,33.0640149 L91.8582971,22.7470479 Z M98.9434431,16.7806091 L106.277191,16.7806091 L106.277191,19.0180236 L104.039776,19.0180236 L104.039776,33.0640149 L101.305158,33.0640149 L101.305158,19.0180236 L99.0677439,19.0180236 L99.0677439,16.7806091 L98.9434431,16.7806091 L98.9434431,16.7806091 Z M116.345556,22.9956495 L114.853947,33.0640149 L112.24363,33.0640149 L110.006215,16.7806091 L112.616532,16.7806091 L113.85954,27.0975761 L115.226849,16.7806091 L117.464264,16.7806091 L118.955873,27.0975761 L120.198881,16.7806091 L122.560597,16.7806091 L120.447483,33.0640149 L117.961467,33.0640149 L116.345556,22.9956495 Z M123.679304,28.8377874 L123.679304,20.8825357 C123.679304,18.2722188 124.922312,16.5320075 127.781231,16.5320075 C130.640149,16.5320075 132.007458,18.3965196 132.007458,20.8825357 L132.007458,28.8377874 C132.007458,31.3238036 130.76445,33.1883157 127.781231,33.1883157 C124.922312,33.3126165 123.679304,31.3238036 123.679304,28.8377874 Z M129.148539,29.3349907 L129.148539,20.5096333 C129.148539,19.5152268 128.775637,18.769422 127.781231,18.769422 C126.786824,18.769422 126.413922,19.5152268 126.413922,20.5096333 L126.413922,29.3349907 C126.413922,30.3293971 126.786824,31.075202 127.781231,31.075202 C128.775637,30.9509012 129.148539,30.3293971 129.148539,29.3349907 Z M136.482287,25.6059664 L136.482287,33.0640149 L133.747669,33.0640149 L133.747669,16.7806091 L137.725295,16.7806091 C140.459913,16.7806091 141.454319,18.147918 141.454319,20.3853325 L141.454319,22.4984462 C141.454319,24.2386576 140.832815,25.233064 139.216905,25.6059664 L141.827222,33.0640149 L138.968303,33.0640149 L136.482287,25.6059664 L136.482287,25.6059664 Z M136.482287,19.0180236 L136.482287,24.1143567 L137.352393,24.1143567 C138.346799,24.1143567 138.719702,23.6171535 138.719702,22.7470479 L138.719702,20.3853325 C138.719702,19.5152268 138.346799,19.0180236 137.352393,19.0180236 L136.482287,19.0180236 Z M145.929149,25.1087632 L145.929149,33.0640149 L143.194531,33.0640149 L143.194531,16.7806091 L145.929149,16.7806091 L145.929149,23.9900559 L148.912368,16.7806091 L151.646986,16.7806091 L148.415165,24.1143567 L151.646986,33.0640149 L148.788067,33.0640149 L145.929149,25.1087632 L145.929149,25.1087632 Z M155.500311,33.0640149 L158.607831,16.7806091 L161.715351,16.7806091 L164.822871,33.0640149 L161.963953,33.0640149 L161.46675,30.0807955 L158.607831,30.0807955 L158.110628,33.0640149 L155.500311,33.0640149 Z M158.980733,27.843381 L161.218148,27.843381 L160.099441,21.2554382 L158.980733,27.843381 L158.980733,27.843381 Z M168.054692,22.7470479 L168.054692,33.0640149 L165.692977,33.0640149 L165.692977,16.7806091 L168.427595,16.7806091 L171.410814,26.1031697 L171.410814,16.7806091 L173.648229,16.7806091 L173.648229,33.0640149 L171.286513,33.0640149 L168.054692,22.7470479 Z M183.716594,21.1311374 L183.716594,28.7134866 C183.716594,31.1995028 182.722188,33.0640149 179.738968,33.0640149 L175.512741,33.0640149 L175.512741,16.7806091 L179.738968,16.7806091 C182.722188,16.7806091 183.716594,18.6451212 183.716594,21.1311374 Z M179.366066,30.8266004 C180.484773,30.8266004 180.981976,30.2050963 180.981976,29.2106899 L180.981976,20.6339341 C180.981976,19.6395277 180.609074,19.0180236 179.366066,19.0180236 L178.247359,19.0180236 L178.247359,30.8266004 L179.366066,30.8266004 Z" id="Shape" fill="#FFFFFF"></path>
                    <path d="M53.8222498,40.770665 L60.4101927,40.770665 L60.4101927,43.0080796 L56.5568676,43.0080796 L56.5568676,47.7315103 L59.2914854,47.7315103 L59.2914854,49.9689248 L56.5568676,49.9689248 L56.5568676,54.9409571 L60.4101927,54.9409571 L60.4101927,57.1783717 L53.8222498,57.1783717 L53.8222498,40.770665 L53.8222498,40.770665 Z M61.5288999,52.8278434 L61.5288999,44.8725917 C61.5288999,42.2622747 62.771908,40.5220634 65.6308266,40.5220634 C68.614046,40.5220634 69.4841516,42.2622747 69.4841516,44.6239901 L69.4841516,46.612803 L66.9981355,46.612803 L66.9981355,44.4996892 C66.9981355,43.5052828 66.6252331,42.8837787 65.6308266,42.8837787 C64.6364201,42.8837787 64.2635177,43.6295836 64.2635177,44.6239901 L64.2635177,53.4493474 C64.2635177,54.4437539 64.6364201,55.1895587 65.6308266,55.1895587 C66.6252331,55.1895587 66.9981355,54.5680547 66.9981355,53.5736482 L66.9981355,50.5904288 L69.4841516,50.5904288 L69.4841516,53.4493474 C69.4841516,55.8110628 68.4897452,57.5512741 65.6308266,57.5512741 C62.771908,57.3026725 61.5288999,55.4381603 61.5288999,52.8278434 L61.5288999,52.8278434 Z M70.9757613,52.8278434 L70.9757613,44.8725917 C70.9757613,42.2622747 72.2187694,40.5220634 75.077688,40.5220634 C77.9366066,40.5220634 79.3039155,42.3865755 79.3039155,44.8725917 L79.3039155,52.8278434 C79.3039155,55.3138595 78.0609074,57.1783717 75.077688,57.1783717 C72.3430702,57.3026725 70.9757613,55.4381603 70.9757613,52.8278434 Z M76.5692977,53.3250466 L76.5692977,44.4996892 C76.5692977,43.5052828 76.1963953,42.7594779 75.2019888,42.7594779 C74.2075823,42.7594779 73.8346799,43.5052828 73.8346799,44.4996892 L73.8346799,53.3250466 C73.8346799,54.3194531 74.2075823,55.0652579 75.2019888,55.0652579 C76.1963953,54.9409571 76.5692977,54.3194531 76.5692977,53.3250466 Z M83.2815413,46.8614046 L83.2815413,57.1783717 L80.919826,57.1783717 L80.919826,40.8949658 L83.6544438,40.8949658 L86.6376631,50.2175264 L86.6376631,40.8949658 L88.8750777,40.8949658 L88.8750777,57.1783717 L86.5133623,57.1783717 L83.2815413,46.8614046 Z M90.4909882,52.8278434 L90.4909882,44.8725917 C90.4909882,42.2622747 91.7339963,40.5220634 94.5929149,40.5220634 C97.4518334,40.5220634 98.8191423,42.3865755 98.8191423,44.8725917 L98.8191423,52.8278434 C98.8191423,55.3138595 97.5761342,57.1783717 94.5929149,57.1783717 C91.7339963,57.3026725 90.4909882,55.4381603 90.4909882,52.8278434 Z M95.9602237,53.3250466 L95.9602237,44.4996892 C95.9602237,43.5052828 95.5873213,42.7594779 94.5929149,42.7594779 C93.5985084,42.7594779 93.225606,43.5052828 93.225606,44.4996892 L93.225606,53.3250466 C93.225606,54.3194531 93.5985084,55.0652579 94.5929149,55.0652579 C95.5873213,54.9409571 95.9602237,54.3194531 95.9602237,53.3250466 Z M107.893101,46.4885022 L105.904288,57.0540709 L104.66128,57.0540709 L102.672467,46.4885022 L102.672467,57.0540709 L100.435053,57.0540709 L100.435053,40.770665 L103.666874,40.770665 L105.407085,49.9689248 L107.022996,40.770665 L110.503418,40.770665 L110.503418,57.0540709 L108.017402,57.0540709 L107.893101,46.4885022 L107.893101,46.4885022 Z M111.995028,40.770665 L114.729646,40.770665 L114.729646,57.0540709 L111.995028,57.0540709 L111.995028,40.770665 Z M116.221255,52.8278434 L116.221255,44.8725917 C116.221255,42.2622747 117.464264,40.5220634 120.323182,40.5220634 C123.306401,40.5220634 124.176507,42.2622747 124.176507,44.6239901 L124.176507,46.612803 L121.690491,46.612803 L121.690491,44.4996892 C121.690491,43.5052828 121.317589,42.8837787 120.323182,42.8837787 C119.328776,42.8837787 118.955873,43.6295836 118.955873,44.6239901 L118.955873,53.4493474 C118.955873,54.4437539 119.328776,55.1895587 120.323182,55.1895587 C121.317589,55.1895587 121.690491,54.5680547 121.690491,53.5736482 L121.690491,50.5904288 L124.176507,50.5904288 L124.176507,53.4493474 C124.176507,55.8110628 123.182101,57.5512741 120.323182,57.5512741 C117.464264,57.3026725 116.221255,55.4381603 116.221255,52.8278434 L116.221255,52.8278434 Z M133.126165,48.3530143 L136.97949,48.3530143 L136.97949,57.0540709 L134.990677,57.0540709 L134.990677,55.3138595 C134.617775,56.5568676 133.87197,57.3026725 132.38036,57.3026725 C130.018645,57.3026725 128.899938,55.4381603 128.899938,52.9521442 L128.899938,44.9968925 C128.899938,42.3865755 130.142946,40.6463642 133.001865,40.6463642 C135.985084,40.6463642 136.97949,42.3865755 136.97949,44.7482909 L136.97949,46.2399006 L134.493474,46.2399006 L134.493474,44.6239901 C134.493474,43.6295836 134.120572,43.0080796 133.126165,43.0080796 C132.131759,43.0080796 131.758856,43.7538844 131.758856,44.7482909 L131.758856,53.5736482 C131.758856,54.5680547 132.131759,55.3138595 133.126165,55.3138595 C133.996271,55.3138595 134.493474,54.8166563 134.493474,53.697949 L134.493474,50.8390305 L133.250466,50.8390305 L133.250466,48.3530143 L133.126165,48.3530143 L133.126165,48.3530143 Z M141.57862,49.5960224 L141.57862,57.0540709 L138.844002,57.0540709 L138.844002,40.770665 L142.821628,40.770665 C145.556246,40.770665 146.550653,42.1379739 146.550653,44.3753884 L146.550653,46.4885022 C146.550653,48.2287135 145.929149,49.22312 144.313238,49.5960224 L146.923555,57.0540709 L144.064636,57.0540709 L141.57862,49.5960224 L141.57862,49.5960224 Z M141.57862,43.0080796 L141.57862,48.1044127 L142.448726,48.1044127 C143.443132,48.1044127 143.816035,47.6072094 143.816035,46.7371038 L143.816035,44.3753884 C143.816035,43.5052828 143.443132,43.0080796 142.448726,43.0080796 L141.57862,43.0080796 Z M147.793661,52.8278434 L147.793661,44.8725917 C147.793661,42.2622747 149.036669,40.5220634 151.895587,40.5220634 C154.754506,40.5220634 156.121815,42.3865755 156.121815,44.8725917 L156.121815,52.8278434 C156.121815,55.3138595 154.878807,57.1783717 151.895587,57.1783717 C149.036669,57.3026725 147.793661,55.4381603 147.793661,52.8278434 Z M153.387197,53.3250466 L153.387197,44.4996892 C153.387197,43.5052828 153.014295,42.7594779 152.019888,42.7594779 C151.025482,42.7594779 150.652579,43.5052828 150.652579,44.4996892 L150.652579,53.3250466 C150.652579,54.3194531 151.025482,55.0652579 152.019888,55.0652579 C153.014295,54.9409571 153.387197,54.3194531 153.387197,53.3250466 Z M163.206961,46.9857054 L161.715351,57.0540709 L159.105034,57.0540709 L156.86762,40.770665 L159.477937,40.770665 L160.720945,51.0876321 L162.088254,40.770665 L164.325668,40.770665 L165.817278,51.0876321 L167.060286,40.770665 L169.422001,40.770665 L167.308888,57.0540709 L164.698571,57.0540709 L163.206961,46.9857054 Z M170.416408,40.770665 L177.750155,40.770665 L177.750155,43.0080796 L175.512741,43.0080796 L175.512741,57.0540709 L172.653822,57.0540709 L172.653822,43.0080796 L170.416408,43.0080796 L170.416408,40.770665 Z M183.965196,49.844624 L181.354879,49.844624 L181.354879,57.0540709 L178.620261,57.0540709 L178.620261,40.770665 L181.354879,40.770665 L181.354879,47.7315103 L183.965196,47.7315103 L183.965196,40.770665 L186.699814,40.770665 L186.699814,57.0540709 L183.965196,57.0540709 L183.965196,49.844624 Z" id="Shape" fill="#FFFFFF"></path>
                </g>
            </g>
        </g>
    </g>
</svg>