<?xml version="1.0" encoding="UTF-8"?>
<svg width="200px" height="200px" viewBox="0 0 200 200" version="1.1" xmlns="http://www.w3.org/2000/svg" xmlns:xlink="http://www.w3.org/1999/xlink">
    <title>goal-9</title>
    <g id="4.0-—-Sustainability" stroke="none" stroke-width="1" fill="none" fill-rule="evenodd">
        <g id="4.2-—-Our-approach-to-reporting" transform="translate(-188.000000, -4190.000000)" fill-rule="nonzero">
            <g id="Intro" transform="translate(0.000000, 4190.000000)">
                <g id="goal-9" transform="translate(188.000000, 0.000000)">
                    <polygon id="Path" fill="#FD6925" points="-7.06568289e-14 3.53284145e-14 200 3.53284145e-14 200 200 -7.06568289e-14 200"></polygon>
                    <path d="M36.6687383,26.8489745 C36.6687383,20.6339341 33.9341206,16.0348042 26.8489745,16.0348042 C19.6395277,16.0348042 16.9049099,20.0124301 16.9049099,26.2274705 L16.9049099,32.1939093 C16.9049099,38.7818521 19.5152268,42.1379739 24.3629584,42.1379739 C27.2218769,42.1379739 28.9620883,40.770665 29.9564947,38.9061529 L29.9564947,47.6072094 C29.9564947,50.0932256 28.9620883,51.7091361 26.6003729,51.7091361 C24.1143567,51.7091361 23.2442511,50.3418272 23.2442511,47.7315103 L23.2442511,44.9968925 L17.0292107,44.9968925 L17.0292107,47.1100062 C17.0292107,53.076445 19.1423244,57.1783717 26.7246737,57.1783717 C33.8098198,57.1783717 36.6687383,52.5792418 36.6687383,46.2399006 L36.6687383,26.8489745 L36.6687383,26.8489745 Z M29.9564947,33.0640149 C29.8321939,35.3014295 28.8377874,36.7930392 26.7246737,36.7930392 C24.3629584,36.7930392 23.4928527,35.4257303 23.4928527,32.6911125 L23.4928527,25.7302672 C23.4928527,23.1199503 24.4872592,21.6283406 26.7246737,21.6283406 C28.9620883,21.6283406 29.8321939,23.1199503 29.8321939,25.7302672 L29.8321939,33.0640149 L29.9564947,33.0640149 L29.9564947,33.0640149 Z M150.031075,131.510255 L126.289621,117.837166 L126.289621,90.3666874 C126.289621,89.7451833 126.041019,89.2479801 125.419515,88.9993785 L100.807955,74.8290864 C100.310752,74.5804848 99.689248,74.5804848 99.1920447,74.8290864 L74.5804848,88.9993785 C74.0832815,89.2479801 73.7103791,89.8694842 73.7103791,90.3666874 L73.7103791,117.837166 L49.9689248,131.510255 C49.4717216,131.758856 49.0988191,132.38036 49.0988191,132.877564 L49.0988191,161.218148 C49.0988191,161.839652 49.3474208,162.336855 49.9689248,162.585457 L74.5804848,176.755749 C74.8290864,176.88005 75.077688,177.004351 75.4505904,177.004351 C75.699192,177.004351 76.0720945,176.88005 76.3206961,176.755749 L100.06215,163.08266 L123.803605,176.755749 C124.052206,176.88005 124.300808,177.004351 124.67371,177.004351 C125.046613,177.004351 125.295214,176.88005 125.543816,176.755749 L150.155376,162.585457 C150.652579,162.336855 151.025482,161.715351 151.025482,161.218148 L151.025482,132.877564 C150.77688,132.25606 150.528278,131.758856 150.031075,131.510255 L150.031075,131.510255 Z M98.3219391,158.48353 L78.5581106,147.047856 L98.3219391,135.612181 L98.3219391,158.48353 Z M121.317589,118.707272 L101.55376,130.142946 L101.55376,107.395898 L121.317589,118.707272 Z M98.3219391,130.018645 L78.5581106,118.582971 L98.3219391,107.147296 L98.3219391,130.018645 Z M103.293971,132.877564 L124.67371,120.571784 L146.053449,132.877564 L124.67371,145.183344 L103.293971,132.877564 Z M122.933499,115.848353 L103.169671,104.412679 L122.933499,92.9770044 L122.933499,115.848353 L122.933499,115.848353 Z M96.7060286,104.536979 L76.9422001,115.972654 L76.9422001,93.225606 L96.7060286,104.536979 Z M73.8346799,172.653822 L52.454941,160.348042 L52.454941,135.736482 L73.8346799,148.042262 L73.8346799,172.653822 Z M77.0665009,172.653822 L77.0665009,149.906774 L96.8303294,161.342449 L77.0665009,172.653822 L77.0665009,172.653822 Z M147.545059,160.348042 L126.16532,172.653822 L126.16532,148.042262 L147.545059,135.736482 L147.545059,160.348042 Z" id="Shape" fill="#FFFFFF"></path>
                    <path d="M47.234307,17.0292107 L49.844624,17.0292107 L49.844624,32.1939093 L47.234307,32.1939093 L47.234307,17.0292107 Z M53.4493474,22.7470479 L53.4493474,32.3182101 L51.3362337,32.3182101 L51.3362337,17.1535115 L53.8222498,17.1535115 L56.5568676,25.8545681 L56.5568676,17.1535115 L58.6699814,17.1535115 L58.6699814,32.3182101 L56.4325668,32.3182101 L53.4493474,22.7470479 Z M67.8682411,21.1311374 L67.8682411,28.2162834 C67.8682411,30.5779988 66.8738347,32.3182101 64.1392169,32.3182101 L60.1615911,32.3182101 L60.1615911,17.1535115 L64.1392169,17.1535115 C66.9981355,17.0292107 67.8682411,18.769422 67.8682411,21.1311374 Z M63.8906153,30.2050963 C64.8850218,30.2050963 65.382225,29.5835923 65.382225,28.7134866 L65.382225,20.7582349 C65.382225,19.8881293 65.0093226,19.2666252 63.8906153,19.2666252 L62.771908,19.2666252 L62.771908,30.3293971 L63.8906153,30.2050963 Z M76.9422001,17.0292107 L76.9422001,28.464885 C76.9422001,30.8266004 75.9477937,32.3182101 73.3374767,32.3182101 C70.6028589,32.3182101 69.4841516,30.8266004 69.4841516,28.464885 L69.4841516,17.0292107 L72.0944686,17.0292107 L72.0944686,28.7134866 C72.0944686,29.5835923 72.467371,30.2050963 73.3374767,30.2050963 C74.2075823,30.2050963 74.5804848,29.5835923 74.5804848,28.7134866 L74.5804848,17.0292107 L76.9422001,17.0292107 Z M78.309509,28.9620883 L78.309509,26.9732753 L80.6712244,26.9732753 L80.6712244,29.0863891 C80.6712244,29.9564947 81.0441268,30.4536979 81.9142324,30.4536979 C82.6600373,30.4536979 83.0329397,29.9564947 83.0329397,29.0863891 L83.0329397,28.464885 C83.0329397,27.5947794 82.6600373,27.0975761 81.9142324,26.3517713 L80.4226227,24.8601616 C78.9310131,23.3685519 78.309509,22.4984462 78.309509,20.7582349 L78.309509,20.2610317 C78.309509,18.3965196 79.4282163,16.9049099 81.9142324,16.9049099 C84.5245494,16.9049099 85.5189559,18.147918 85.5189559,20.3853325 L85.5189559,21.6283406 L83.1572405,21.6283406 L83.1572405,20.2610317 C83.1572405,19.390926 82.7843381,19.0180236 81.9142324,19.0180236 C81.1684276,19.0180236 80.6712244,19.390926 80.6712244,20.2610317 L80.6712244,20.6339341 C80.6712244,21.5040398 81.1684276,22.001243 81.9142324,22.7470479 L83.5301429,24.3629584 C84.8974518,25.7302672 85.6432567,26.6003729 85.6432567,28.3405842 L85.6432567,29.0863891 C85.6432567,31.1995028 84.5245494,32.6911125 81.9142324,32.6911125 C79.3039155,32.4425109 78.309509,30.9509012 78.309509,28.9620883 Z M86.2647607,17.0292107 L93.1013052,17.0292107 L93.1013052,19.1423244 L90.9881914,19.1423244 L90.9881914,32.1939093 L88.3778745,32.1939093 L88.3778745,19.1423244 L86.2647607,19.1423244 L86.2647607,17.0292107 L86.2647607,17.0292107 Z M96.8303294,25.233064 L96.8303294,32.1939093 L94.3443132,32.1939093 L94.3443132,17.0292107 L98.0733375,17.0292107 C100.683654,17.0292107 101.55376,18.2722188 101.55376,20.3853325 L101.55376,22.3741454 C101.55376,23.9900559 100.932256,24.9844624 99.5649472,25.3573648 L102.050963,32.1939093 L99.3163456,32.1939093 L96.8303294,25.233064 Z M96.8303294,19.1423244 L96.8303294,23.8657551 L97.7004351,23.8657551 C98.5705407,23.8657551 98.9434431,23.3685519 98.9434431,22.622747 L98.9434431,20.3853325 C98.9434431,19.5152268 98.5705407,19.1423244 97.7004351,19.1423244 L96.8303294,19.1423244 Z M107.520199,26.4760721 L107.520199,32.1939093 L104.909882,32.1939093 L104.909882,26.4760721 L102.050963,17.0292107 L104.66128,17.0292107 L106.15289,22.7470479 L107.6445,17.0292107 L110.130516,17.0292107 L107.520199,26.4760721 L107.520199,26.4760721 Z M112.865134,29.9564947 L111.622126,33.4369173 L110.130516,33.4369173 L110.503418,29.8321939 L112.865134,29.8321939 L112.865134,29.9564947 L112.865134,29.9564947 Z M116.96706,17.0292107 L119.577377,17.0292107 L119.577377,32.1939093 L116.96706,32.1939093 L116.96706,17.0292107 Z M123.182101,22.7470479 L123.182101,32.3182101 L121.068987,32.3182101 L121.068987,17.1535115 L123.555003,17.1535115 L126.289621,25.8545681 L126.289621,17.1535115 L128.402735,17.1535115 L128.402735,32.3182101 L126.16532,32.3182101 L123.182101,22.7470479 L123.182101,22.7470479 Z M132.131759,22.7470479 L132.131759,32.3182101 L130.018645,32.3182101 L130.018645,17.1535115 L132.504661,17.1535115 L135.239279,25.8545681 L135.239279,17.1535115 L137.352393,17.1535115 L137.352393,32.3182101 L135.114978,32.3182101 L132.131759,22.7470479 L132.131759,22.7470479 Z M138.968303,28.3405842 L138.968303,21.0068365 C138.968303,18.6451212 140.087011,16.9049099 142.821628,16.9049099 C145.556246,16.9049099 146.674953,18.6451212 146.674953,21.0068365 L146.674953,28.3405842 C146.674953,30.7022996 145.556246,32.4425109 142.821628,32.4425109 C140.087011,32.4425109 138.968303,30.7022996 138.968303,28.3405842 Z M144.188937,28.7134866 L144.188937,20.5096333 C144.188937,19.6395277 143.816035,18.8937228 142.821628,18.8937228 C141.951523,18.8937228 141.57862,19.5152268 141.57862,20.5096333 L141.57862,28.7134866 C141.57862,29.5835923 141.951523,30.3293971 142.821628,30.3293971 C143.691734,30.3293971 144.188937,29.7078931 144.188937,28.7134866 Z M156.494717,17.0292107 L153.635799,32.1939093 L150.901181,32.1939093 L148.042262,17.0292107 L150.652579,17.0292107 L152.392791,27.5947794 L154.133002,17.0292107 L156.494717,17.0292107 Z M156.121815,32.1939093 L158.980733,17.0292107 L161.839652,17.0292107 L164.698571,32.1939093 L162.088254,32.1939093 L161.59105,29.4592915 L158.980733,29.4592915 L158.48353,32.1939093 L156.121815,32.1939093 Z M159.229335,27.4704786 L161.218148,27.4704786 L160.223741,21.379739 L159.229335,27.4704786 L159.229335,27.4704786 Z M164.449969,17.0292107 L171.286513,17.0292107 L171.286513,19.1423244 L169.1734,19.1423244 L169.1734,32.1939093 L166.563083,32.1939093 L166.563083,19.1423244 L164.449969,19.1423244 L164.449969,17.0292107 L164.449969,17.0292107 Z M172.529521,17.0292107 L175.139838,17.0292107 L175.139838,32.1939093 L172.529521,32.1939093 L172.529521,17.0292107 Z M176.755749,28.3405842 L176.755749,21.0068365 C176.755749,18.6451212 177.874456,16.9049099 180.609074,16.9049099 C183.343692,16.9049099 184.462399,18.6451212 184.462399,21.0068365 L184.462399,28.3405842 C184.462399,30.7022996 183.343692,32.4425109 180.609074,32.4425109 C177.874456,32.4425109 176.755749,30.7022996 176.755749,28.3405842 Z M181.852082,28.7134866 L181.852082,20.5096333 C181.852082,19.6395277 181.47918,18.8937228 180.484773,18.8937228 C179.614667,18.8937228 179.241765,19.5152268 179.241765,20.5096333 L179.241765,28.7134866 C179.241765,29.5835923 179.614667,30.3293971 180.484773,30.3293971 C181.47918,30.3293971 181.852082,29.7078931 181.852082,28.7134866 Z M188.191423,22.7470479 L188.191423,32.3182101 L186.07831,32.3182101 L186.07831,17.1535115 L188.564326,17.1535115 L191.298943,25.8545681 L191.298943,17.1535115 L193.412057,17.1535115 L193.412057,32.3182101 L191.174643,32.3182101 L188.191423,22.7470479 L188.191423,22.7470479 Z" id="Shape" fill="#FFFFFF"></path>
                    <path d="M46.7371038,56.308266 L49.5960224,41.1435674 L52.454941,41.1435674 L55.3138595,56.308266 L52.7035426,56.308266 L52.2063393,53.5736482 L49.5960224,53.5736482 L49.0988191,56.308266 L46.7371038,56.308266 L46.7371038,56.308266 Z M49.9689248,51.4605345 L51.9577377,51.4605345 L50.9633313,45.3697949 L49.9689248,51.4605345 Z M58.5456805,46.7371038 L58.5456805,56.308266 L56.4325668,56.308266 L56.4325668,41.1435674 L58.918583,41.1435674 L61.6532007,49.844624 L61.6532007,41.1435674 L63.7663145,41.1435674 L63.7663145,56.308266 L61.5288999,56.308266 L58.5456805,46.7371038 Z M72.9645743,45.1211933 L72.9645743,52.2063393 C72.9645743,54.5680547 71.9701678,56.308266 69.23555,56.308266 L65.2579242,56.308266 L65.2579242,41.1435674 L69.23555,41.1435674 C71.9701678,41.1435674 72.9645743,42.8837787 72.9645743,45.1211933 Z M68.9869484,54.1951523 C69.9813549,54.1951523 70.4785581,53.5736482 70.4785581,52.7035426 L70.4785581,44.7482909 C70.4785581,43.8781852 70.1056557,43.2566812 68.9869484,43.2566812 L67.8682411,43.2566812 L67.8682411,54.3194531 L68.9869484,54.1951523 Z M76.9422001,41.1435674 L79.5525171,41.1435674 L79.5525171,56.308266 L76.9422001,56.308266 L76.9422001,41.1435674 Z M83.2815413,46.7371038 L83.2815413,56.308266 L81.1684276,56.308266 L81.1684276,41.1435674 L83.6544438,41.1435674 L86.3890615,49.844624 L86.3890615,41.1435674 L88.5021753,41.1435674 L88.5021753,56.308266 L86.2647607,56.308266 L83.2815413,46.7371038 Z M90.1180858,41.1435674 L96.0845245,41.1435674 L96.0845245,43.2566812 L92.6041019,43.2566812 L92.6041019,47.6072094 L95.2144189,47.6072094 L95.2144189,49.7203232 L92.6041019,49.7203232 L92.6041019,56.4325668 L89.993785,56.4325668 L90.1180858,41.1435674 L90.1180858,41.1435674 Z M99.8135488,49.3474208 L99.8135488,56.308266 L97.2032318,56.308266 L97.2032318,41.1435674 L100.932256,41.1435674 C103.542573,41.1435674 104.412679,42.3865755 104.412679,44.4996892 L104.412679,46.4885022 C104.412679,48.1044127 103.791175,49.0988191 102.423866,49.4717216 L104.909882,56.308266 L102.175264,56.308266 L99.8135488,49.3474208 L99.8135488,49.3474208 Z M99.8135488,43.1323804 L99.8135488,47.8558111 L100.683654,47.8558111 C101.55376,47.8558111 101.926663,47.3586078 101.926663,46.612803 L101.926663,44.3753884 C101.926663,43.5052828 101.55376,43.1323804 100.683654,43.1323804 L99.8135488,43.1323804 Z M105.655687,56.308266 L108.514605,41.1435674 L111.373524,41.1435674 L114.232443,56.308266 L111.622126,56.308266 L111.124922,53.5736482 L108.390305,53.5736482 L107.893101,56.308266 L105.655687,56.308266 L105.655687,56.308266 Z M108.763207,51.4605345 L110.75202,51.4605345 L109.757613,45.3697949 L108.763207,51.4605345 L108.763207,51.4605345 Z M115.102548,52.9521442 L115.102548,50.9633313 L117.464264,50.9633313 L117.464264,53.076445 C117.464264,53.9465507 117.837166,54.4437539 118.707272,54.4437539 C119.453076,54.4437539 119.825979,53.9465507 119.825979,53.076445 L119.825979,52.454941 C119.825979,51.5848353 119.453076,51.0876321 118.707272,50.3418272 L117.215662,48.8502175 C115.724052,47.3586078 115.102548,46.4885022 115.102548,44.7482909 L115.102548,44.2510876 C115.102548,42.3865755 116.221255,40.8949658 118.707272,40.8949658 C121.317589,40.8949658 122.311995,42.1379739 122.311995,44.3753884 L122.311995,45.6183965 L119.95028,45.6183965 L119.95028,44.2510876 C119.95028,43.380982 119.577377,43.0080796 118.707272,43.0080796 C117.961467,43.0080796 117.464264,43.380982 117.464264,44.2510876 L117.464264,44.6239901 C117.464264,45.4940957 117.961467,45.9912989 118.707272,46.7371038 L120.323182,48.3530143 C121.690491,49.7203232 122.436296,50.5904288 122.436296,52.3306401 L122.436296,53.076445 C122.436296,55.1895587 121.317589,56.6811684 118.707272,56.6811684 C116.096955,56.6811684 115.102548,54.9409571 115.102548,52.9521442 L115.102548,52.9521442 Z M123.182101,41.1435674 L130.018645,41.1435674 L130.018645,43.2566812 L127.905531,43.2566812 L127.905531,56.308266 L125.295214,56.308266 L125.295214,43.2566812 L123.182101,43.2566812 L123.182101,41.1435674 L123.182101,41.1435674 Z M133.87197,49.3474208 L133.87197,56.308266 L131.261653,56.308266 L131.261653,41.1435674 L134.990677,41.1435674 C137.600994,41.1435674 138.4711,42.3865755 138.4711,44.4996892 L138.4711,46.4885022 C138.4711,48.1044127 137.849596,49.0988191 136.482287,49.4717216 L138.968303,56.308266 L136.233686,56.308266 L133.87197,49.3474208 L133.87197,49.3474208 Z M133.87197,43.1323804 L133.87197,47.8558111 L134.742076,47.8558111 C135.612181,47.8558111 135.985084,47.3586078 135.985084,46.612803 L135.985084,44.3753884 C135.985084,43.5052828 135.612181,43.1323804 134.742076,43.1323804 L133.87197,43.1323804 Z M147.420758,41.1435674 L147.420758,52.5792418 C147.420758,54.9409571 146.426352,56.4325668 143.816035,56.4325668 C141.081417,56.4325668 139.96271,54.9409571 139.96271,52.5792418 L139.96271,41.1435674 L142.573027,41.1435674 L142.573027,52.8278434 C142.573027,53.697949 142.945929,54.3194531 143.816035,54.3194531 C144.68614,54.3194531 145.059043,53.697949 145.059043,52.8278434 L145.059043,41.1435674 L147.420758,41.1435674 Z M149.036669,52.3306401 L149.036669,44.9968925 C149.036669,42.6351771 150.155376,40.8949658 152.889994,40.8949658 C155.748912,40.8949658 156.494717,42.5108763 156.494717,44.7482909 L156.494717,46.4885022 L154.133002,46.4885022 L154.133002,44.4996892 C154.133002,43.5052828 153.760099,43.0080796 152.889994,43.0080796 C152.019888,43.0080796 151.646986,43.6295836 151.646986,44.6239901 L151.646986,52.8278434 C151.646986,53.697949 152.019888,54.4437539 152.889994,54.4437539 C153.760099,54.4437539 154.133002,53.8222498 154.133002,52.9521442 L154.133002,50.0932256 L156.494717,50.0932256 L156.494717,52.7035426 C156.494717,54.8166563 155.624612,56.4325668 152.889994,56.4325668 C150.155376,56.4325668 149.036669,54.6923555 149.036669,52.3306401 L149.036669,52.3306401 Z M156.99192,41.1435674 L163.828465,41.1435674 L163.828465,43.2566812 L161.715351,43.2566812 L161.715351,56.308266 L159.105034,56.308266 L159.105034,43.2566812 L156.99192,43.2566812 L156.99192,41.1435674 L156.99192,41.1435674 Z M172.529521,41.1435674 L172.529521,52.5792418 C172.529521,54.9409571 171.535115,56.4325668 168.924798,56.4325668 C166.19018,56.4325668 165.071473,54.9409571 165.071473,52.5792418 L165.071473,41.1435674 L167.68179,41.1435674 L167.68179,52.8278434 C167.68179,53.697949 168.054692,54.3194531 168.924798,54.3194531 C169.794904,54.3194531 170.167806,53.697949 170.167806,52.8278434 L170.167806,41.1435674 L172.529521,41.1435674 Z M176.631448,49.3474208 L176.631448,56.308266 L174.021131,56.308266 L174.021131,41.1435674 L177.750155,41.1435674 C180.360472,41.1435674 181.230578,42.3865755 181.230578,44.4996892 L181.230578,46.4885022 C181.230578,48.1044127 180.609074,49.0988191 179.241765,49.4717216 L181.727781,56.308266 L178.993163,56.308266 L176.631448,49.3474208 L176.631448,49.3474208 Z M176.631448,43.1323804 L176.631448,47.8558111 L177.501554,47.8558111 C178.371659,47.8558111 178.744562,47.3586078 178.744562,46.612803 L178.744562,44.3753884 C178.744562,43.5052828 178.371659,43.1323804 177.501554,43.1323804 L176.631448,43.1323804 Z M182.846489,41.1435674 L188.937228,41.1435674 L188.937228,43.2566812 L185.456805,43.2566812 L185.456805,47.6072094 L187.942822,47.6072094 L187.942822,49.7203232 L185.456805,49.7203232 L185.456805,54.3194531 L188.937228,54.3194531 L188.937228,56.4325668 L182.846489,56.4325668 L182.846489,41.1435674 L182.846489,41.1435674 Z" id="Shape" fill="#FFFFFF"></path>
                </g>
            </g>
        </g>
    </g>
</svg>