<?xml version="1.0" encoding="utf-8"?>
<!-- Generator: Adobe Illustrator 25.2.3, SVG Export Plug-In . SVG Version: 6.00 Build 0)  -->
<svg version="1.1" xmlns="http://www.w3.org/2000/svg" xmlns:xlink="http://www.w3.org/1999/xlink" x="0px" y="0px" width="1424px"
	 height="778.8px" viewBox="0 0 1424 778.8" style="enable-background:new 0 0 1424 778.8;" xml:space="preserve">
<style type="text/css">
	.st0{fill:none;stroke:#424E4F;stroke-width:2.2749;stroke-miterlimit:10;}
	.st1{fill:#007A82;}
	.st2{fill:#424E4F;}
	.st3{fill:none;stroke:#424E4F;stroke-width:2.2714;stroke-miterlimit:10;}
	.st4{fill:none;}
	.st5{fill:#FF6600;}
	.st6{fill:none;stroke:#4A4A49;stroke-width:2.2749;stroke-miterlimit:10;}
	.st7{fill:#4A4A49;}
	.st8{font-family:'MyriadPro-Regular';}
	.st9{font-size:39.7586px;}
	.st10{fill:none;stroke:#007A82;stroke-width:6;stroke-miterlimit:10;}
</style>
<g id="Layer_2">
	<line class="st0" x1="0" y1="238.6" x2="1423.9" y2="238.6"/>
	<line class="st0" x1="0" y1="131.6" x2="1423.9" y2="131.6"/>
	<line class="st0" x1="0" y1="345.5" x2="1423.9" y2="345.5"/>
	<line class="st0" x1="0" y1="453.5" x2="1423.9" y2="453.5"/>
	<line class="st0" x1="0" y1="559.3" x2="1423.9" y2="559.3"/>
</g>
<g id="Layer_1">
	<g>
		<g>
			<line class="st4" x1="-1241.5" y1="664.6" x2="33" y2="664.6"/>
			<g>
				<g>
					<line class="st4" x1="-1241.5" y1="664.6" x2="-1241.5" y2="654"/>
					<line class="st4" x1="-816.6" y1="664.6" x2="-816.6" y2="654"/>
					<line class="st4" x1="-391.8" y1="664.6" x2="-391.8" y2="654"/>
					<line class="st4" x1="33" y1="664.6" x2="33" y2="654"/>
				</g>
				<g>
				</g>
			</g>
		</g>
		<g>
			<g>
				<text transform="matrix(1.1059 0 0 1 -1283.9268 679.464)" class="st4 st8" style="font-size:39.7587px;">0</text>
				<text transform="matrix(1.1059 0 0 1 -1306.4824 594.6437)" class="st4 st8" style="font-size:39.7587px;">50</text>
				<text transform="matrix(1.1059 0 0 1 -1329.0381 509.8234)" class="st4 st8" style="font-size:39.7587px;">100</text>
				<text transform="matrix(1.1059 0 0 1 -1329.0381 425.0109)" class="st4 st8" style="font-size:39.7587px;">150</text>
				<text transform="matrix(1.1059 0 0 1 -1329.0381 340.1906)" class="st4 st8" style="font-size:39.7587px;">200</text>
				<text transform="matrix(1.1059 0 0 1 -1329.0381 255.3859)" class="st4 st8" style="font-size:39.7587px;">250</text>
			</g>
			<line class="st4" x1="-1241.5" y1="664.6" x2="-1241.5" y2="240.5"/>
			<g>
				<g>
					<line class="st4" x1="-1241.5" y1="664.6" x2="-1209.6" y2="664.6"/>
					<line class="st4" x1="-1241.5" y1="579.7" x2="-1209.6" y2="579.7"/>
					<line class="st4" x1="-1241.5" y1="494.9" x2="-1209.6" y2="494.9"/>
					<line class="st4" x1="-1241.5" y1="410.1" x2="-1209.6" y2="410.1"/>
					<line class="st4" x1="-1241.5" y1="325.3" x2="-1209.6" y2="325.3"/>
					<line class="st4" x1="-1241.5" y1="240.5" x2="-1209.6" y2="240.5"/>
				</g>
				<g>
				</g>
			</g>
		</g>
		<g>
			<g>
				<g>
					<rect x="-1186.2" y="429.4" class="st5" width="314.4" height="235.1"/>
					<rect x="-761.4" y="314.4" class="st5" width="314.4" height="350.1"/>
					<rect x="-336.6" y="343.9" class="st5" width="314.4" height="320.6"/>
				</g>
			</g>
		</g>
		<g>
			<g>
			</g>
		</g>
	</g>
	<g>
		<g>
			<path class="st1" d="M4.9,10.3h11l21,33.8H37V10.3h10.4v50.4H36.3L15.4,26.9h-0.1v33.7H4.9V10.3z"/>
			<path class="st1" d="M89.6,60.7h-9.5v-5.1h-0.2c-2.5,4.1-6.9,6.1-11.1,6.1c-10.6,0-13.3-6-13.3-15V24.2h10v20.6c0,6,1.8,9,6.4,9
				c5.4,0,7.8-3,7.8-10.4V24.2h10V60.7z"/>
			<path class="st1" d="M96.9,24.2h9.5v4.9h0.1c2.6-3.7,6.4-5.9,11.1-5.9c4.6,0,8.7,1.7,10.6,6.1c2.1-3.2,5.9-6.1,11-6.1
				c7.8,0,13.3,3.6,13.3,13v24.4h-10V40c0-4.9-0.4-8.9-6.1-8.9c-5.6,0-6.7,4.7-6.7,9.2v20.3h-10V40.2c0-4.2,0.3-9.1-6.1-9.1
				c-2,0-6.8,1.3-6.8,8.4v21.2h-10V24.2z"/>
			<path class="st1" d="M159.9,10.3h10v18.3h0.1c2.5-3.7,7-5.4,11.5-5.4c7.3,0,15.1,5.9,15.1,19.2c0,13.4-7.8,19.3-15.1,19.3
				c-5.4,0-9.8-1.6-12-5.6h-0.1v4.7h-9.5V10.3z M178.1,30.7c-5.9,0-8.5,5.6-8.5,11.7c0,6.1,2.6,11.6,8.5,11.6
				c5.9,0,8.5-5.6,8.5-11.6C186.6,36.3,184,30.7,178.1,30.7z"/>
			<path class="st1" d="M210.6,44.9c0.3,6.3,3.4,9.2,9,9.2c4,0,7.3-2.5,7.9-4.7h8.8c-2.8,8.6-8.8,12.3-17.1,12.3
				c-11.5,0-18.6-7.9-18.6-19.2c0-10.9,7.5-19.3,18.6-19.3c12.4,0,18.4,10.4,17.7,21.7H210.6z M226.9,38.5c-0.9-5.1-3.1-7.8-8-7.8
				c-6.3,0-8.2,4.9-8.3,7.8H226.9z"/>
			<path class="st1" d="M242.2,24.2h9.5V31h0.1c1.8-4.6,6.8-7.8,11.6-7.8c0.7,0,1.6,0.1,2.2,0.4v9.3c-0.9-0.2-2.4-0.4-3.6-0.4
				c-7.3,0-9.9,5.3-9.9,11.7v16.4h-10V24.2z"/>
			<path class="st1" d="M305.6,23.2c11.5,0,18.9,7.6,18.9,19.3c0,11.6-7.4,19.2-18.9,19.2c-11.4,0-18.8-7.6-18.8-19.2
				C286.8,30.8,294.2,23.2,305.6,23.2z M305.6,54.1c6.8,0,8.9-5.9,8.9-11.6c0-5.9-2-11.7-8.9-11.7c-6.8,0-8.8,5.9-8.8,11.7
				C296.8,48.2,298.9,54.1,305.6,54.1z"/>
			<path class="st1" d="M332.6,30.9h-6v-6.7h6v-2.8c0-6.4,4-11.1,12.2-11.1c1.8,0,3.6,0.2,5.3,0.3v7.5c-1.2-0.1-2.4-0.2-3.7-0.2
				c-2.7,0-3.8,1.1-3.8,4.2v2.2h6.9v6.7h-6.9v29.8h-10V30.9z"/>
			<path class="st1" d="M372.2,24.2h9.5v5.1h0.2c2.5-4.1,6.9-6.1,11.1-6.1c10.6,0,13.3,6,13.3,15v22.4h-10V40.1c0-6-1.8-9-6.4-9
				c-5.4,0-7.8,3-7.8,10.4v19.1h-10V24.2z"/>
			<path class="st1" d="M421.6,44.9c0.3,6.3,3.4,9.2,9,9.2c4,0,7.3-2.5,7.9-4.7h8.8c-2.8,8.6-8.8,12.3-17.1,12.3
				c-11.5,0-18.6-7.9-18.6-19.2c0-10.9,7.5-19.3,18.6-19.3c12.4,0,18.4,10.4,17.7,21.7H421.6z M437.9,38.5c-0.9-5.1-3.1-7.8-8-7.8
				c-6.3,0-8.2,4.9-8.3,7.8H437.9z"/>
			<path class="st1" d="M494.9,60.7h-10.3l-6.5-24.5H478l-6.2,24.5h-10.4l-11.6-36.5h10.6l6.7,24.8h0.1l6.1-24.8h9.7l6.2,24.7h0.1
				l6.7-24.7h10.3L494.9,60.7z"/>
			<path class="st1" d="M529,24.2h9.5v4.7h0.1c2.4-3.9,6.3-5.6,10.9-5.6c11.4,0,16.6,9.2,16.6,19.6c0,9.7-5.4,18.8-16,18.8
				c-4.4,0-8.5-1.9-10.9-5.5H539v17.3h-10V24.2z M556.1,42.5c0-5.8-2.3-11.8-8.7-11.8c-6.6,0-8.7,5.9-8.7,11.8
				c0,5.9,2.3,11.6,8.7,11.6C553.9,54.1,556.1,48.5,556.1,42.5z"/>
			<path class="st1" d="M589.1,23.2c11.5,0,18.9,7.6,18.9,19.3c0,11.6-7.4,19.2-18.9,19.2c-11.4,0-18.8-7.6-18.8-19.2
				C570.3,30.8,577.7,23.2,589.1,23.2z M589.1,54.1c6.8,0,8.9-5.9,8.9-11.6c0-5.9-2-11.7-8.9-11.7c-6.8,0-8.8,5.9-8.8,11.7
				C580.3,48.2,582.4,54.1,589.1,54.1z"/>
			<path class="st1" d="M613.9,24.2h9.5V31h0.1c1.8-4.6,6.8-7.8,11.6-7.8c0.7,0,1.6,0.1,2.2,0.4v9.3c-0.9-0.2-2.4-0.4-3.6-0.4
				c-7.3,0-9.9,5.3-9.9,11.7v16.4h-10V24.2z"/>
			<path class="st1" d="M653.4,24.2h7.3v6.7h-7.3v18.1c0,3.4,0.8,4.2,4.2,4.2c1.1,0,2-0.1,3.1-0.3v7.8c-1.7,0.3-3.9,0.4-5.9,0.4
				c-6.1,0-11.5-1.4-11.5-8.7V30.9h-6.1v-6.7h6.1V13.3h10V24.2z"/>
			<path class="st1" d="M667.1,30.9h-6v-6.7h6v-2.8c0-6.4,4-11.1,12.2-11.1c1.8,0,3.6,0.2,5.3,0.3v7.5c-1.2-0.1-2.4-0.2-3.7-0.2
				c-2.7,0-3.8,1.1-3.8,4.2v2.2h6.9v6.7h-6.9v29.8h-10V30.9z"/>
			<path class="st1" d="M705.4,23.2c11.5,0,18.9,7.6,18.9,19.3c0,11.6-7.4,19.2-18.9,19.2c-11.4,0-18.8-7.6-18.8-19.2
				C686.6,30.8,694,23.2,705.4,23.2z M705.4,54.1c6.8,0,8.9-5.9,8.9-11.6c0-5.9-2-11.7-8.9-11.7c-6.8,0-8.8,5.9-8.8,11.7
				C696.6,48.2,698.7,54.1,705.4,54.1z"/>
			<path class="st1" d="M730.5,10.3h10v50.4h-10V10.3z"/>
			<path class="st1" d="M758,18.5h-10v-8.3h10V18.5z M748,24.2h10v36.5h-10V24.2z"/>
			<path class="st1" d="M783,23.2c11.5,0,18.9,7.6,18.9,19.3c0,11.6-7.4,19.2-18.9,19.2c-11.4,0-18.8-7.6-18.8-19.2
				C764.2,30.8,771.6,23.2,783,23.2z M783,54.1c6.8,0,8.9-5.9,8.9-11.6c0-5.9-2-11.7-8.9-11.7c-6.8,0-8.8,5.9-8.8,11.7
				C774.2,48.2,776.2,54.1,783,54.1z"/>
			<path class="st1" d="M851.5,37c-0.6-4.1-3.2-6.3-7.4-6.3c-6.4,0-8.5,6.5-8.5,11.8c0,5.2,2,11.5,8.3,11.5c4.7,0,7.3-3,8-7.4h9.7
				c-1.3,9.7-8,15-17.6,15c-11,0-18.4-7.8-18.4-18.7c0-11.4,6.8-19.7,18.6-19.7c8.6,0,16.5,4.5,17.1,13.8H851.5z"/>
			<path class="st1" d="M884.3,23.2c11.5,0,18.9,7.6,18.9,19.3c0,11.6-7.4,19.2-18.9,19.2c-11.4,0-18.8-7.6-18.8-19.2
				C865.4,30.8,872.8,23.2,884.3,23.2z M884.3,54.1c6.8,0,8.9-5.9,8.9-11.6c0-5.9-2-11.7-8.9-11.7c-6.8,0-8.8,5.9-8.8,11.7
				C875.5,48.2,877.5,54.1,884.3,54.1z"/>
			<path class="st1" d="M909.3,24.2h9.5v4.9h0.1c2.6-3.7,6.4-5.9,11.1-5.9c4.6,0,8.7,1.7,10.6,6.1c2.1-3.2,5.9-6.1,11-6.1
				c7.8,0,13.3,3.6,13.3,13v24.4h-10V40c0-4.9-0.4-8.9-6.1-8.9c-5.6,0-6.7,4.7-6.7,9.2v20.3h-10V40.2c0-4.2,0.3-9.1-6.1-9.1
				c-2,0-6.8,1.3-6.8,8.4v21.2h-10V24.2z"/>
			<path class="st1" d="M972.3,24.2h9.5v4.7h0.1c2.4-3.9,6.3-5.6,10.9-5.6c11.4,0,16.6,9.2,16.6,19.6c0,9.7-5.4,18.8-16,18.8
				c-4.4,0-8.5-1.9-10.9-5.5h-0.1v17.3h-10V24.2z M999.4,42.5c0-5.8-2.3-11.8-8.7-11.8c-6.6,0-8.7,5.9-8.7,11.8
				c0,5.9,2.3,11.6,8.7,11.6C997.2,54.1,999.4,48.5,999.4,42.5z"/>
			<path class="st1" d="M1014.3,35.4c0.6-9.4,9-12.2,17.1-12.2c7.3,0,16,1.6,16,10.4v19c0,3.3,0.4,6.6,1.3,8.1h-10.2
				c-0.4-1.1-0.6-2.3-0.7-3.5c-3.2,3.3-7.8,4.5-12.3,4.5c-6.9,0-12.4-3.5-12.4-10.9c0-8.3,6.2-10.2,12.4-11.1
				c6.1-0.9,11.8-0.7,11.8-4.8c0-4.3-3-4.9-6.5-4.9c-3.8,0-6.3,1.6-6.6,5.5H1014.3z M1037.4,42.8c-1.7,1.5-5.2,1.6-8.3,2.1
				c-3.1,0.6-5.9,1.7-5.9,5.4c0,3.7,2.9,4.7,6.1,4.7c7.8,0,8.1-6.2,8.1-8.4V42.8z"/>
			<path class="st1" d="M1054.6,24.2h9.5v5.1h0.2c2.5-4.1,6.9-6.1,11.1-6.1c10.6,0,13.3,6,13.3,15v22.4h-10V40.1c0-6-1.8-9-6.4-9
				c-5.4,0-7.8,3-7.8,10.4v19.1h-10V24.2z"/>
			<path class="st1" d="M1106.1,18.5h-10v-8.3h10V18.5z M1096,24.2h10v36.5h-10V24.2z"/>
			<path class="st1" d="M1121.6,44.9c0.3,6.3,3.4,9.2,9,9.2c4,0,7.3-2.5,7.9-4.7h8.8c-2.8,8.6-8.8,12.3-17.1,12.3
				c-11.5,0-18.6-7.9-18.6-19.2c0-10.9,7.5-19.3,18.6-19.3c12.4,0,18.4,10.4,17.7,21.7H1121.6z M1137.9,38.5c-0.9-5.1-3.1-7.8-8-7.8
				c-6.3,0-8.2,4.9-8.3,7.8H1137.9z"/>
			<path class="st1" d="M1160.9,48.8c0.1,4.4,3.7,6.1,7.7,6.1c2.9,0,6.6-1.1,6.6-4.7c0-3-4.2-4.1-11.4-5.6
				c-5.8-1.3-11.6-3.3-11.6-9.7c0-9.3,8-11.7,15.9-11.7c8,0,15.3,2.7,16.1,11.6h-9.5c-0.3-3.9-3.2-4.9-6.8-4.9
				c-2.3,0-5.6,0.4-5.6,3.4c0,3.6,5.6,4.1,11.4,5.4c5.9,1.3,11.6,3.5,11.6,10.2c0,9.6-8.3,12.7-16.6,12.7c-8.5,0-16.7-3.2-17.1-12.8
				H1160.9z"/>
		</g>
	</g>
	<g>
		<path class="st2" d="M332.2,725.9c-0.4-11.3,6.1-20,17.9-20c9,0,16.9,5.8,16.9,15.4c0,7.4-3.9,11.5-8.8,15s-10.6,6.3-14.2,11.4
			h23.3v8.6H331c0.1-11.4,7.1-16.3,15.6-22.1c4.4-3,10.3-6,10.4-12.1c0-4.7-3.1-7.6-7.4-7.6c-5.9,0-7.8,6.1-7.8,11.4H332.2z"/>
		<path class="st2" d="M385.9,705.9c9.9,0,18.2,6.2,18.2,25.5c0,19.7-8.3,25.9-18.2,25.9c-9.7,0-18.1-6.2-18.1-25.9
			C367.9,712.1,376.2,705.9,385.9,705.9z M385.9,749c8.2,0,8.2-12.1,8.2-17.6c0-5.1,0-17.2-8.2-17.2c-8,0-8,12.1-8,17.2
			C377.9,736.9,377.9,749,385.9,749z"/>
		<path class="st2" d="M430.8,756.3h-10v-32h-12.4v-7.5c7,0.1,13.4-2.3,14.5-9.8h8V756.3z"/>
		<path class="st2" d="M451.8,743.6c0.6,3.3,3.2,6.1,6.6,6.1c7.3,0,9.2-9.5,9.5-15l-0.1-0.1c-2.8,3.9-6.3,5.5-11.1,5.5
			c-4.2,0-8.5-2-11.4-5.1c-2.6-3-3.8-7.1-3.8-11c0-10.1,7-18.1,17.3-18.1c15,0,19,13,19,25.5c0,12.1-5.4,25.8-19.4,25.8
			c-8.5,0-14.9-5-16-13.7H451.8z M467,723.3c0-4.6-3-9.2-8-9.2c-4.8,0-7.5,4.6-7.5,9c0,4.7,2.4,9.3,7.5,9.3
			C464.4,732.5,467,728.2,467,723.3z"/>
	</g>
	<g>
		<path class="st2" d="M760.8,725.9c-0.4-11.3,6.1-20,17.9-20c9,0,16.9,5.8,16.9,15.4c0,7.4-3.9,11.5-8.8,15s-10.6,6.3-14.2,11.4
			H796v8.6h-36.2c0.1-11.4,7.1-16.3,15.6-22.1c4.4-3,10.3-6,10.4-12.1c0-4.7-3.1-7.6-7.4-7.6c-5.9,0-7.8,6.1-7.8,11.4H760.8z"/>
		<path class="st2" d="M814.6,705.9c9.9,0,18.2,6.2,18.2,25.5c0,19.7-8.3,25.9-18.2,25.9c-9.7,0-18.1-6.2-18.1-25.9
			C796.6,712.1,804.9,705.9,814.6,705.9z M814.6,749c8.2,0,8.2-12.1,8.2-17.6c0-5.1,0-17.2-8.2-17.2c-8,0-8,12.1-8,17.2
			C806.6,736.9,806.6,749,814.6,749z"/>
		<path class="st2" d="M834.6,725.9c-0.4-11.3,6.1-20,17.9-20c9,0,16.9,5.8,16.9,15.4c0,7.4-3.9,11.5-8.8,15s-10.6,6.3-14.2,11.4
			h23.3v8.6h-36.2c0.1-11.4,7.1-16.3,15.6-22.1c4.4-3,10.3-6,10.4-12.1c0-4.7-3.1-7.6-7.4-7.6c-5.9,0-7.8,6.1-7.8,11.4H834.6z"/>
		<path class="st2" d="M888.4,705.9c9.9,0,18.2,6.2,18.2,25.5c0,19.7-8.3,25.9-18.2,25.9c-9.7,0-18.1-6.2-18.1-25.9
			C870.4,712.1,878.7,705.9,888.4,705.9z M888.4,749c8.2,0,8.2-12.1,8.2-17.6c0-5.1,0-17.2-8.2-17.2c-8,0-8,12.1-8,17.2
			C880.4,736.9,880.4,749,888.4,749z"/>
	</g>
	<g>
		<path class="st2" d="M1199.9,725.9c-0.4-11.3,6.1-20,17.9-20c9,0,16.9,5.8,16.9,15.4c0,7.4-3.9,11.5-8.8,15s-10.6,6.3-14.2,11.4
			h23.3v8.6h-36.2c0.1-11.4,7.1-16.3,15.6-22.1c4.4-3,10.3-6,10.4-12.1c0-4.7-3.1-7.6-7.4-7.6c-5.9,0-7.8,6.1-7.8,11.4H1199.9z"/>
		<path class="st2" d="M1253.8,705.9c9.9,0,18.2,6.2,18.2,25.5c0,19.7-8.3,25.9-18.2,25.9c-9.7,0-18.1-6.2-18.1-25.9
			C1235.7,712.1,1244,705.9,1253.8,705.9z M1253.8,749c8.2,0,8.2-12.1,8.2-17.6c0-5.1,0-17.2-8.2-17.2c-8,0-8,12.1-8,17.2
			C1245.7,736.9,1245.7,749,1253.8,749z"/>
		<path class="st2" d="M1273.7,725.9c-0.4-11.3,6.1-20,17.9-20c9,0,16.9,5.8,16.9,15.4c0,7.4-3.9,11.5-8.8,15s-10.6,6.3-14.2,11.4
			h23.3v8.6h-36.2c0.1-11.4,7.1-16.3,15.6-22.1c4.4-3,10.3-6,10.4-12.1c0-4.7-3.1-7.6-7.4-7.6c-5.9,0-7.8,6.1-7.8,11.4H1273.7z"/>
		<path class="st2" d="M1335.6,756.3h-10v-32h-12.4v-7.5c7,0.1,13.4-2.3,14.5-9.8h8V756.3z"/>
	</g>
	<g>
		<g>
			<line class="st4" x1="202.5" y1="664.6" x2="1477" y2="664.6"/>
			<g>
				<g>
					<line class="st4" x1="202.5" y1="664.6" x2="202.5" y2="654"/>
					<line class="st4" x1="627.4" y1="664.6" x2="627.4" y2="654"/>
					<line class="st4" x1="1052.2" y1="664.6" x2="1052.2" y2="654"/>
					<line class="st4" x1="1477" y1="664.6" x2="1477" y2="654"/>
				</g>
				<g>
				</g>
			</g>
		</g>
		<g>
			<g>
				<text transform="matrix(1.1059 0 0 1 160.0732 679.4718)" class="st4 st8 st9">0</text>
				<text transform="matrix(1.1059 0 0 1 160.0732 573.4484)" class="st4 st8 st9">1</text>
				<text transform="matrix(1.1059 0 0 1 160.0732 467.425)" class="st4 st8 st9">2</text>
				<text transform="matrix(1.1059 0 0 1 160.0732 361.4015)" class="st4 st8 st9">3</text>
				<text transform="matrix(1.1059 0 0 1 160.0732 255.3781)" class="st4 st8 st9">4</text>
			</g>
			<line class="st4" x1="202.5" y1="664.6" x2="202.5" y2="240.5"/>
			<g>
				<g>
					<line class="st4" x1="202.5" y1="664.6" x2="234.4" y2="664.6"/>
					<line class="st4" x1="202.5" y1="558.5" x2="234.4" y2="558.5"/>
					<line class="st4" x1="202.5" y1="452.5" x2="234.4" y2="452.5"/>
					<line class="st4" x1="202.5" y1="346.5" x2="234.4" y2="346.5"/>
					<line class="st4" x1="202.5" y1="240.5" x2="234.4" y2="240.5"/>
				</g>
				<g>
				</g>
			</g>
		</g>
		<g>
			<g>
				<g>
					<rect x="257.8" y="346.5" class="st5" width="314.4" height="318.1"/>
					<rect x="682.6" y="558.5" class="st5" width="314.4" height="106"/>
					<rect x="1107.4" y="345.5" class="st5" width="314.4" height="319.1"/>
				</g>
			</g>
		</g>
		<g>
			<g>
			</g>
		</g>
	</g>
	<line class="st0" x1="0" y1="666.2" x2="1423.9" y2="666.2"/>
	<g>
		<path class="st2" d="M33.2,201H12.3v-9.2L33.7,163h9v29.7h6.6v8.3h-6.6v11.4h-9.5V201z M33.2,175.6H33l-12.8,17.1h13V175.6z"/>
	</g>
	<g>
		<path class="st2" d="M27.2,289.9c4.3,0.4,10.5-0.5,10.5-6.1c0-4.2-3.3-6.6-7-6.6c-5,0-7.7,3.7-7.6,8.8h-9.5
			C14,275.9,20.5,269,30.7,269c7.9,0,16.6,4.9,16.6,13.7c0,4.7-2.3,8.8-6.9,10.1v0.1c5.4,1.2,8.7,5.7,8.7,11.2
			c0,10.4-8.7,16.2-18.3,16.2c-11.1,0-18.5-6.6-18.3-18H22c0.2,5.4,2.9,9.7,8.7,9.7c4.5,0,8-3.1,8-7.8c0-7.5-6.6-7.3-11.4-7.3V289.9
			z"/>
	</g>
	<g>
		<path class="st2" d="M13.8,395.8c-0.4-11.3,6.1-20,17.9-20c9,0,16.9,5.8,16.9,15.4c0,7.4-3.9,11.5-8.8,15s-10.6,6.3-14.2,11.4
			h23.3v8.6H12.6c0.1-11.4,7.1-16.3,15.6-22.1c4.4-3,10.3-6,10.4-12.1c0-4.7-3.1-7.6-7.4-7.6c-5.9,0-7.8,6.1-7.8,11.4H13.8z"/>
	</g>
	<g>
		<path class="st2" d="M38.8,533.1h-10v-32H16.4v-7.5c7,0.1,13.4-2.3,14.5-9.8h8V533.1z"/>
	</g>
	<g>
		<path class="st2" d="M30.7,589.7c9.9,0,18.2,6.2,18.2,25.5c0,19.7-8.3,25.9-18.2,25.9c-9.7,0-18.1-6.2-18.1-25.9
			C12.6,595.9,21,589.7,30.7,589.7z M30.7,632.8c8.2,0,8.2-12.1,8.2-17.6c0-5.1,0-17.2-8.2-17.2c-8,0-8,12.1-8,17.2
			C22.7,620.7,22.7,632.8,30.7,632.8z"/>
	</g>
	<line class="st10" x1="167.4" y1="417.8" x2="1423.9" y2="417.8"/>
</g>
</svg>
