<?xml version="1.0" encoding="utf-8"?>
<!-- Generator: Adobe Illustrator 25.2.3, SVG Export Plug-In . SVG Version: 6.00 Build 0)  -->
<svg version="1.1" xmlns="http://www.w3.org/2000/svg" xmlns:xlink="http://www.w3.org/1999/xlink" x="0px" y="0px" width="1424px"
	 height="778.8px" viewBox="0 0 1424 778.8" style="enable-background:new 0 0 1424 778.8;" xml:space="preserve">
<style type="text/css">
	.st0{fill:none;stroke:#424E4F;stroke-width:2.2749;stroke-miterlimit:10;}
	.st1{fill:#007A82;}
	.st2{fill:#424E4F;}
	.st3{fill:none;stroke:#424E4F;stroke-width:2.2714;stroke-miterlimit:10;}
	.st4{fill:none;}
	.st5{font-family:'MyriadPro-Regular';}
	.st6{font-size:37.4608px;}
	.st7{fill:#FF6600;}
	.st8{fill:none;stroke:#4A4A49;stroke-width:2.2749;stroke-miterlimit:10;}
	.st9{fill:#4A4A49;}
</style>
<g id="Layer_2">
</g>
<g id="Layer_1">
	<g>
		<g>
			<path class="st1" d="M4.9,9h11l21,33.7H37V9h10.4v50.3H36.3L15.4,25.6h-0.1v33.7H4.9V9z"/>
			<path class="st1" d="M70.1,9h11.3l18.8,50.3H88.8L85,48.1H66.2l-3.9,11.2H51L70.1,9z M69.1,39.9h13l-6.3-18.5h-0.1L69.1,39.9z"/>
			<path class="st1" d="M124.4,59.3H112L95.6,9H107l11.2,35.4h0.1L129.7,9h11.4L124.4,59.3z"/>
			<path class="st1" d="M159.2,22.9h9.5v4.6h0.1c2.4-3.9,6.3-5.6,10.8-5.6c11.4,0,16.5,9.2,16.5,19.6c0,9.7-5.4,18.8-16,18.8
				c-4.4,0-8.5-1.9-10.9-5.5h-0.1v17.3h-10V22.9z M186.2,41.2c0-5.8-2.3-11.8-8.7-11.8c-6.5,0-8.7,5.8-8.7,11.8
				c0,5.9,2.3,11.5,8.7,11.5C184.1,52.7,186.2,47.1,186.2,41.2z"/>
			<path class="st1" d="M209.9,43.5c0.3,6.3,3.4,9.2,8.9,9.2c4,0,7.3-2.5,7.9-4.7h8.8c-2.8,8.6-8.8,12.3-17,12.3
				c-11.5,0-18.6-7.9-18.6-19.2c0-10.9,7.5-19.2,18.6-19.2c12.4,0,18.4,10.4,17.7,21.6H209.9z M226.2,37.2c-0.9-5.1-3.1-7.7-8-7.7
				c-6.3,0-8.2,4.9-8.3,7.7H226.2z"/>
			<path class="st1" d="M241.4,22.9h9.5v6.8h0.1c1.8-4.6,6.8-7.7,11.6-7.7c0.7,0,1.5,0.1,2.2,0.4v9.3c-0.9-0.2-2.4-0.4-3.6-0.4
				c-7.3,0-9.9,5.3-9.9,11.7v16.4h-10V22.9z"/>
			<path class="st1" d="M291.4,47.5c0.1,4.4,3.7,6.1,7.7,6.1c2.9,0,6.5-1.1,6.5-4.6c0-3-4.2-4.1-11.3-5.6
				c-5.8-1.3-11.5-3.3-11.5-9.7c0-9.3,8-11.7,15.8-11.7c8,0,15.3,2.7,16.1,11.6h-9.5c-0.3-3.9-3.2-4.9-6.8-4.9
				c-2.3,0-5.6,0.4-5.6,3.4c0,3.6,5.6,4.1,11.3,5.4c5.8,1.3,11.5,3.5,11.5,10.2c0,9.6-8.3,12.7-16.6,12.7c-8.5,0-16.7-3.2-17.1-12.8
				H291.4z"/>
			<path class="st1" d="M321.2,9h10V28h0.2c2.5-4.1,6.9-6.1,10.6-6.1c10.6,0,13.3,6,13.3,15v22.4h-10V38.7c0-6-1.8-8.9-6.4-8.9
				c-5.4,0-7.7,3-7.7,10.4v19.1h-10V9z"/>
			<path class="st1" d="M361.8,34.1c0.6-9.4,8.9-12.2,17.1-12.2c7.3,0,16,1.6,16,10.4v18.9c0,3.3,0.4,6.6,1.3,8.1H386
				c-0.4-1.1-0.6-2.3-0.7-3.5c-3.2,3.3-7.8,4.5-12.3,4.5c-6.9,0-12.4-3.5-12.4-10.9c0-8.2,6.2-10.2,12.4-11.1
				c6.1-0.9,11.8-0.7,11.8-4.8c0-4.3-3-4.9-6.5-4.9c-3.8,0-6.3,1.5-6.6,5.5H361.8z M384.9,41.5c-1.7,1.5-5.2,1.5-8.3,2.1
				c-3.1,0.6-5.9,1.7-5.9,5.4c0,3.7,2.9,4.6,6.1,4.6c7.8,0,8.1-6.2,8.1-8.4V41.5z"/>
			<path class="st1" d="M402.1,22.9h9.5v6.8h0.1c1.8-4.6,6.8-7.7,11.6-7.7c0.7,0,1.5,0.1,2.2,0.4v9.3c-0.9-0.2-2.4-0.4-3.6-0.4
				c-7.3,0-9.9,5.3-9.9,11.7v16.4h-10V22.9z"/>
			<path class="st1" d="M437.3,43.5c0.3,6.3,3.4,9.2,8.9,9.2c4,0,7.3-2.5,7.9-4.7h8.8c-2.8,8.6-8.8,12.3-17,12.3
				c-11.5,0-18.6-7.9-18.6-19.2c0-10.9,7.5-19.2,18.6-19.2c12.4,0,18.4,10.4,17.7,21.6H437.3z M453.5,37.2c-0.9-5.1-3.1-7.7-8-7.7
				c-6.3,0-8.2,4.9-8.3,7.7H453.5z"/>
			<path class="st1" d="M519.4,57c0,6-2.1,16.1-18.9,16.1c-7.2,0-15.6-3.4-16.1-11.7h9.9c0.9,3.7,3.9,5,7.5,5c5.6,0,8.1-3.8,8-9
				v-4.8h-0.1c-2.2,3.8-6.5,5.6-10.9,5.6c-10.9,0-15.6-8.3-15.6-18.3c0-9.4,5.4-18,15.6-18c4.8,0,8.5,1.6,10.8,5.8h0.1v-4.9h9.5V57z
				 M509.9,40.6c0-5.9-2-11.2-8.5-11.2c-5.6,0-8.1,4.9-8.1,10.4c0,5.2,2,10.9,8.1,10.9C507,50.7,509.9,45.8,509.9,40.6z"/>
			<path class="st1" d="M526.8,22.9h9.5v6.8h0.1c1.8-4.6,6.8-7.7,11.6-7.7c0.7,0,1.5,0.1,2.2,0.4v9.3c-0.9-0.2-2.4-0.4-3.6-0.4
				c-7.3,0-9.9,5.3-9.9,11.7v16.4h-10V22.9z"/>
			<path class="st1" d="M571.1,21.9c11.5,0,18.9,7.6,18.9,19.2c0,11.5-7.4,19.2-18.9,19.2c-11.4,0-18.8-7.6-18.8-19.2
				C552.3,29.5,559.7,21.9,571.1,21.9z M571.1,52.7c6.8,0,8.9-5.8,8.9-11.6c0-5.8-2-11.7-8.9-11.7c-6.8,0-8.8,5.8-8.8,11.7
				C562.3,46.9,564.4,52.7,571.1,52.7z"/>
			<path class="st1" d="M636.2,59.3h-10.3l-6.5-24.4h-0.1l-6.2,24.4h-10.4l-11.5-36.4h10.6l6.7,24.7h0.1l6.1-24.7h9.7l6.2,24.6h0.1
				l6.7-24.6h10.3L636.2,59.3z"/>
			<path class="st1" d="M665.5,22.9h7.3v6.7h-7.3v18c0,3.4,0.8,4.2,4.2,4.2c1.1,0,2-0.1,3.1-0.3v7.8c-1.7,0.3-3.9,0.4-5.8,0.4
				c-6.1,0-11.5-1.4-11.5-8.7V29.6h-6.1v-6.7h6.1V12h10V22.9z"/>
			<path class="st1" d="M677.6,9h10V28h0.2c2.5-4.1,6.9-6.1,10.6-6.1c10.6,0,13.3,6,13.3,15v22.4h-10V38.7c0-6-1.8-8.9-6.4-8.9
				c-5.4,0-7.7,3-7.7,10.4v19.1h-10V9z"/>
			<path class="st1" d="M751.7,7.8c-5.2,9.9-7.7,21-7.7,31.9c0,11.1,2.4,22.3,7.6,32.4h-8.3c-5.8-9.6-9.3-20.7-9.3-31.7
				c0-10.5,3.1-23.7,9.3-32.6H751.7z"/>
			<path class="st1" d="M754.8,22.9h9.5v4.6h0.1c2.4-3.9,6.3-5.6,10.8-5.6c11.4,0,16.5,9.2,16.5,19.6c0,9.7-5.4,18.8-16,18.8
				c-4.4,0-8.5-1.9-10.9-5.5h-0.1v17.3h-10V22.9z M781.8,41.2c0-5.8-2.3-11.8-8.7-11.8c-6.5,0-8.7,5.8-8.7,11.8
				c0,5.9,2.3,11.5,8.7,11.5C779.7,52.7,781.8,47.1,781.8,41.2z"/>
			<path class="st1" d="M796.8,48.4h11.1v10.8h-11.1V48.4z"/>
			<path class="st1" d="M815.2,34.1c0.6-9.4,8.9-12.2,17.1-12.2c7.3,0,16,1.6,16,10.4v18.9c0,3.3,0.4,6.6,1.3,8.1h-10.1
				c-0.4-1.1-0.6-2.3-0.7-3.5c-3.2,3.3-7.8,4.5-12.3,4.5c-6.9,0-12.4-3.5-12.4-10.9c0-8.2,6.2-10.2,12.4-11.1
				c6.1-0.9,11.8-0.7,11.8-4.8c0-4.3-3-4.9-6.5-4.9c-3.8,0-6.3,1.5-6.6,5.5H815.2z M838.3,41.5c-1.7,1.5-5.2,1.5-8.3,2.1
				c-3.1,0.6-5.9,1.7-5.9,5.4c0,3.7,2.9,4.6,6.1,4.6c7.8,0,8.1-6.2,8.1-8.4V41.5z"/>
			<path class="st1" d="M855.9,48.4H867v10.8h-11.1V48.4z"/>
			<path class="st1" d="M869.2,72.1c5.2-9.9,7.7-20.9,7.7-31.8c0-11.1-2.4-22.3-7.6-32.5h8.3c5.8,9.6,9.3,20.8,9.3,31.8
				c0,10.5-3.1,23.7-9.3,32.5H869.2z"/>
		</g>
	</g>
	<g>
		<path class="st2" d="M344.1,753.8h-10v-32h-12.4v-7.5c7,0.1,13.4-2.3,14.4-9.8h8V753.8z"/>
		<path class="st2" d="M392.2,758.4c-2.2,5.8-5.6,8.2-12.5,8.2c-2,0-4.1-0.1-6.1-0.4v-8.2c1.9,0.1,3.9,0.4,5.8,0.4
			c3.5-0.4,4.6-3.9,3.5-6.8L370,717.4h10.7l8.2,24.9h0.1l8-24.9h10.4L392.2,758.4z"/>
		<path class="st2" d="M417.4,738.1c0.3,6.3,3.4,9.2,8.9,9.2c4,0,7.3-2.5,7.9-4.7h8.8c-2.8,8.6-8.8,12.3-17,12.3
			c-11.5,0-18.6-7.9-18.6-19.2c0-10.9,7.5-19.2,18.6-19.2c12.4,0,18.4,10.4,17.7,21.6H417.4z M433.7,731.7c-0.9-5.1-3.1-7.7-8-7.7
			c-6.3,0-8.2,4.9-8.3,7.7H433.7z"/>
		<path class="st2" d="M448.2,728.6c0.6-9.4,8.9-12.2,17.1-12.2c7.3,0,16,1.6,16,10.4v18.9c0,3.3,0.4,6.6,1.3,8.1h-10.1
			c-0.4-1.1-0.6-2.3-0.7-3.5c-3.2,3.3-7.8,4.5-12.3,4.5c-6.9,0-12.4-3.5-12.4-10.9c0-8.2,6.2-10.2,12.4-11.1
			c6.1-0.9,11.8-0.7,11.8-4.8c0-4.3-3-4.9-6.5-4.9c-3.8,0-6.3,1.5-6.6,5.5H448.2z M471.3,736c-1.7,1.5-5.2,1.5-8.3,2.1
			c-3.1,0.6-5.9,1.7-5.9,5.4c0,3.7,2.9,4.6,6.1,4.6c7.8,0,8.1-6.2,8.1-8.4V736z"/>
		<path class="st2" d="M488.6,717.4h9.5v6.8h0.1c1.8-4.6,6.8-7.7,11.6-7.7c0.7,0,1.5,0.1,2.2,0.4v9.3c-0.9-0.2-2.4-0.4-3.6-0.4
			c-7.3,0-9.9,5.3-9.9,11.7v16.4h-10V717.4z"/>
	</g>
	<g>
		<path class="st2" d="M738.5,724.5c4.3,0.4,10.5-0.5,10.5-6.1c0-4.2-3.3-6.5-7-6.5c-5,0-7.7,3.7-7.6,8.8h-9.5
			c0.4-10.1,6.9-17,17-17c7.9,0,16.5,4.9,16.5,13.7c0,4.6-2.3,8.8-6.9,10.1v0.1c5.4,1.2,8.7,5.7,8.7,11.2c0,10.4-8.7,16.2-18.3,16.2
			c-11.1,0-18.5-6.6-18.3-18h9.5c0.2,5.4,2.9,9.7,8.7,9.7c4.5,0,8-3.1,8-7.7c0-7.5-6.5-7.3-11.4-7.3V724.5z"/>
		<path class="st2" d="M798.2,758.4c-2.2,5.8-5.6,8.2-12.5,8.2c-2,0-4.1-0.1-6.1-0.4v-8.2c1.9,0.1,3.9,0.4,5.8,0.4
			c3.5-0.4,4.6-3.9,3.5-6.8l-12.8-34.2h10.7l8.2,24.9h0.1l8-24.9h10.4L798.2,758.4z"/>
		<path class="st2" d="M823.4,738.1c0.3,6.3,3.4,9.2,8.9,9.2c4,0,7.3-2.5,7.9-4.7h8.8c-2.8,8.6-8.8,12.3-17,12.3
			c-11.5,0-18.6-7.9-18.6-19.2c0-10.9,7.5-19.2,18.6-19.2c12.4,0,18.4,10.4,17.7,21.6H823.4z M839.7,731.7c-0.9-5.1-3.1-7.7-8-7.7
			c-6.3,0-8.2,4.9-8.3,7.7H839.7z"/>
		<path class="st2" d="M854.2,728.6c0.6-9.4,8.9-12.2,17.1-12.2c7.3,0,16,1.6,16,10.4v18.9c0,3.3,0.4,6.6,1.3,8.1h-10.1
			c-0.4-1.1-0.6-2.3-0.7-3.5c-3.2,3.3-7.8,4.5-12.3,4.5c-6.9,0-12.4-3.5-12.4-10.9c0-8.2,6.2-10.2,12.4-11.1
			c6.1-0.9,11.8-0.7,11.8-4.8c0-4.3-3-4.9-6.5-4.9c-3.8,0-6.3,1.5-6.6,5.5H854.2z M877.3,736c-1.7,1.5-5.2,1.5-8.3,2.1
			c-3.1,0.6-5.9,1.7-5.9,5.4c0,3.7,2.9,4.6,6.1,4.6c7.8,0,8.1-6.2,8.1-8.4V736z"/>
		<path class="st2" d="M894.6,717.4h9.5v6.8h0.1c1.8-4.6,6.8-7.7,11.6-7.7c0.7,0,1.5,0.1,2.2,0.4v9.3c-0.9-0.2-2.4-0.4-3.6-0.4
			c-7.3,0-9.9,5.3-9.9,11.7v16.4h-10V717.4z"/>
		<path class="st2" d="M929.6,742c0.1,4.4,3.7,6.1,7.7,6.1c2.9,0,6.5-1.1,6.5-4.6c0-3-4.2-4.1-11.3-5.6c-5.8-1.3-11.5-3.3-11.5-9.7
			c0-9.3,8-11.7,15.8-11.7c8,0,15.3,2.7,16.1,11.6h-9.5c-0.3-3.9-3.2-4.9-6.8-4.9c-2.3,0-5.6,0.4-5.6,3.4c0,3.6,5.6,4.1,11.3,5.4
			c5.8,1.3,11.5,3.5,11.5,10.2c0,9.6-8.3,12.7-16.6,12.7c-8.5,0-16.7-3.2-17.1-12.8H929.6z"/>
	</g>
	<g>
		<path class="st2" d="M1182.5,712.8h-20.4l-2,11.2l0.1,0.1c2.7-2.7,5.8-3.8,9.6-3.8c9.7,0,15.2,7.5,15.2,16.8
			c0,10.1-8.4,18-18.3,17.7c-9.6,0-18.2-5.3-18.3-15.6h10c0.5,4.4,3.7,7.4,8.1,7.4c5.2,0,8.5-4.6,8.5-9.5c0-5.1-3.2-9.2-8.5-9.2
			c-3.6,0-5.6,1.3-7.5,3.9h-9l4.9-27.3h27.5V712.8z"/>
		<path class="st2" d="M1223,758.4c-2.2,5.8-5.6,8.2-12.5,8.2c-2,0-4.1-0.1-6.1-0.4v-8.2c1.9,0.1,3.9,0.4,5.8,0.4
			c3.5-0.4,4.6-3.9,3.5-6.8l-12.8-34.2h10.7l8.2,24.9h0.1l8-24.9h10.4L1223,758.4z"/>
		<path class="st2" d="M1248.2,738.1c0.3,6.3,3.4,9.2,8.9,9.2c4,0,7.3-2.5,7.9-4.7h8.8c-2.8,8.6-8.8,12.3-17,12.3
			c-11.5,0-18.6-7.9-18.6-19.2c0-10.9,7.5-19.2,18.6-19.2c12.4,0,18.4,10.4,17.7,21.6H1248.2z M1264.5,731.7c-0.9-5.1-3.1-7.7-8-7.7
			c-6.3,0-8.2,4.9-8.3,7.7H1264.5z"/>
		<path class="st2" d="M1279,728.6c0.6-9.4,8.9-12.2,17.1-12.2c7.3,0,16,1.6,16,10.4v18.9c0,3.3,0.4,6.6,1.3,8.1h-10.1
			c-0.4-1.1-0.6-2.3-0.7-3.5c-3.2,3.3-7.8,4.5-12.3,4.5c-6.9,0-12.4-3.5-12.4-10.9c0-8.2,6.2-10.2,12.4-11.1
			c6.1-0.9,11.8-0.7,11.8-4.8c0-4.3-3-4.9-6.5-4.9c-3.8,0-6.3,1.5-6.6,5.5H1279z M1302.1,736c-1.7,1.5-5.2,1.5-8.3,2.1
			c-3.1,0.6-5.9,1.7-5.9,5.4c0,3.7,2.9,4.6,6.1,4.6c7.8,0,8.1-6.2,8.1-8.4V736z"/>
		<path class="st2" d="M1319.4,717.4h9.5v6.8h0.1c1.8-4.6,6.8-7.7,11.6-7.7c0.7,0,1.5,0.1,2.2,0.4v9.3c-0.9-0.2-2.4-0.4-3.6-0.4
			c-7.3,0-9.9,5.3-9.9,11.7v16.4h-10V717.4z"/>
		<path class="st2" d="M1354.4,742c0.1,4.4,3.7,6.1,7.7,6.1c2.9,0,6.5-1.1,6.5-4.6c0-3-4.2-4.1-11.3-5.6c-5.8-1.3-11.5-3.3-11.5-9.7
			c0-9.3,8-11.7,15.8-11.7c8,0,15.3,2.7,16.1,11.6h-9.5c-0.3-3.9-3.2-4.9-6.8-4.9c-2.3,0-5.6,0.4-5.6,3.4c0,3.6,5.6,4.1,11.3,5.4
			c5.8,1.3,11.5,3.5,11.5,10.2c0,9.6-8.3,12.7-16.6,12.7c-8.5,0-16.7-3.2-17.1-12.8H1354.4z"/>
	</g>
	<g>
		<line class="st3" x1="0" y1="130.3" x2="1421.7" y2="130.3"/>
		<line class="st3" x1="0" y1="263.8" x2="1421.7" y2="263.8"/>
		<line class="st3" x1="0" y1="397.2" x2="1421.7" y2="397.2"/>
		<line class="st3" x1="0" y1="530.7" x2="1421.7" y2="530.7"/>
		<line class="st3" x1="0" y1="664.1" x2="1421.7" y2="664.1"/>
		<g>
			<path class="st2" d="M32.5,247.2h-10v-32H10.1v-7.5c7,0.1,13.4-2.3,14.4-9.8h8V247.2z"/>
			<path class="st2" d="M75.5,206.1H55.2l-2,11.2l0.1,0.1c2.7-2.7,5.8-3.8,9.6-3.8c9.7,0,15.2,7.5,15.2,16.8
				c0,10.1-8.4,18-18.3,17.7c-9.6,0-18.2-5.3-18.3-15.6h10c0.5,4.4,3.7,7.4,8.1,7.4c5.2,0,8.5-4.6,8.5-9.5c0-5.1-3.2-9.2-8.5-9.2
				c-3.6,0-5.6,1.3-7.5,3.9h-9l4.9-27.3h27.5V206.1z"/>
			<path class="st2" d="M93.6,196.9c8.7,0,11.5,6.5,11.5,14.2c0,7.7-3.7,13.2-11.9,13.2c-8.7,0-11.6-5.8-11.6-13.5
				C81.7,203.1,85.4,196.9,93.6,196.9z M93.4,219.1c4.4,0,4.6-5.1,4.6-8c0-2.7-0.2-8.9-4.4-8.9c-4.5,0-4.8,5.6-4.8,8.8
				C88.9,214,88.9,219.1,93.4,219.1z M123.4,196.3h6l-29,52.4h-6.1L123.4,196.3z M130,220.7c8.7,0,11.5,6.1,11.5,13.9
				c0,7.7-3.7,13.6-11.9,13.6c-8.7,0-11.6-6.1-11.6-13.9C118,226.6,121.7,220.7,130,220.7z M129.7,242.9c4.4,0,4.6-5.5,4.6-8.5
				c0-2.7-0.2-8.5-4.4-8.5c-4.5,0-4.8,5.1-4.8,8.4C125.2,237.4,125.2,242.9,129.7,242.9z"/>
		</g>
		<g>
			<path class="st2" d="M32.5,381.2h-10v-32H10.1v-7.5c7,0.1,13.4-2.3,14.4-9.8h8V381.2z"/>
			<path class="st2" d="M60.4,330.9c9.9,0,18.2,6.2,18.2,25.4c0,19.6-8.3,25.8-18.2,25.8c-9.7,0-18-6.2-18-25.8
				C42.4,337.1,50.7,330.9,60.4,330.9z M60.4,373.9c8.2,0,8.2-12,8.2-17.6c0-5.1,0-17.2-8.2-17.2c-8,0-8,12-8,17.2
				C52.4,361.9,52.4,373.9,60.4,373.9z"/>
			<path class="st2" d="M95.2,330.9c8.7,0,11.5,6.5,11.5,14.2c0,7.7-3.7,13.2-11.9,13.2c-8.7,0-11.6-5.8-11.6-13.5
				C83.2,337.2,87,330.9,95.2,330.9z M94.9,353.1c4.4,0,4.6-5.1,4.6-8c0-2.7-0.2-8.9-4.4-8.9c-4.5,0-4.8,5.6-4.8,8.8
				C90.4,348,90.4,353.1,94.9,353.1z M125,330.4h6l-29,52.4h-6.1L125,330.4z M131.5,354.7c8.7,0,11.5,6.1,11.5,13.9
				c0,7.7-3.7,13.6-11.9,13.6c-8.7,0-11.6-6.1-11.6-13.9C119.6,360.6,123.3,354.7,131.5,354.7z M131.2,376.9c4.4,0,4.6-5.5,4.6-8.5
				c0-2.7-0.2-8.5-4.4-8.5c-4.5,0-4.8,5.1-4.8,8.4C126.7,371.4,126.7,376.9,131.2,376.9z"/>
		</g>
		<g>
			<path class="st2" d="M40.1,474.2H19.7l-2,11.2l0.1,0.1c2.7-2.7,5.8-3.8,9.6-3.8c9.7,0,15.2,7.5,15.2,16.8
				c0,10.1-8.4,18-18.3,17.7c-9.6,0-18.2-5.3-18.3-15.6h10c0.5,4.4,3.7,7.4,8.1,7.4c5.2,0,8.5-4.6,8.5-9.5c0-5.1-3.2-9.2-8.5-9.2
				c-3.6,0-5.6,1.3-7.5,3.9h-9l4.9-27.3h27.5V474.2z"/>
			<path class="st2" d="M58.2,465c8.7,0,11.5,6.5,11.5,14.2c0,7.7-3.7,13.2-11.9,13.2c-8.7,0-11.6-5.8-11.6-13.5
				C46.2,471.2,49.9,465,58.2,465z M57.9,487.1c4.4,0,4.6-5.1,4.6-8c0-2.7-0.2-8.9-4.4-8.9c-4.5,0-4.8,5.6-4.8,8.8
				C53.4,482.1,53.4,487.1,57.9,487.1z M88,464.4h6l-29,52.4h-6.1L88,464.4z M94.5,488.8c8.7,0,11.5,6.1,11.5,13.9
				c0,7.7-3.7,13.6-11.9,13.6c-8.7,0-11.6-6.1-11.6-13.9C82.5,494.7,86.3,488.8,94.5,488.8z M94.2,510.9c4.4,0,4.6-5.5,4.6-8.5
				c0-2.7-0.2-8.5-4.4-8.5c-4.5,0-4.8,5.1-4.8,8.4C89.7,505.5,89.7,510.9,94.2,510.9z"/>
		</g>
		<g>
			<path class="st2" d="M25.6,599c9.9,0,18.2,6.2,18.2,25.4c0,19.6-8.3,25.8-18.2,25.8c-9.7,0-18-6.2-18-25.8
				C7.6,605.2,15.9,599,25.6,599z M25.6,642c8.2,0,8.2-12,8.2-17.6c0-5.1,0-17.2-8.2-17.2c-8,0-8,12-8,17.2
				C17.6,630,17.6,642,25.6,642z"/>
		</g>
	</g>
	<g>
		<g>
			<line class="st4" x1="202.2" y1="663.4" x2="1474.7" y2="663.4"/>
			<g>
				<g>
					<line class="st4" x1="202.2" y1="663.4" x2="202.2" y2="653.4"/>
					<line class="st4" x1="626.4" y1="663.4" x2="626.4" y2="653.4"/>
					<line class="st4" x1="1050.6" y1="663.4" x2="1050.6" y2="653.4"/>
					<line class="st4" x1="1474.7" y1="663.4" x2="1474.7" y2="653.4"/>
				</g>
				<g>
				</g>
			</g>
		</g>
		<g>
			<g>
				<text transform="matrix(1.1719 0 0 1 159.8306 677.4127)" class="st4 st5 st6">0</text>
				<text transform="matrix(1.1719 0 0 1 159.8306 597.4908)" class="st4 st5 st6">3</text>
				<text transform="matrix(1.1719 0 0 1 159.8306 517.5611)" class="st4 st5 st6">6</text>
				<text transform="matrix(1.1719 0 0 1 159.8306 437.6548)" class="st4 st5 st6">9</text>
				<text transform="matrix(1.1719 0 0 1 137.3091 357.7408)" class="st4 st5 st6">12</text>
				<text transform="matrix(1.1719 0 0 1 137.3091 277.8267)" class="st4 st5 st6">15</text>
			</g>
			<line class="st4" x1="202.2" y1="663.4" x2="202.2" y2="263.8"/>
			<g>
				<g>
					<line class="st4" x1="202.2" y1="663.4" x2="234" y2="663.4"/>
					<line class="st4" x1="202.2" y1="583.4" x2="234" y2="583.4"/>
					<line class="st4" x1="202.2" y1="503.5" x2="234" y2="503.5"/>
					<line class="st4" x1="202.2" y1="423.6" x2="234" y2="423.6"/>
					<line class="st4" x1="202.2" y1="343.7" x2="234" y2="343.7"/>
					<line class="st4" x1="202.2" y1="263.8" x2="234" y2="263.8"/>
				</g>
				<g>
				</g>
			</g>
		</g>
		<g>
			<g>
				<g>
					<rect x="257.4" y="563.5" class="st7" width="313.9" height="99.9"/>
					<rect x="681.5" y="498.2" class="st7" width="313.9" height="165.2"/>
					<rect x="1105.7" y="410.3" class="st7" width="313.9" height="253.1"/>
				</g>
			</g>
		</g>
		<g>
			<g>
			</g>
		</g>
	</g>
</g>
</svg>
