<svg id="Layer_1" data-name="Layer 1" xmlns="http://www.w3.org/2000/svg" viewBox="0 0 200 200"><defs><style>.cls-1{fill:none;stroke:#fff;stroke-miterlimit:10;stroke-width:3.32px;}.cls-2{fill:#fff;}</style></defs><path class="cls-1" d="M151.36,99.41A51.59,51.59,0,1,0,99.77,151a51.59,51.59,0,0,0,51.59-51.59Zm-29.33,0c0-28.5-10-51.59-22.26-51.59S77.51,70.91,77.51,99.41,87.48,151,99.77,151,122,127.9,122,99.41ZM56.33,72.08h87.2M56.25,126.74h87.2M56.33,99.41h87.2m-95.35,0H151.36"/><path class="cls-2" d="M46.51,50.41a72.37,72.37,0,0,0,.35,98.38l-5.39-1.54a1.74,1.74,0,0,0-2.09.95,1.67,1.67,0,0,0,1.09,2.22l10.8,3.08a2.25,2.25,0,0,0,.58.08,2.1,2.1,0,0,0,2-1.34,2.25,2.25,0,0,0,.06-1.36l-2.69-10.72a1.73,1.73,0,0,0-2-1.32,1.66,1.66,0,0,0-1.29,2l1.43,5.73A69.06,69.06,0,0,1,121.7,33.92a1.67,1.67,0,0,0,2.11-1h0a1.65,1.65,0,0,0-1-2.13A72.23,72.23,0,0,0,46.51,50.41Z"/><line class="cls-1" x1="99.77" y1="47.82" x2="99.77" y2="151"/><path class="cls-2" d="M153,148.4A72.39,72.39,0,0,0,152.68,50l5.38,1.53a1.72,1.72,0,0,0,2.09-1,1.67,1.67,0,0,0-1.08-2.22l-10.8-3.08a2.25,2.25,0,0,0-.58-.08,2.11,2.11,0,0,0-2,1.34,2.25,2.25,0,0,0-.06,1.36l2.69,10.72A1.73,1.73,0,0,0,150.31,60a1.67,1.67,0,0,0,1.29-2l-1.43-5.72A69.06,69.06,0,0,1,77.84,164.9a1.66,1.66,0,0,0-2.11,1h0a1.67,1.67,0,0,0,1,2.14A72.23,72.23,0,0,0,153,148.4Z"/></svg>