<svg id="Layer_1" data-name="Layer 1" xmlns="http://www.w3.org/2000/svg" viewBox="0 0 200 200"><defs><style>.cls-1,.cls-2{fill:none;stroke:#fff;stroke-width:3.33px;}.cls-2{stroke-linecap:round;}</style></defs><path class="cls-1" d="M54.28,168.56h90.87a7.85,7.85,0,0,0,7.85-7.84V38.33a7.86,7.86,0,0,0-7.85-7.85H54.28a7.85,7.85,0,0,0-7.84,7.85V160.72a7.84,7.84,0,0,0,7.84,7.84Zm7.95-18h75V74.42h-75v76.13Zm25-76.13v76.13m25-76.13v76.12M61.16,125.17H137M61.16,150.54H137M61.16,74.42H137M61.16,99.79H137"/><path class="cls-2" d="M62.21,61.08h75m-75-13.34h75"/></svg>