<svg id="Layer_1" data-name="Layer 1" xmlns="http://www.w3.org/2000/svg" viewBox="0 0 200 200"><defs><style>.cls-1,.cls-2,.cls-3{fill:none;stroke:#fff;stroke-width:3.32px;}.cls-1,.cls-3{stroke-linecap:round;}.cls-1,.cls-2{stroke-miterlimit:10;}</style></defs><path class="cls-1" d="M112.8,64.58,86.25,48.7a3.29,3.29,0,0,0-3.32,0L28.26,80.26a3.33,3.33,0,0,0-1.66,2.87v80.06m116,0V102.81"/><path class="cls-2" d="M73.84,88.25v32.92l-22,38a2.67,2.67,0,0,0,2.32,4H115a2.67,2.67,0,0,0,2.31-4l-21.94-38V88.25a2.68,2.68,0,0,0-2.68-2.68H76.51a2.67,2.67,0,0,0-2.67,2.68Zm-4.44,40.6H99.79m-25.95-34H95.35"/><path class="cls-3" d="M74.8,152.64a4.1,4.1,0,1,0-4.1,4.1,4.1,4.1,0,0,0,4.1-4.1Zm19.27-12.73a5.4,5.4,0,1,0-5.4,5.39,5.4,5.4,0,0,0,5.4-5.39Zm35.78-67.4,6.41,11.11a1.17,1.17,0,0,0,2,0l17-29.48"/><path class="cls-1" d="M170.09,87.69a5,5,0,0,0,2.27-3.94V54.6a5,5,0,0,0-2.27-3.94L144.85,36.09a5,5,0,0,0-4.54,0L115.07,50.66a5,5,0,0,0-2.27,3.94V83.75a5,5,0,0,0,2.27,3.94l25.24,14.57a5,5,0,0,0,4.54,0l25.24-14.57Z"/></svg>