<svg id="Layer_1" data-name="Layer 1" xmlns="http://www.w3.org/2000/svg" viewBox="0 0 200 200"><defs><style>.cls-1,.cls-3{fill:none;stroke:#fff;stroke-width:3.31px;}.cls-1{stroke-miterlimit:10;}.cls-2{fill:#fff;}</style></defs><path class="cls-1" d="M93.62,128v-21.6A3.3,3.3,0,0,0,92,103.56l-18.7-10.8a3.33,3.33,0,0,0-3.32,0l-18.7,10.8a3.3,3.3,0,0,0-1.66,2.87V128a3.32,3.32,0,0,0,1.66,2.87l18.7,10.8a3.33,3.33,0,0,0,3.32,0L92,130.9A3.32,3.32,0,0,0,93.62,128ZM50,104.73l21.64,12.5,43.06-24.86M71.6,117.23v25"/><path class="cls-2" d="M73.51,54a3.33,3.33,0,0,0,1.15-.56,3,3,0,0,0,.82-1A3.14,3.14,0,0,0,75.79,51a2.33,2.33,0,0,0-.33-1.29,2.79,2.79,0,0,0-.86-.85,4.6,4.6,0,0,0-1.16-.55A12.91,12.91,0,0,0,72.17,48v6.2A5.41,5.41,0,0,0,73.51,54Zm-3.4-13.38a2.81,2.81,0,0,0-1,.57,2.71,2.71,0,0,0-.69,1,4,4,0,0,0-.24,1.45,2.49,2.49,0,0,0,.27,1.23,2.19,2.19,0,0,0,.71.77,3.5,3.5,0,0,0,1,.48l1.17.32v-6a4.1,4.1,0,0,0-1.22.19ZM68.72,53a4,4,0,0,0,2.61,1.19V47.81c-.6-.13-1.18-.29-1.73-.46a4.7,4.7,0,0,1-1.44-.76,3.41,3.41,0,0,1-1-1.23,4.08,4.08,0,0,1-.37-1.86,4,4,0,0,1,1.32-3.07,4.42,4.42,0,0,1,1.45-.84,5.31,5.31,0,0,1,1.75-.29V37.62h.84V39.3a4.59,4.59,0,0,1,1.78.34,4.41,4.41,0,0,1,1.46.94,4.47,4.47,0,0,1,1,1.48A4.73,4.73,0,0,1,76.74,44H75.38a3.76,3.76,0,0,0-.9-2.58,3,3,0,0,0-2.31-1v6.2a18,18,0,0,1,1.82.48,5.59,5.59,0,0,1,1.59.77,3.83,3.83,0,0,1,1.13,1.24A3.72,3.72,0,0,1,77.15,51a3.89,3.89,0,0,1-1.54,3.2A4.93,4.93,0,0,1,74,55a6.3,6.3,0,0,1-1.84.27v1.83h-.84V55.28a5.5,5.5,0,0,1-3.67-1.49,5.57,5.57,0,0,1-1.24-3.7h1.36a4.22,4.22,0,0,0,.94,2.9Z"/><path class="cls-1" d="M114.65,142.08,93.24,129.72M71.6,92.24V67.51"/><path class="cls-3" d="M89,56V39.68a3.32,3.32,0,0,0-1.65-2.87L73.26,28.66a3.33,3.33,0,0,0-3.32,0L55.83,36.81a3.32,3.32,0,0,0-1.65,2.87V56a3.31,3.31,0,0,0,1.65,2.87L69.94,67a3.33,3.33,0,0,0,3.32,0l14.11-8.15A3.31,3.31,0,0,0,89,56Z"/><path class="cls-2" d="M133.6,88.7a3.21,3.21,0,0,0,1.16-.56,2.88,2.88,0,0,0,.81-1,3,3,0,0,0,.32-1.43,2.36,2.36,0,0,0-.34-1.29,2.76,2.76,0,0,0-.85-.85,5,5,0,0,0-1.16-.55c-.43-.14-.85-.27-1.27-.37v6.2a4.9,4.9,0,0,0,1.33-.17Zm-3.39-13.38a2.64,2.64,0,0,0-1.7,1.57,4,4,0,0,0-.25,1.46,2.42,2.42,0,0,0,.27,1.22,2.32,2.32,0,0,0,.71.78,3.67,3.67,0,0,0,1,.47q.57.18,1.17.33v-6a4,4,0,0,0-1.22.18Zm-1.4,12.36a4,4,0,0,0,2.62,1.19V82.5A17.47,17.47,0,0,1,129.7,82a4.63,4.63,0,0,1-1.45-.75,3.71,3.71,0,0,1-1-1.23,4.76,4.76,0,0,1,0-3.61,3.9,3.9,0,0,1,1-1.32,4.14,4.14,0,0,1,1.44-.84,5.16,5.16,0,0,1,1.76-.29V72.32h.84V74a4.81,4.81,0,0,1,1.78.33,4.41,4.41,0,0,1,2.45,2.42,4.62,4.62,0,0,1,.33,1.92h-1.35a3.74,3.74,0,0,0-.91-2.57,3,3,0,0,0-2.3-1v6.2c.62.13,1.22.29,1.82.47a5.89,5.89,0,0,1,1.59.78,3.84,3.84,0,0,1,1.13,1.24,3.66,3.66,0,0,1,.43,1.88,3.93,3.93,0,0,1-1.54,3.21,4.78,4.78,0,0,1-1.59.81,6.7,6.7,0,0,1-1.84.26v1.83h-.84V90a5.5,5.5,0,0,1-3.67-1.48,5.6,5.6,0,0,1-1.24-3.71h1.36a4.2,4.2,0,0,0,.93,2.9Z"/><path class="cls-3" d="M149.12,90.67V74.38a3.3,3.3,0,0,0-1.66-2.87l-14.11-8.15a3.32,3.32,0,0,0-3.31,0l-14.11,8.15a3.3,3.3,0,0,0-1.66,2.87V90.67a3.31,3.31,0,0,0,1.66,2.87L130,101.69a3.32,3.32,0,0,0,3.31,0l14.11-8.15a3.31,3.31,0,0,0,1.66-2.87Z"/><path class="cls-2" d="M133.6,158.11a3.38,3.38,0,0,0,1.16-.56,2.94,2.94,0,0,0,1.13-2.41,2.33,2.33,0,0,0-.34-1.29,2.65,2.65,0,0,0-.85-.85,4.6,4.6,0,0,0-1.16-.55,12.91,12.91,0,0,0-1.27-.37v6.2a5.33,5.33,0,0,0,1.33-.17Zm-3.39-13.38a2.64,2.64,0,0,0-1.7,1.57,4,4,0,0,0-.25,1.45,2.46,2.46,0,0,0,.27,1.23,2.28,2.28,0,0,0,.71.77,3.69,3.69,0,0,0,1,.48l1.17.32v-6a4,4,0,0,0-1.22.19Zm-1.4,12.36a4.07,4.07,0,0,0,2.62,1.19v-6.37c-.6-.13-1.18-.29-1.73-.46a4.45,4.45,0,0,1-1.45-.76,3.52,3.52,0,0,1-1-1.23,4.74,4.74,0,0,1,0-3.6,4,4,0,0,1,1-1.33,4.48,4.48,0,0,1,1.44-.84,5.41,5.41,0,0,1,1.76-.29v-1.68h.84v1.68a4.62,4.62,0,0,1,1.78.34,4.57,4.57,0,0,1,1.46.94,4.47,4.47,0,0,1,1,1.48,4.57,4.57,0,0,1,.33,1.92h-1.35a3.76,3.76,0,0,0-.91-2.58,3,3,0,0,0-2.3-1v6.21a18.68,18.68,0,0,1,1.82.47,5.87,5.87,0,0,1,1.59.77,3.94,3.94,0,0,1,1.13,1.24,3.72,3.72,0,0,1,.43,1.89,4,4,0,0,1-.42,1.86,3.85,3.85,0,0,1-1.12,1.34,4.78,4.78,0,0,1-1.59.81,6.35,6.35,0,0,1-1.84.27v1.83h-.84v-1.85a5.5,5.5,0,0,1-3.67-1.49,5.57,5.57,0,0,1-1.24-3.7h1.36a4.22,4.22,0,0,0,.93,2.9Z"/><path class="cls-3" d="M149.12,160.08v-16.3a3.31,3.31,0,0,0-1.66-2.87l-14.11-8.14a3.27,3.27,0,0,0-3.31,0l-14.11,8.14a3.31,3.31,0,0,0-1.66,2.87v16.3a3.32,3.32,0,0,0,1.66,2.87L130,171.09a3.32,3.32,0,0,0,3.31,0L147.46,163a3.32,3.32,0,0,0,1.66-2.87Z"/></svg>