<svg id="Layer_1" data-name="Layer 1" xmlns="http://www.w3.org/2000/svg" viewBox="0 0 200 200"><defs><style>.cls-1{fill:none;stroke:#fff;stroke-linecap:round;stroke-width:3.31px;}.cls-2{fill:#fff;}</style></defs><path class="cls-1" d="M75.71,139.32V106.07M53.56,139.32V91.51m22.15-6.67v54.48m22.15-67.2v78.64m44.31-87v75.59M120,80.4v58.92M31.41,150.76V94.63m132.91,56.13V52.27m0,98.49c-33.23,0-33.23-56.13-66.46-56.13m0,56.13c-33.22,0-33.22-56.13-66.45-56.13m66.45,0c-33.22,0-33.22,56.13-66.45,56.13M164.32,94.63c-33.23,0-33.23,56.13-66.46,56.13"/><path class="cls-2" d="M57.3,91.51a3.74,3.74,0,1,0-3.74,3.73,3.74,3.74,0,0,0,3.74-3.73Z"/><path class="cls-2" d="M79.45,84.84a3.74,3.74,0,1,0-3.74,3.73,3.73,3.73,0,0,0,3.74-3.73Z"/><path class="cls-2" d="M101.6,72.12a3.74,3.74,0,1,0-3.74,3.74,3.73,3.73,0,0,0,3.74-3.74Z"/><path class="cls-2" d="M123.75,80.4A3.74,3.74,0,1,0,120,84.13a3.74,3.74,0,0,0,3.73-3.73Z"/><path class="cls-2" d="M145.91,63.73a3.74,3.74,0,1,0-3.74,3.74,3.74,3.74,0,0,0,3.74-3.74Z"/><path class="cls-2" d="M168.06,52.27A3.74,3.74,0,1,0,164.32,56a3.74,3.74,0,0,0,3.74-3.74Z"/></svg>