<svg id="Layer_1" data-name="Layer 1" xmlns="http://www.w3.org/2000/svg" viewBox="0 0 200 200"><defs><style>.cls-1,.cls-2{fill:none;stroke:#fff;stroke-width:3.32px;}.cls-1{stroke-miterlimit:10;}</style></defs><path class="cls-1" d="M153.32,121.27V77.55m-45.5,78.84,37.67-21.75m-90.92,0,37.67,21.75M46.74,77.61v43.66M92,42.44,54.47,64.12m90.68-.25L107.87,42.35m0,52.47,37.44-21.61m-90.26.17L92.48,95M100,108.48V151.4"/><path class="cls-2" d="M109.76,38.53A9.73,9.73,0,1,0,100,48.25a9.73,9.73,0,0,0,9.73-9.72Zm0,121.78A9.73,9.73,0,1,0,100,170a9.73,9.73,0,0,0,9.73-9.72Zm0-61a9.73,9.73,0,1,0-9.73,9.73,9.73,9.73,0,0,0,9.73-9.73ZM57,68.87a9.73,9.73,0,1,0-9.73,9.73A9.73,9.73,0,0,0,57,68.87Zm0,61.25a9.73,9.73,0,1,0-9.73,9.72A9.73,9.73,0,0,0,57,130.12Zm105.58,0a9.73,9.73,0,1,0-9.73,9.72,9.73,9.73,0,0,0,9.73-9.72Zm0-61.25a9.73,9.73,0,1,0-9.73,9.73,9.73,9.73,0,0,0,9.73-9.73Z"/></svg>