<svg id="Layer_1" data-name="Layer 1" xmlns="http://www.w3.org/2000/svg" viewBox="0 0 200 200"><title>Artboard 1</title><path d="M75.47,163c-.11-8.28,0-16.9.11-25.18s6.13-13.83,15.17-14c6.31-.09,12.63-.12,18.94,0,8.44.2,14,5.54,14.1,13.39v13c0,4.3-.06,8.42,0,12.63Zm37.45-86.78a1.87,1.87,0,0,0,.75-1.83l-2.16-12.6,9.16-8.93a1.87,1.87,0,0,0,0-2.64h0a1.91,1.91,0,0,0-1.07-.55L107,47.85l-5.7-11.46a1.94,1.94,0,0,0-3.37,0L92.27,47.85,79.6,49.69A1.87,1.87,0,0,0,78,51.81h0a1.82,1.82,0,0,0,.55,1.07l9.16,8.93-2.16,12.6a1.89,1.89,0,0,0,1.54,2.17,1.93,1.93,0,0,0,1.18-.19l11.33-6,11.34,6a1.88,1.88,0,0,0,2-.15Zm21.83,87c-.1-6.9,0-14,.11-20.92S140,130.8,147.5,130.7c5.26-.08,10.52-.11,15.78,0,7,.16,11.66,4.61,11.75,11.15.05,3.63,0,7.25,0,10.88v10.52Zm30.79-72.56a1.48,1.48,0,0,0,.6-1.47l-1.73-10.08L171.74,72a1.5,1.5,0,0,0,0-2.13,1.42,1.42,0,0,0-.86-.43L160.77,68l-4.53-9.18a1.56,1.56,0,0,0-2.14-.55h0a1.45,1.45,0,0,0-.55.55L149,68l-10.13,1.47a1.5,1.5,0,0,0-1.28,1.69h0A1.55,1.55,0,0,0,138,72l7.33,7.14-1.73,10.08A1.49,1.49,0,0,0,144.84,91h0a1.45,1.45,0,0,0,1-.15L155,86.09,164,90.83a1.5,1.5,0,0,0,1.58-.11ZM24.21,163.28c-.1-6.9,0-14,.11-20.92s5.1-11.53,12.64-11.63c5.26-.08,10.52-.11,15.78,0,7,.16,11.66,4.61,11.75,11.15.05,3.63,0,7.25,0,10.88v10.52ZM55,90.72a1.48,1.48,0,0,0,.6-1.47L53.87,79.17,61.2,72a1.5,1.5,0,0,0,0-2.12h0a1.42,1.42,0,0,0-.86-.43L50.23,68l-4.52-9.18a1.56,1.56,0,0,0-2.14-.55h0a1.48,1.48,0,0,0-.56.55L38.48,68,28.35,69.47a1.51,1.51,0,0,0-1.24,1.74,1.57,1.57,0,0,0,.4.79l7.34,7.14L33.12,89.25A1.5,1.5,0,0,0,34.35,91a1.53,1.53,0,0,0,.94-.15l9.07-4.76,9.06,4.76A1.5,1.5,0,0,0,55,90.72Zm58.05,12.61A13.44,13.44,0,1,0,99.6,116.76h0a13.43,13.43,0,0,0,13.44-13.42Zm53.3,9a11.47,11.47,0,1,0-11.48,11.46h0A11.47,11.47,0,0,0,166.35,112.33Zm-110.53,0a11.47,11.47,0,1,0-11.48,11.46h0A11.46,11.46,0,0,0,55.82,112.33Z" style="fill:none;stroke:#fff;stroke-miterlimit:10;stroke-width:3.319999933242798px"/></svg>