<svg id="Layer_1" data-name="Layer 1" xmlns="http://www.w3.org/2000/svg" viewBox="0 0 1440 758.95"><title>Artboard 1</title><polyline points="0 0 0 758.95 1440 758.95 1440 0" style="fill:#313c54"/><path d="M639,330.6H782.14a48.23,48.23,0,0,1,41.73,24.11l54.8,94.9,16.77,29.08a48.28,48.28,0,0,1,0,48.19L840,623l-16.1,27.91A48.17,48.17,0,0,1,782.14,675H639.06a48.27,48.27,0,0,1-41.75-24.12l-54.43-94.33-1.42-2.43h0l-15.77-27.23a48.28,48.28,0,0,1,0-48.19l53.95-93.47,17.61-30.51A48.3,48.3,0,0,1,639,330.59" style="fill:#313c54"/><path d="M639,330.6H782.14a48.23,48.23,0,0,1,41.73,24.11l54.8,94.9,16.77,29.08a48.28,48.28,0,0,1,0,48.19L840,623l-16.1,27.91A48.17,48.17,0,0,1,782.14,675H639.06a48.27,48.27,0,0,1-41.75-24.12l-54.43-94.33-1.42-2.43h0l-15.77-27.23a48.28,48.28,0,0,1,0-48.19l53.95-93.47,17.61-30.51A48.3,48.3,0,0,1,639,330.59" style="fill:none;stroke:#fff;stroke-miterlimit:10;stroke-width:0.8776183358172651px"/><path d="M807,84.65H950.17a48.24,48.24,0,0,1,41.75,24.11l54.8,94.9,16.77,29.09a48.26,48.26,0,0,1,0,48.18L1008.08,377,992,404.93a48.19,48.19,0,0,1-41.74,24.12H807.11a48.25,48.25,0,0,1-41.73-24.12L710.9,310.6l-1.41-2.43h0l-15.75-27.23a48.31,48.31,0,0,1,0-48.18l53.94-93.48,17.62-30.52A48.32,48.32,0,0,1,807,84.64" style="fill:#313c54"/><path d="M807,84.65H950.17a48.24,48.24,0,0,1,41.75,24.11l54.8,94.9,16.77,29.09a48.26,48.26,0,0,1,0,48.18L1008.08,377,992,404.93a48.19,48.19,0,0,1-41.74,24.12H807.11a48.25,48.25,0,0,1-41.73-24.12L710.9,310.6l-1.41-2.43h0l-15.75-27.23a48.31,48.31,0,0,1,0-48.18l53.94-93.48,17.62-30.52A48.32,48.32,0,0,1,807,84.64" style="fill:none;stroke:#fff;stroke-miterlimit:10;stroke-width:0.8776183358172651px"/><path d="M490.77,84.65H633.85a48.24,48.24,0,0,1,41.75,24.11l54.79,94.9,16.78,29.09a48.26,48.26,0,0,1,0,48.18L691.7,377l-16.1,27.91a48.19,48.19,0,0,1-41.75,24.12H490.77A48.26,48.26,0,0,1,449,404.93L394.58,310.6l-1.41-2.43h0l-15.78-27.23a48.31,48.31,0,0,1,0-48.18l53.95-93.48L449,108.76a48.26,48.26,0,0,1,41.79-24.11" style="fill:#313c54"/><path d="M490.77,84.65H633.85a48.24,48.24,0,0,1,41.75,24.11l54.79,94.9,16.78,29.09a48.26,48.26,0,0,1,0,48.18L691.7,377l-16.1,27.91a48.19,48.19,0,0,1-41.75,24.12H490.77A48.26,48.26,0,0,1,449,404.93L394.58,310.6l-1.41-2.43h0l-15.78-27.23a48.31,48.31,0,0,1,0-48.18l53.95-93.48L449,108.76a48.26,48.26,0,0,1,41.79-24.11" style="fill:none;stroke:#fff;stroke-miterlimit:10;stroke-width:0.8776183358172651px"/><path d="M636.74,327.83H757c8,0-25.25,56.37-86.93,91.55-50.56,28.81-131.66,38.4-128.45,32.77l45.29-78.52L601.72,348a40.49,40.49,0,0,1,35-20.12" style="fill:#313c54"/><path d="M682.55,279.19h56.09A18.86,18.86,0,0,1,755,288.62l21.47,37.17L783,337.2a18.78,18.78,0,0,1,0,18.87l-21.74,37.61-6.33,10.91A18.93,18.93,0,0,1,738.62,414H682.49a18.89,18.89,0,0,1-16.32-9.44l-21.3-36.95-.57-.91h0l-6.15-10.67a18.78,18.78,0,0,1,0-18.87l21.13-36.57,6.89-12a19,19,0,0,1,16.38-9.37" style="fill:#fff"/><path d="M506.71,172.61h14.86c5,0,8.07,3.43,8.07,7.62,0,3.22-1.3,5.64-4.35,6.89v.06c3,.79,3.84,3.66,4,6.4.11,1.75.06,5,1.19,6.56h-6c-.74-1.76-.69-4.41-.92-6.62-.45-2.88-1.52-4.18-4.57-4.18h-6v10.85h-6V172.61Zm6,12.48h6.67c2.74,0,4.18-1.19,4.18-4s-1.47-3.81-4.18-3.81h-6.67Z" style="fill:#fff"/><path d="M533.43,186.33c.28-5.14,4.91-6.67,9.37-6.67,4,0,8.76.92,8.76,5.65V195.7a10.42,10.42,0,0,0,.67,4.47H546.7a10.48,10.48,0,0,1-.39-1.93,9.26,9.26,0,0,1-6.73,2.49c-3.78,0-6.77-1.83-6.77-6,0-4.52,3.39-5.59,6.77-6s6.5-.4,6.5-2.6c0-2.37-1.64-2.74-3.56-2.74-2.09,0-3.44.84-3.65,3h-5.49Zm12.65,4.07c-.91.78-2.88.84-4.57,1.18s-3.22.91-3.22,2.94,1.58,2.54,3.34,2.54c4.29,0,4.46-3.39,4.46-4.57v-2.08Z" style="fill:#fff"/><path d="M555.45,180.17h5.21v2.54h.05a6.61,6.61,0,0,1,5.93-3.1c6.27,0,9.09,5.08,9.09,10.73,0,5.31-2.93,10.33-8.75,10.33a7.05,7.05,0,0,1-6-3h0v9.5h-5.49Zm14.86,10.05c0-3.16-1.3-6.4-4.8-6.4s-4.75,3.22-4.75,6.4,1.25,6.33,4.8,6.33S570.31,193.5,570.31,190.22Z" style="fill:#fff"/><path d="M584.32,177.12h-5.49v-4.51h5.49Zm-5.49,3h5.49v19.94h-5.49Z" style="fill:#fff"/><path d="M602.51,197.62h-.06a6.7,6.7,0,0,1-6.05,3.11c-6,0-9-5.19-9-10.67s3-10.34,8.86-10.34a6.89,6.89,0,0,1,5.94,3h.08V172.65h5.49v27.54h-5.25Zm-4.77-13.83c-3.66,0-4.81,3.11-4.81,6.4,0,3.11,1.42,6.4,4.81,6.4,3.61,0,4.68-3.17,4.68-6.4S601.27,183.79,597.74,183.79Z" style="fill:#fff"/><path d="M465.36,218.81h4v3.65h-4v9.89c0,1.82.45,2.31,2.32,2.31a8.73,8.73,0,0,0,1.69-.17v4.29a19.21,19.21,0,0,1-3.22.18c-3.33,0-6.27-.8-6.27-4.75V222.48h-3.33v-3.66h3.33v-6h5.49Z" style="fill:#fff"/><path d="M476.21,230.11c.16,3.5,1.83,5.08,4.91,5.08a4.59,4.59,0,0,0,4.35-2.6h4.8c-1.52,4.68-4.8,6.72-9.31,6.72-6.28,0-10.18-4.35-10.18-10.5,0-6,4.12-10.57,10.18-10.57,6.77,0,10.05,5.7,9.71,11.88Zm8.92-3.45c-.51-2.74-1.7-4.23-4.35-4.23a4.33,4.33,0,0,0-4.56,4.1.57.57,0,0,0,0,.13Z" style="fill:#fff"/><path d="M507.1,225.79a3.71,3.71,0,0,0-4-3.45H503c-3.51,0-4.69,3.57-4.69,6.5s1.13,6.28,4.57,6.28c2.54,0,4-1.64,4.34-4.07h5.31c-.67,5.31-4.34,8.23-9.6,8.23-6,0-10.06-4.25-10.06-10.23,0-6.21,3.73-10.79,10.17-10.79,4.69,0,9,2.48,9.38,7.57Z" style="fill:#fff"/><path d="M515.3,211.16h5.48v10.4h.11a7,7,0,0,1,5.83-3.34c5.81,0,7.31,3.28,7.31,8.23v12.26h-5.49V227.45c0-3.28-.91-4.91-3.5-4.91-3,0-4.23,1.63-4.23,5.7v10.51h-5.49V211.16Z" style="fill:#fff"/><path d="M537.89,218.81h5.19v2.74h.12a7.11,7.11,0,0,1,6.1-3.34c5.81,0,7.31,3.28,7.31,8.23V238.7h-5.48V227.45c0-3.28-.92-4.91-3.5-4.91-3,0-4.25,1.63-4.25,5.7v10.51H537.9V218.81Z" style="fill:#fff"/><path d="M570.08,218.3c6.27,0,10.34,4.18,10.34,10.56s-4.07,10.51-10.34,10.51-10.33-4.18-10.33-10.51S563.91,218.3,570.08,218.3Zm0,16.89c3.73,0,4.87-3.22,4.87-6.4s-1.14-6.4-4.87-6.4-4.8,3.22-4.8,6.4S566.42,235.19,570.08,235.19Z" style="fill:#fff"/><path d="M583.76,211.16h5.49v27.57h-5.49Z" style="fill:#fff"/><path d="M602.9,218.3c6.28,0,10.34,4.18,10.34,10.56s-4.06,10.51-10.34,10.51-10.34-4.18-10.34-10.51S596.63,218.3,602.9,218.3Zm0,16.89c3.74,0,4.86-3.22,4.86-6.4s-1.12-6.4-4.86-6.4-4.8,3.22-4.8,6.4S599.17,235.19,602.9,235.19Z" style="fill:#fff"/><path d="M635.61,237.5c0,3.29-1.19,8.87-10.34,8.87-3.95,0-8.52-1.83-8.81-6.4h5.43c.5,2,2.14,2.74,4.06,2.74,3,0,4.47-2.09,4.4-5v-2.6h-.05a6.77,6.77,0,0,1-6,3.11c-6,0-8.53-4.57-8.53-10.05,0-5.2,3-9.89,8.59-9.89a6.24,6.24,0,0,1,5.93,3.22h.05v-2.65h5.2v18.58Zm-5.19-9c0-3.21-1.14-6.16-4.69-6.16-3.11,0-4.47,2.74-4.47,5.65s1.07,6,4.47,6C628.83,234,630.42,231.4,630.42,228.53Z" style="fill:#fff"/><path d="M649.45,241.33c-1.19,3.22-3.11,4.52-6.89,4.52-1.12,0-2.23,0-3.34-.16v-4.52a31.41,31.41,0,0,0,3.22.16c1.83-.16,2.49-2.15,1.83-3.73l-7-18.75h5.88l4.52,13.67h.05l4.36-13.67h5.65Z" style="fill:#fff"/><path d="M469.55,257.44h4v3.66h-4V271c0,1.83.44,2.32,2.31,2.32a8.73,8.73,0,0,0,1.69-.17v4.29a18.25,18.25,0,0,1-3.22.17c-3.33,0-6.27-.79-6.27-4.74V261.12h-3.33v-3.66h3.33v-6h5.49Z" style="fill:#fff"/><path d="M475.86,257.44h5.21v3.73h.05a7.14,7.14,0,0,1,6.4-4.24,4,4,0,0,1,1.19.18v5.08a10.06,10.06,0,0,0-2-.17c-4,0-5.42,2.88-5.42,6.4v9h-5.48V257.44Z" style="fill:#fff"/><path d="M490.27,263.54c.29-5.14,4.91-6.66,9.37-6.66,4,0,8.76.91,8.76,5.65v10.39a10.46,10.46,0,0,0,.68,4.46h-5.49a12.35,12.35,0,0,1-.4-1.92,9.18,9.18,0,0,1-6.72,2.49c-3.78,0-6.77-1.83-6.77-6,0-4.51,3.39-5.59,6.77-6s6.5-.4,6.5-2.6c0-2.37-1.63-2.74-3.55-2.74-2.1,0-3.45.85-3.66,3h-5.49ZM503,267.61c-.91.8-2.88.85-4.57,1.19s-3.23.91-3.23,2.93,1.58,2.55,3.34,2.55c4.29,0,4.46-3.4,4.46-4.58v-2.09Z" style="fill:#fff"/><path d="M512.36,257.44h5.19v2.75h.11a7.14,7.14,0,0,1,6.1-3.34c5.83,0,7.32,3.28,7.32,8.23v12.26h-5.49V266.08c0-3.27-1-4.91-3.5-4.91-3,0-4.23,1.64-4.23,5.71v10.45h-5.49V257.44Z" style="fill:#fff"/><path d="M539.13,270.88c.06,2.38,2,3.34,4.24,3.34,1.58,0,3.65-.62,3.65-2.54,0-1.64-2.26-2.26-6.21-3.11-3.17-.68-6.33-1.83-6.33-5.31,0-5.08,4.41-6.4,8.7-6.4s8.36,1.47,8.81,6.4h-5.2c-.17-2.14-1.75-2.74-3.73-2.74-1.24,0-3,.22-3,1.82,0,2,3.1,2.26,6.21,3s6.32,1.83,6.32,5.6c0,5.25-4.57,6.95-9.09,6.95s-9.15-1.76-9.37-7h5Z" style="fill:#fff"/><path d="M555.45,249.82h5.49v27.56h-5.49Z" style="fill:#fff"/><path d="M564.6,263.54c.29-5.14,4.92-6.66,9.39-6.66,4,0,8.75.91,8.75,5.65v10.39a10.48,10.48,0,0,0,.67,4.46h-5.53a10.38,10.38,0,0,1-.39-1.92,9.25,9.25,0,0,1-6.72,2.49c-3.79,0-6.79-1.83-6.79-6,0-4.51,3.4-5.59,6.79-6s6.49-.4,6.49-2.6c0-2.37-1.64-2.74-3.56-2.74-2.09,0-3.44.85-3.66,3h-5.48Zm12.71,4.07c-.91.8-2.88.85-4.57,1.19s-3.22.91-3.22,2.93,1.59,2.55,3.33,2.55c4.3,0,4.46-3.4,4.46-4.58v-2.09Z" style="fill:#fff"/><path d="M593.64,257.44h4v3.66h-4V271c0,1.83.45,2.32,2.32,2.32a8.81,8.81,0,0,0,1.69-.17v4.29a18.25,18.25,0,0,1-3.22.17c-3.33,0-6.27-.79-6.27-4.74V261.12h-3.33v-3.66h3.33v-6h5.48Z" style="fill:#fff"/><path d="M605.56,254.33h-5.49v-4.51h5.49Zm-5.49,3.11h5.49v19.94h-5.49Z" style="fill:#fff"/><path d="M619.17,256.88c6.27,0,10.34,4.18,10.34,10.57S625.44,278,619.17,278s-10.33-4.19-10.33-10.5S613,256.88,619.17,256.88Zm0,16.95c3.73,0,4.86-3.23,4.86-6.4s-1.13-6.4-4.86-6.4-4.8,3.23-4.8,6.4S615.5,273.83,619.17,273.83Z" style="fill:#fff"/><path d="M632.73,257.44H638v2.75h.12a7.09,7.09,0,0,1,6.1-3.34c5.81,0,7.31,3.28,7.31,8.23v12.26H646V266.08c0-3.27-1-4.91-3.5-4.91-3,0-4.24,1.64-4.24,5.71v10.45h-5.49Z" style="fill:#fff"/><path d="M800.89,172.61h13c5.25,0,8.81,1.69,8.81,6.83A6.09,6.09,0,0,1,819,185.2c3.33.91,5.09,3.56,5.09,7,0,5.59-4.75,8-9.72,8H800.94V172.61Zm6,11.12h6.15c2.15,0,3.73-1,3.73-3.28,0-2.6-2-3.16-4.17-3.16H807v6.44Zm0,11.7h6.49c2.38,0,4.46-.8,4.46-3.66s-1.74-4-4.34-4h-6.61Z" style="fill:#fff"/><path d="M845.85,200.19h-5.2v-2.74h-.11a7.14,7.14,0,0,1-6.1,3.33c-5.82,0-7.31-3.28-7.31-8.23V180.29h5.48v11.3c0,3.28,1,4.92,3.51,4.92,3,0,4.23-1.64,4.23-5.71V180.29h5.48Z" style="fill:#fff"/><path d="M855.28,177.12h-5.49v-4.51h5.49Zm-5.49,3h5.49v19.94h-5.49Z" style="fill:#fff"/><path d="M859.35,172.61h5.48v27.58h-5.48Z" style="fill:#fff"/><path d="M883.07,197.62H883a6.68,6.68,0,0,1-6,3.11c-6.05,0-9-5.19-9-10.67s3-10.34,8.87-10.34a6.86,6.86,0,0,1,5.93,3h.06V172.65h5.48v27.54h-5.19v-2.61Zm-4.8-13.83c-3.65,0-4.8,3.11-4.8,6.4,0,3.11,1.41,6.4,4.8,6.4,3.62,0,4.69-3.17,4.69-6.4S881.83,183.79,878.27,183.79Z" style="fill:#fff"/><path d="M902.34,172.61h5.48V183h.11a7,7,0,0,1,5.83-3.33c5.81,0,7.31,3.28,7.31,8.23v12.3h-5.48V188.87c0-3.27-1-4.92-3.51-4.92-3,0-4.23,1.65-4.23,5.71v10.45h-5.48v-27.5Z" style="fill:#fff"/><path d="M930.54,177.12h-5.48v-4.51h5.48Zm-5.48,3h5.48v19.94h-5.48Z" style="fill:#fff"/><path d="M953.68,198.86c0,3.29-1.18,8.87-10.34,8.87-4,0-8.53-1.83-8.81-6.4H940c.51,2,2.15,2.75,4.07,2.75,3.05,0,4.46-2.1,4.41-5v-2.57h-.06a6.75,6.75,0,0,1-6,3.11c-6,0-8.53-4.57-8.53-10.06,0-5.19,3-9.88,8.59-9.88a6.22,6.22,0,0,1,5.93,3.22h.06v-2.65h5.19v18.58Zm-5.2-8.92c0-3.22-1.13-6.15-4.69-6.15-3.11,0-4.46,2.74-4.46,5.65s1.08,6,4.46,6c3.11,0,4.69-2.66,4.69-5.49Z" style="fill:#fff"/><path d="M957.69,172.61h5.49V183h.11a7,7,0,0,1,5.82-3.33c5.81,0,7.31,3.28,7.31,8.23v12.3h-5.48V188.87c0-3.27-.92-4.92-3.5-4.92-3,0-4.25,1.65-4.25,5.71v10.45h-5.48v-27.5Z" style="fill:#fff"/><path d="M849.91,245.8h-5.48v-9.54h-.06c-1.3,2.15-3.89,3.05-6.27,3.05-3.66,0-8.48-2.65-8.48-10.39,0-5.49,2.89-10.68,9-10.68a6.56,6.56,0,0,1,6,3.11h.06v-2.54h5.19v27Zm-10.06-10.61c3.56,0,4.8-3,4.8-6.27,0-3.11-1.24-6.49-4.69-6.49s-4.85,3.16-4.85,6.4,1.13,6.36,4.75,6.36Z" style="fill:#fff"/><path d="M872.39,238.75H867.2V236h-.11a7.14,7.14,0,0,1-6.11,3.34c-5.81,0-7.31-3.27-7.31-8.23v-12.3h5.49v11.3c0,3.27.91,4.91,3.5,4.91,3,0,4.23-1.64,4.23-5.71V218.86h5.49Z" style="fill:#fff"/><path d="M876,225c.28-5.15,4.92-6.67,9.38-6.67,3.95,0,8.76.92,8.76,5.64v10.4c0,1.83.17,3.66.68,4.46h-5.54a11.49,11.49,0,0,1-.4-1.92,9.22,9.22,0,0,1-6.72,2.49c-3.78,0-6.77-1.83-6.77-6,0-4.52,3.38-5.59,6.77-6s6.5-.4,6.5-2.6c0-2.38-1.64-2.74-3.56-2.74-2.09,0-3.45.85-3.66,3h-5.48ZM888.67,229c-.92.79-2.89.85-4.57,1.19s-3.22.91-3.22,2.93,1.58,2.54,3.33,2.54c4.29,0,4.47-3.38,4.47-4.57Z" style="fill:#fff"/><path d="M898.21,211.16h5.49v27.57h-5.49Z" style="fill:#fff"/><path d="M913.24,215.73h-5.49v-4.57h5.49Zm-5.49,3.11h5.49v19.94h-5.49Z" style="fill:#fff"/><path d="M924.14,218.81h4v3.65h-4v9.89c0,1.82.46,2.31,2.33,2.31a8.81,8.81,0,0,0,1.69-.17v4.29a19.26,19.26,0,0,1-3.22.18c-3.34,0-6.27-.8-6.27-4.75V222.48h-3.33v-3.66h3.32v-6h5.48Z" style="fill:#fff"/><path d="M940.29,241.33c-1.18,3.22-3.11,4.52-6.88,4.52-1.12,0-2.23,0-3.34-.16v-4.52a31.41,31.41,0,0,0,3.22.16c1.83-.16,2.48-2.15,1.83-3.73l-7-18.75H934l4.57,13.67h.06L943,218.85h5.64Z" style="fill:#fff"/><path d="M804.44,264.45a3.73,3.73,0,0,0-4-3.46h-.09c-3.51,0-4.7,3.56-4.7,6.5s1.14,6.26,4.58,6.26c2.54,0,4-1.63,4.35-4.06h5.3c-.68,5.31-4.34,8.23-9.6,8.23-6,0-10.06-4.23-10.06-10.22,0-6.21,3.73-10.79,10.17-10.79,4.69,0,9,2.49,9.38,7.57Z" style="fill:#fff"/><path d="M822.36,256.88c6.26,0,10.33,4.18,10.33,10.57S828.62,278,822.36,278,812,273.76,812,267.45,816.08,256.88,822.36,256.88Zm0,16.95c3.72,0,4.85-3.23,4.85-6.4s-1.13-6.4-4.85-6.4-4.81,3.23-4.81,6.4S818.62,273.83,822.36,273.83Z" style="fill:#fff"/><path d="M836,257.44h5.2v2.75h0a7.17,7.17,0,0,1,6.1-3.23c2.49,0,4.75.91,5.82,3.34a7.22,7.22,0,0,1,6-3.34c4.23,0,7.31,2,7.31,7.12v13.39h-5.48V266.14c0-2.65-.22-4.86-3.33-4.86s-3.66,2.55-3.66,5.09v11.12H848.6V266.31c0-2.31.17-5-3.33-5-1.08,0-3.73.68-3.73,4.57v11.58h-5.49V257.44Z" style="fill:#fff"/><path d="M870.47,257.44h5.22V260h0a6.59,6.59,0,0,1,5.93-3.11c6.27,0,9.14,5.08,9.14,10.73,0,5.31-2.94,10.34-8.75,10.34a7.08,7.08,0,0,1-6-3H876v9.49h-5.49v-27Zm14.86,10c0-3.17-1.3-6.45-4.8-6.45s-4.74,3.22-4.74,6.45,1.24,6.31,4.8,6.31S885.33,270.72,885.33,267.45Z" style="fill:#fff"/><path d="M893.47,263.54c.28-5.14,4.91-6.66,9.37-6.66,4,0,8.76.91,8.76,5.65v10.39a10.16,10.16,0,0,0,.68,4.46h-5.51a12.33,12.33,0,0,1-.39-1.92,9.19,9.19,0,0,1-6.72,2.49c-3.79,0-6.78-1.83-6.78-6,0-4.51,3.39-5.59,6.78-6s6.5-.4,6.5-2.6c0-2.37-1.65-2.74-3.57-2.74-2.08,0-3.44.85-3.61,3H893.5Zm12.65,4.07c-.91.8-2.89.85-4.57,1.19s-3.22.91-3.22,2.93,1.59,2.55,3.33,2.55c4.3,0,4.47-3.4,4.47-4.58v-2.09Z" style="fill:#fff"/><path d="M915.49,257.44h5.2v2.75h.12a7.06,7.06,0,0,1,6.08-3.31c5.81,0,7.31,3.28,7.31,8.23v12.26h-5.48V266.08c0-3.27-.92-4.91-3.51-4.91-3,0-4.24,1.64-4.24,5.71v10.45h-5.48V257.44Z" style="fill:#fff"/><path d="M943.74,254.33h-5.49v-4.51h5.49Zm-5.49,3.11h5.49v19.94h-5.49Z" style="fill:#fff"/><path d="M952.16,268.76c.16,3.5,1.83,5.09,4.91,5.09a4.61,4.61,0,0,0,4.35-2.61h4.78c-1.52,4.69-4.8,6.73-9.31,6.73-6.28,0-10.17-4.35-10.17-10.51,0-6,4.12-10.57,10.17-10.57,6.77,0,10.05,5.71,9.71,11.89Zm8.92-3.5c-.51-2.74-1.7-4.24-4.35-4.24a4.34,4.34,0,0,0-4.57,4.11v.13Z" style="fill:#fff"/><path d="M973.74,270.88c0,2.38,2,3.34,4.23,3.34,1.58,0,3.66-.62,3.66-2.54,0-1.64-2.26-2.26-6.21-3.11-3.17-.68-6.33-1.83-6.33-5.31,0-5.08,4.41-6.4,8.7-6.4s8.36,1.47,8.81,6.4h-5.19c-.18-2.14-1.76-2.74-3.73-2.74-1.25,0-3.06.22-3.06,1.82,0,2,3.11,2.26,6.22,3s6.33,1.83,6.33,5.6c0,5.25-4.57,6.95-9.15,6.95s-9.14-1.76-9.37-7h5.09Z" style="fill:#fff"/><path d="M597.59,473.84h11.89c7.11,0,12.48,4.46,12.48,13.61,0,8-4.07,14-12.48,14H597.59Zm6,22.48h5.42c3.5,0,6.89-2.15,6.89-8.23,0-5.54-1.92-9.14-8-9.14h-4.35Z" style="fill:#fff"/><path d="M629.74,492.77c.17,3.5,1.83,5.08,4.92,5.08a4.61,4.61,0,0,0,4.35-2.6h4.8c-1.53,4.68-4.8,6.72-9.33,6.72-6.26,0-10.16-4.35-10.16-10.5,0-6,4.12-10.57,10.16-10.57,6.79,0,10.06,5.7,9.72,11.88Zm8.93-3.45c-.51-2.74-1.7-4.24-4.35-4.24a4.36,4.36,0,0,0-4.57,4.14v.1Z" style="fill:#fff"/><path d="M651.54,492.77c.17,3.5,1.83,5.08,4.92,5.08a4.59,4.59,0,0,0,4.34-2.6h4.8c-1.52,4.68-4.8,6.72-9.32,6.72-6.27,0-10.17-4.35-10.17-10.5s4.13-10.59,10.14-10.59c6.78,0,10.06,5.71,9.72,11.89Zm8.92-3.45c-.5-2.74-1.69-4.24-4.34-4.24a4.36,4.36,0,0,0-4.57,4.14v.1Z" style="fill:#fff"/><path d="M668.83,481.47H674V484h.05a6.62,6.62,0,0,1,6-3.13c6.27,0,9.09,5.08,9.09,10.73,0,5.32-2.94,10.34-8.76,10.34a7,7,0,0,1-6-3h-.06v9.49h-5.48Zm14.84,10c0-3.16-1.29-6.4-4.8-6.4s-4.74,3.23-4.74,6.4,1.24,6.33,4.81,6.33,4.74-3.11,4.74-6.33Z" style="fill:#fff"/><path d="M716.66,498.86h-.06a6.65,6.65,0,0,1-6.05,3.11c-6,0-9-5.2-9-10.68s3-10.34,8.86-10.34a6.91,6.91,0,0,1,5.94,3h0V473.89h5.49v27.57h-5.19v-2.6Zm-4.8-13.78c-3.66,0-4.8,3.11-4.8,6.4,0,3.1,1.42,6.4,4.8,6.4,3.66,0,4.69-3.17,4.69-6.4s-1.12-6.4-4.69-6.4Z" style="fill:#fff"/><path d="M735.3,481c6.28,0,10.35,4.19,10.35,10.57S741.58,502,735.3,502,725,497.85,725,491.52,729,481,735.3,481Zm0,16.9c3.73,0,4.86-3.22,4.86-6.4s-1.13-6.4-4.86-6.4-4.8,3.23-4.8,6.4S731.57,497.85,735.3,497.85Z" style="fill:#fff"/><path d="M749,481.47h5.21v2.74h.05a7.17,7.17,0,0,1,6.1-3.23c2.49,0,4.74.92,5.81,3.34a7.28,7.28,0,0,1,6.05-3.34c4.24,0,7.31,2,7.31,7.12v13.39H774V490.16c0-2.65-.23-4.85-3.33-4.85s-3.66,2.54-3.66,5.08v11.13h-5.49V490.33c0-2.31.17-5-3.33-5-1.07,0-3.72.69-3.72,4.57v11.58H749v-20Z" style="fill:#fff"/><path d="M783.2,487.62c.29-5.14,4.92-6.67,9.39-6.67,3.95,0,8.75.92,8.75,5.65V497a10.34,10.34,0,0,0,.67,4.46h-5.48a11.49,11.49,0,0,1-.4-1.92,9.22,9.22,0,0,1-6.72,2.49c-3.78,0-6.78-1.83-6.78-6,0-4.52,3.39-5.6,6.78-6s6.49-.4,6.49-2.6c0-2.38-1.63-2.74-3.55-2.74-2.1,0-3.45.85-3.66,3H783.2Zm12.71,4.07c-.91.79-2.88.85-4.57,1.19s-3.22.91-3.22,2.93,1.59,2.54,3.33,2.54c4.3,0,4.46-3.38,4.46-4.57v-2.09Z" style="fill:#fff"/><path d="M810.94,478.36h-5.48v-4.52h5.48Zm-5.54,3.11h5.49v19.94H805.4Z" style="fill:#fff"/><path d="M814.84,481.47H820v2.74h.12a7.14,7.14,0,0,1,6.1-3.34c5.81,0,7.31,3.28,7.31,8.23v12.26h-5.48V490.11c0-3.28-1-4.91-3.51-4.91-3,0-4.24,1.63-4.24,5.7v10.45h-5.48Z" style="fill:#fff"/><path d="M638.26,531.4c.17,3.5,1.83,5.08,4.92,5.08a4.6,4.6,0,0,0,4.35-2.6h4.8c-1.52,4.69-4.8,6.72-9.32,6.72-6.27,0-10.17-4.34-10.17-10.5,0-6,4.12-10.56,10.17-10.56,6.78,0,10,5.7,9.72,11.88Zm8.92-3.44c-.5-2.75-1.69-4.24-4.34-4.24a4.36,4.36,0,0,0-4.57,4.14v.1Z" style="fill:#fff"/><path d="M660.69,529.54l-6.56-9.44h6.28l3.5,5.2,3.5-5.2h6l-6.54,9.32L674.3,540H668l-4.18-6.27L659.67,540h-6.16Z" style="fill:#fff"/><path d="M675.94,520.1h5.19v2.55h.07a6.57,6.57,0,0,1,5.92-3.11c6.27,0,9.14,5.08,9.14,10.73,0,5.31-2.93,10.33-8.76,10.33a7,7,0,0,1-6-3h-.07v9.49H676Zm14.86,10c0-3.17-1.3-6.4-4.8-6.4s-4.75,3.22-4.75,6.4,1.24,6.32,4.8,6.32S690.8,533.38,690.8,530.1Z" style="fill:#fff"/><path d="M703.67,531.4c.17,3.5,1.83,5.08,4.92,5.08a4.6,4.6,0,0,0,4.35-2.6h4.8c-1.53,4.69-4.8,6.72-9.32,6.72-6.27,0-10.17-4.34-10.17-10.5,0-6,4.12-10.56,10.17-10.56,6.78,0,10.05,5.7,9.71,11.88ZM712.6,528c-.51-2.75-1.7-4.24-4.35-4.24a4.35,4.35,0,0,0-4.57,4.14v.1Z" style="fill:#fff"/><path d="M721,520.1h5.19v3.75h.07a7.11,7.11,0,0,1,6.4-4.24,4,4,0,0,1,1.18.17v5.09a9.42,9.42,0,0,0-2-.18c-4,0-5.42,2.88-5.42,6.4v9h-5.49v-20Z" style="fill:#fff"/><path d="M742.59,520.1h4v3.66h-4v9.89c0,1.83.46,2.32,2.31,2.32a8.14,8.14,0,0,0,1.71-.18v4.3a19.31,19.31,0,0,1-3.22.16c-3.34,0-6.28-.78-6.28-4.74V523.77h-3.33v-3.66h3.33v-6h5.49Z" style="fill:#fff"/><path d="M754.51,517H749v-4.52h5.48ZM749,520.1h5.48V540H749Z" style="fill:#fff"/><path d="M762.71,533.54c0,2.38,2,3.34,4.23,3.34,1.58,0,3.66-.62,3.66-2.54,0-1.64-2.26-2.26-6.21-3.11-3.17-.68-6.33-1.83-6.33-5.31,0-5.08,4.41-6.4,8.7-6.4s8.36,1.47,8.81,6.4h-5.3c-.17-2.15-1.75-2.74-3.72-2.74-1.25,0-3.06.22-3.06,1.82,0,2,3.11,2.26,6.22,3s6.33,1.83,6.33,5.6c0,5.25-4.57,6.94-9.15,6.94s-9.14-1.75-9.38-7h5.2Z" style="fill:#fff"/><path d="M783.34,531.4c.17,3.5,1.83,5.08,4.91,5.08a4.58,4.58,0,0,0,4.35-2.6h4.8c-1.52,4.69-4.8,6.72-9.31,6.72-6.27,0-10.17-4.34-10.17-10.5,0-6,4.12-10.56,10.17-10.56,6.77,0,10,5.7,9.71,11.88Zm8.93-3.44c-.52-2.75-1.71-4.24-4.36-4.24a4.33,4.33,0,0,0-4.56,4.1.66.66,0,0,0,0,.14Z" style="fill:#fff"/><path d="M695,329.46H628c-9,0-19.94,6.33-24.46,14.13L540.77,452.44" style="fill:none;stroke:#fff;stroke-width:0.8776183358172651px"/><path d="M667.53,333.25c0,2.31,1.83,3.22,3.89,3.22,1.36,0,3.39-.4,3.39-2.21s-2.66-2.2-5.2-2.88-5.25-1.69-5.25-5c0-3.61,3.39-5.3,6.55-5.3,3.66,0,7,1.58,7,5.64h-3.65c-.12-2.09-1.64-2.65-3.45-2.65-1.24,0-2.65.51-2.65,2s.84,1.53,5.25,2.66c1.29.34,5.19,1.13,5.19,5.09,0,3.21-2.54,5.65-7.31,5.65-3.9,0-7.51-1.93-7.46-6.22Z" style="fill:#eb5d0b"/><path d="M686.05,340.64c-.73,2-2,2.88-4.35,2.88-.73,0-1.41,0-2.15-.1v-2.88a12.68,12.68,0,0,0,2,.1,1.61,1.61,0,0,0,1.36-1.85,1.72,1.72,0,0,0-.18-.54l-4.46-11.89H682l2.88,8.71H685l2.75-8.71h3.65Z" style="fill:#eb5d0b"/><path d="M691.81,326.36h3.34v1.76h.05a4.59,4.59,0,0,1,3.9-2.09c3.73,0,4.63,2.09,4.63,5.25v7.79h-3.5V331.9c0-2.09-.62-3.1-2.26-3.1-1.93,0-2.74,1.07-2.74,3.65v6.67h-3.5V326.36Z" style="fill:#eb5d0b"/><path d="M714.29,330.82a2.41,2.41,0,0,0-2.59-2.21c-2.26,0-3,2.26-3,4.13s.74,4,2.88,4a2.66,2.66,0,0,0,2.74-2.58v0h3.39c-.45,3.39-2.74,5.2-6.09,5.2a6.18,6.18,0,0,1-6.45-5.9,5.8,5.8,0,0,1,0-.59c0-4,2.38-6.9,6.5-6.9,3,0,5.76,1.58,6,4.8h-3.39Z" style="fill:#eb5d0b"/><path d="M725.25,326c4,0,6.61,2.66,6.61,6.72s-2.6,6.66-6.61,6.66-6.55-2.65-6.55-6.66S721.24,326,725.25,326Zm0,10.73c2.37,0,3.11-2,3.11-4.07s-.74-4.07-3.11-4.07-3,2-3,4.07S722.88,336.75,725.25,336.75Z" style="fill:#eb5d0b"/><path d="M733.33,326.36h3.33v1.76h.05a4.58,4.58,0,0,1,3.9-2.09c3.73,0,4.63,2.09,4.63,5.25v7.79h-3.5V331.9c0-2.09-.61-3.1-2.26-3.1-1.83,0-2.74,1.07-2.74,3.65v6.67h-3.5V326.36Z" style="fill:#eb5d0b"/><path d="M747.05,330.25c.18-3.27,3.11-4.23,6-4.23,2.54,0,5.6.56,5.6,3.65v6.6a6.21,6.21,0,0,0,.45,2.83h-3.56a4.38,4.38,0,0,1-.23-1.24,5.9,5.9,0,0,1-4.29,1.58c-2.43,0-4.35-1.18-4.35-3.79,0-2.88,2.15-3.55,4.35-3.84s4.13-.22,4.13-1.69-1-1.69-2.26-1.69a2,2,0,0,0-2.32,1.92h-3.51Zm8.09,2.61c-.57.5-1.83.55-2.88.73s-2.1.56-2.1,1.83,1,1.63,2.15,1.63a2.61,2.61,0,0,0,2.84-2.35,3.75,3.75,0,0,0,0-.58Z" style="fill:#eb5d0b"/><path d="M665.88,352.68h3.34v1.63h0a4.25,4.25,0,0,1,3.79-2c4,0,5.76,3.22,5.76,6.84,0,3.38-1.83,6.54-5.59,6.54a4.39,4.39,0,0,1-3.78-1.92h-.07v6.05h-3.5Zm9.44,6.4c0-2-.79-4.13-3.05-4.13s-3,2-3,4.13.79,4,3,4,3.05-2,3.05-4Z" style="fill:#eb5d0b"/><path d="M680.29,347.82h3.5v17.57h-3.5Z" style="fill:#eb5d0b"/><path d="M685.66,356.54c.16-3.28,3.1-4.24,6-4.24,2.54,0,5.58.57,5.58,3.66v6.6a6.23,6.23,0,0,0,.46,2.83h-3.57a4.42,4.42,0,0,1-.21-1.25,6,6,0,0,1-4.3,1.58c-2.43,0-4.35-1.18-4.35-3.78,0-2.88,2.14-3.56,4.35-3.84s4.12-.22,4.12-1.69-1-1.69-2.26-1.69a2,2,0,0,0-2.31,1.92h-3.5Zm8,2.6c-.57.5-1.83.56-2.88.73s-2.1.57-2.1,1.83,1,1.64,2.15,1.64a2.6,2.6,0,0,0,2.84-2.33,3.11,3.11,0,0,0,0-.61Z" style="fill:#eb5d0b"/><path d="M703.61,352.68h2.55V355h-2.55v6.27c0,1.19.29,1.47,1.48,1.47a3,3,0,0,0,1.07-.11v2.75a12.56,12.56,0,0,1-2,.11c-2.15,0-4-.51-4-3.05v-7.51H698V352.6h2.11v-3.78h3.5v3.89Z" style="fill:#eb5d0b"/><path d="M707.86,355h-2.1v-2.31h2.1v-.92c0-2.26,1.41-3.84,4.23-3.84.62,0,1.24.06,1.83.11v2.61a8.1,8.1,0,0,0-1.3-.07c-1,0-1.3.41-1.3,1.48v.73h2.43v2.32h-2.43v10.39h-3.5Z" style="fill:#eb5d0b"/><path d="M720.73,352.34c4,0,6.61,2.65,6.61,6.72s-2.6,6.66-6.61,6.66-6.55-2.65-6.55-6.66S716.78,352.34,720.73,352.34Zm0,10.73c2.38,0,3.11-2,3.11-4.07s-.73-4.06-3.11-4.06-3,2-3,4.06S718.36,363.07,720.73,363.07Z" style="fill:#eb5d0b"/><path d="M728.87,352.68h3.33v2.37h.06a4.58,4.58,0,0,1,4.06-2.74,3.08,3.08,0,0,1,.74.11v3.23a6.51,6.51,0,0,0-1.24-.12c-2.55,0-3.45,1.83-3.45,4.07v5.7h-3.5Z" style="fill:#eb5d0b"/><path d="M737.79,352.68h3.27v1.7h.07a4.6,4.6,0,0,1,3.89-2.1,3.77,3.77,0,0,1,3.73,2.1,4.58,4.58,0,0,1,3.84-2.1c2.75,0,4.63,1.25,4.63,4.52v8.53h-3.5v-7.18c0-1.69-.17-3.1-2.15-3.1s-2.31,1.64-2.31,3.22v7.06h-3.5v-7.11c0-1.47.1-3.17-2.09-3.17-.69,0-2.38.45-2.38,2.94v7.4h-3.5V352.68Z" style="fill:#eb5d0b"/></svg>