<?xml version="1.0" encoding="UTF-8"?>
<svg width="80px" height="80px" viewBox="0 0 80 80" version="1.1" xmlns="http://www.w3.org/2000/svg" xmlns:xlink="http://www.w3.org/1999/xlink">
    <title>icon/platform/03</title>
    <g id="icon/platform/03" stroke="none" stroke-width="1" fill="none" fill-rule="evenodd">
        <g id="Group-12" transform="translate(33.669860, 1.000000)"></g>
        <g id="Group" transform="translate(0.000000, 4.837607)" fill="#313C54" opacity="0.3">
            <g id="shape/horizontal-blue">
                <path d="M3.99901372,8.026911 C3.31162346,8.42370596 2.75445785,9.38853133 2.75445785,10.1819682 L2.75445785,30.8436156 C2.75445785,31.6372056 3.31162346,32.6020309 3.99901372,32.9986729 L21.892278,43.3295731 C22.5796682,43.726368 23.6938464,43.726368 24.3812367,43.3295731 L42.274501,32.9986729 C42.9618912,32.6020309 43.5190568,31.6372056 43.5190568,30.8436156 L43.5190568,10.1819682 C43.5190568,9.38853133 42.9618912,8.42370596 42.274501,8.026911 L24.3812367,-2.3038362 C23.6938464,-2.70063115 22.5796682,-2.70063115 21.892278,-2.3038362 L3.99901372,8.026911 Z" id="Fill-1" transform="translate(23.136757, 20.512868) rotate(-270.000000) translate(-23.136757, -20.512868) "></path>
            </g>
        </g>
        <g id="Group" transform="translate(33.669860, 4.837607)" fill="#313C54" opacity="0.3">
            <g id="shape/horizontal-blue">
                <path d="M3.99901372,8.026911 C3.31162346,8.42370596 2.75445785,9.38853133 2.75445785,10.1819682 L2.75445785,30.8436156 C2.75445785,31.6372056 3.31162346,32.6020309 3.99901372,32.9986729 L21.892278,43.3295731 C22.5796682,43.726368 23.6938464,43.726368 24.3812367,43.3295731 L42.274501,32.9986729 C42.9618912,32.6020309 43.5190568,31.6372056 43.5190568,30.8436156 L43.5190568,10.1819682 C43.5190568,9.38853133 42.9618912,8.42370596 42.274501,8.026911 L24.3812367,-2.3038362 C23.6938464,-2.70063115 22.5796682,-2.70063115 21.892278,-2.3038362 L3.99901372,8.026911 Z" id="Fill-1" transform="translate(23.136757, 20.512868) rotate(-270.000000) translate(-23.136757, -20.512868) "></path>
            </g>
        </g>
        <g id="shape/horizontal-blue" transform="translate(16.834930, 34.151576)" fill="#313C54">
            <path d="M3.99901372,8.026911 C3.31162346,8.42370596 2.75445785,9.38853133 2.75445785,10.1819682 L2.75445785,30.8436156 C2.75445785,31.6372056 3.31162346,32.6020309 3.99901372,32.9986729 L21.892278,43.3295731 C22.5796682,43.726368 23.6938464,43.726368 24.3812367,43.3295731 L42.274501,32.9986729 C42.9618912,32.6020309 43.5190568,31.6372056 43.5190568,30.8436156 L43.5190568,10.1819682 C43.5190568,9.38853133 42.9618912,8.42370596 42.274501,8.026911 L24.3812367,-2.3038362 C23.6938464,-2.70063115 22.5796682,-2.70063115 21.892278,-2.3038362 L3.99901372,8.026911 Z" id="Fill-1" transform="translate(23.136757, 20.512868) rotate(-270.000000) translate(-23.136757, -20.512868) "></path>
        </g>
        <g id="shape/horizontal-white" transform="translate(31.522766, 27.625564)" fill="#FEFEFE">
            <path d="M1.55998678,3.13124082 C1.29184073,3.28602771 1.07449439,3.66239922 1.07449439,3.9719133 L1.07449439,12.0318748 C1.07449439,12.3414486 1.29184073,12.7178201 1.55998678,12.8725473 L8.54002175,16.9025579 C8.8081678,17.0573448 9.24280078,17.0573448 9.51094682,16.9025579 L16.4909818,12.8725473 C16.7591278,12.7178201 16.9764742,12.3414486 16.9764742,12.0318748 L16.9764742,3.9719133 C16.9764742,3.66239922 16.7591278,3.28602771 16.4909818,3.13124082 L9.51094682,-0.898710096 C9.24280078,-1.05349698 8.8081678,-1.05349698 8.54002175,-0.898710096 L1.55998678,3.13124082 Z" id="Fill-1" transform="translate(9.025484, 8.001924) rotate(-270.000000) translate(-9.025484, -8.001924) "></path>
        </g>
    </g>
</svg>